<svg xmlns="http://www.w3.org/2000/svg" width="190" height="87" viewBox="0 0 190 87">
  <g id="Grupo_957148" data-name="Grupo 957148" transform="translate(-705 -2794)">
    <rect id="Rectángulo_339940" data-name="Rectángulo 339940" width="190" height="87" transform="translate(705 2794)" fill="#80cab6"/>
    <g id="Grupo_957099" data-name="Grupo 957099" transform="translate(339 -182)">
      <path id="Trazado_721465" data-name="Trazado 721465" d="M.969,12.375a11.99,11.99,0,0,1,.477-3.406A8.989,8.989,0,0,1,2.852,6.105a5.251,5.251,0,0,1,2.016-1.73L5.3,5.594A5.438,5.438,0,0,0,3.523,8.2a12.082,12.082,0,0,0-.641,4.125v.242a12.313,12.313,0,0,0,.633,4.141A5.544,5.544,0,0,0,5.3,19.359l-.437,1.2a5.253,5.253,0,0,1-1.98-1.684,8.838,8.838,0,0,1-1.4-2.785,11.918,11.918,0,0,1-.516-3.3Zm14.594.836A4.025,4.025,0,0,1,14.207,16.1a4.76,4.76,0,0,1-3.223,1.055,4.28,4.28,0,0,1-3.441-1.473,6.038,6.038,0,0,1-1.254-4.043v-.7a6.819,6.819,0,0,1,.578-2.891A4.332,4.332,0,0,1,8.52,6.137a4.629,4.629,0,0,1,2.5-.668,4.637,4.637,0,0,1,3.172,1.055,4.326,4.326,0,0,1,1.391,2.961H13.234a2.376,2.376,0,0,0-.613-1.6,2.271,2.271,0,0,0-1.605-.5,1.991,1.991,0,0,0-1.754.84,4.707,4.707,0,0,0-.6,2.605V11.7a5.038,5.038,0,0,0,.559,2.7,1.954,1.954,0,0,0,1.762.852,2.314,2.314,0,0,0,1.621-.5,2.241,2.241,0,0,0,.613-1.535Zm13.25-.656a11.377,11.377,0,0,1-.508,3.4,9.225,9.225,0,0,1-1.461,2.883A5.263,5.263,0,0,1,24.8,20.555l-.437-1.2a5.494,5.494,0,0,0,1.75-2.578,11.939,11.939,0,0,0,.664-4.008v-.414a12.208,12.208,0,0,0-.637-4.117A5.727,5.727,0,0,0,24.367,5.57l.438-1.2a5.265,5.265,0,0,1,2,1.672,9.106,9.106,0,0,1,1.461,2.82,11.3,11.3,0,0,1,.543,3.336ZM53.68,11.172H46.7V9.328H53.68Zm0,3.383H46.7V12.711H53.68Z" transform="translate(390 3008)" fill="#12263f"/>
      <path id="Trazado_721464" data-name="Trazado 721464" d="M2.352,17H.133L1.6,8.547H3.82ZM1.859,6.4A1.1,1.1,0,0,1,2.2,5.531a1.209,1.209,0,0,1,.867-.344,1.215,1.215,0,0,1,.867.3,1.1,1.1,0,0,1,.383.828A1.132,1.132,0,0,1,4,7.164a1.215,1.215,0,0,1-.887.375,1.235,1.235,0,0,1-.863-.3A1.091,1.091,0,0,1,1.859,6.4Zm15.148,8.219q.125-.625-.867-.906l-.711-.18q-2.523-.7-2.453-2.453a2.428,2.428,0,0,1,1.059-1.949,3.942,3.942,0,0,1,2.457-.738,3.536,3.536,0,0,1,2.313.758,2.5,2.5,0,0,1,.9,1.977l-2.187-.008a.963.963,0,0,0-1.078-1.1,1.552,1.552,0,0,0-.895.258,1.061,1.061,0,0,0-.465.7q-.117.625.945.883l.313.07a6.285,6.285,0,0,1,1.648.59,2.488,2.488,0,0,1,.879.824,2.04,2.04,0,0,1,.285,1.18,2.251,2.251,0,0,1-.52,1.406,3.18,3.18,0,0,1-1.359.93,4.736,4.736,0,0,1-1.816.3,3.568,3.568,0,0,1-2.344-.809,2.607,2.607,0,0,1-.953-2.051l2.078.016a1.142,1.142,0,0,0,1.3,1.227,1.845,1.845,0,0,0,1-.25A.987.987,0,0,0,17.008,14.617Zm7.625-8.148-.367,2.078h1.406L25.383,10.2H23.977l-.719,4.234a1.077,1.077,0,0,0,.063.609q.109.211.531.227.125.008.672-.039l-.156,1.727a3.706,3.706,0,0,1-1.266.18,1.985,1.985,0,0,1-1.617-.68,2.456,2.456,0,0,1-.437-1.8l.727-4.461h-1.2l.289-1.656h1.2l.359-2.078Z" transform="translate(406 3016)" fill="#12263f"/>
      <path id="Trazado_721463" data-name="Trazado 721463" d="M.969,12.375a11.99,11.99,0,0,1,.477-3.406A8.989,8.989,0,0,1,2.852,6.105a5.251,5.251,0,0,1,2.016-1.73L5.3,5.594A5.438,5.438,0,0,0,3.523,8.2a12.082,12.082,0,0,0-.641,4.125v.242a12.313,12.313,0,0,0,.633,4.141A5.544,5.544,0,0,0,5.3,19.359l-.437,1.2a5.253,5.253,0,0,1-1.98-1.684,8.838,8.838,0,0,1-1.4-2.785,11.918,11.918,0,0,1-.516-3.3Zm14.594.836A4.025,4.025,0,0,1,14.207,16.1a4.76,4.76,0,0,1-3.223,1.055,4.28,4.28,0,0,1-3.441-1.473,6.038,6.038,0,0,1-1.254-4.043v-.7a6.819,6.819,0,0,1,.578-2.891A4.332,4.332,0,0,1,8.52,6.137a4.629,4.629,0,0,1,2.5-.668,4.637,4.637,0,0,1,3.172,1.055,4.326,4.326,0,0,1,1.391,2.961H13.234a2.376,2.376,0,0,0-.613-1.6,2.271,2.271,0,0,0-1.605-.5,1.991,1.991,0,0,0-1.754.84,4.707,4.707,0,0,0-.6,2.605V11.7a5.038,5.038,0,0,0,.559,2.7,1.954,1.954,0,0,0,1.762.852,2.314,2.314,0,0,0,1.621-.5,2.241,2.241,0,0,0,.613-1.535Zm5.078-.656a11.377,11.377,0,0,1-.508,3.4,9.225,9.225,0,0,1-1.461,2.883,5.263,5.263,0,0,1-2.039,1.719l-.437-1.2a5.494,5.494,0,0,0,1.75-2.578,11.939,11.939,0,0,0,.664-4.008v-.414a12.208,12.208,0,0,0-.637-4.117A5.727,5.727,0,0,0,16.2,5.57l.438-1.2a5.265,5.265,0,0,1,2,1.672A9.106,9.106,0,0,1,20.1,8.867a11.3,11.3,0,0,1,.543,3.336Z" transform="translate(451 2993)" fill="#12263f"/>
      <path id="Trazado_721460" data-name="Trazado 721460" d="M4.922,14.617q.125-.625-.867-.906l-.711-.18Q.82,12.836.891,11.078A2.428,2.428,0,0,1,1.949,9.129a3.942,3.942,0,0,1,2.457-.738,3.536,3.536,0,0,1,2.313.758,2.5,2.5,0,0,1,.9,1.977L5.43,11.117a.963.963,0,0,0-1.078-1.1,1.552,1.552,0,0,0-.895.258,1.061,1.061,0,0,0-.465.7q-.117.625.945.883l.313.07a6.285,6.285,0,0,1,1.648.59,2.488,2.488,0,0,1,.879.824,2.04,2.04,0,0,1,.285,1.18,2.251,2.251,0,0,1-.52,1.406,3.18,3.18,0,0,1-1.359.93,4.736,4.736,0,0,1-1.816.3,3.568,3.568,0,0,1-2.344-.809A2.607,2.607,0,0,1,.07,14.3l2.078.016a1.142,1.142,0,0,0,1.3,1.227,1.845,1.845,0,0,0,1-.25A.987.987,0,0,0,4.922,14.617Zm7.625-8.148L12.18,8.547h1.406L13.3,10.2H11.891l-.719,4.234a1.077,1.077,0,0,0,.063.609q.109.211.531.227.125.008.672-.039l-.156,1.727a3.706,3.706,0,0,1-1.266.18,1.985,1.985,0,0,1-1.617-.68,2.456,2.456,0,0,1-.437-1.8L9.688,10.2h-1.2l.289-1.656h1.2l.359-2.078Zm6.336,8.2a1.22,1.22,0,0,1,.895.324,1.111,1.111,0,0,1,.371.855,1.151,1.151,0,0,1-.344.879,1.323,1.323,0,0,1-1.766.051,1.149,1.149,0,0,1-.375-.852A1.161,1.161,0,0,1,18,15.047,1.238,1.238,0,0,1,18.883,14.672Zm10.125-1.68L28.3,17H26.016L27.992,5.625l3.984.008a3.986,3.986,0,0,1,2.9,1.023A3.174,3.174,0,0,1,35.8,9.328,3.592,3.592,0,0,1,34.4,12a5.075,5.075,0,0,1-3.238,1Zm.32-1.9,1.906.016a2.41,2.41,0,0,0,1.531-.477,1.918,1.918,0,0,0,.727-1.289,1.646,1.646,0,0,0-.262-1.3,1.418,1.418,0,0,0-1.121-.516l-2.156-.008ZM41.016,5.625l1.4,8.227,4.242-8.227H49.7L47.727,17h-2.3l.563-3.242L47.1,8.7,42.742,17h-1.57L39.648,8.406l-.734,5.6L38.391,17H36.1L38.078,5.625Z" transform="translate(472 2999)" fill="#12263f"/>
      <text id="i" transform="translate(521 3002)" fill="#12263f" font-size="16" font-family="Roboto-BoldItalic, Roboto" font-weight="700" font-style="italic"><tspan x="0" y="17">i</tspan></text>
      <line id="Línea_496" data-name="Línea 496" x1="84" transform="translate(447.5 3020.5)" fill="none" stroke="#707070" stroke-width="2"/>
      <path id="Trazado_721462" data-name="Trazado 721462" d="M5.039,12.836H3.18L2.453,17H.164L2.141,5.625l3.766.008a4.289,4.289,0,0,1,2.91.891A2.817,2.817,0,0,1,9.719,9a3.574,3.574,0,0,1-2.5,3.258l1.6,4.617V17H6.383Zm-1.531-1.9,1.7.016a2.386,2.386,0,0,0,1.5-.488A1.933,1.933,0,0,0,7.414,9.18a1.473,1.473,0,0,0-.242-1.187,1.442,1.442,0,0,0-1.117-.461L4.1,7.523Zm19.266,1.469a13.2,13.2,0,0,1,1.668-4.988,7.175,7.175,0,0,1,3.246-3.066l.375,1.258q-2.672,2.039-3.383,6.555a19.376,19.376,0,0,0-.258,2.75q-.039,3.211,1.469,4.461l-.492,1.18a5.13,5.13,0,0,1-2.359-3.242,10.87,10.87,0,0,1-.4-3.312,13.121,13.121,0,0,1,.1-1.406Zm14.7-4.883H34.094L32.453,17H30.164L31.8,7.523H28.469l.336-1.9h9Zm-.883,13.055-.375-1.234q2.68-2.07,3.383-6.625a19.275,19.275,0,0,0,.242-2.7q.039-3.211-1.453-4.469l.492-1.18a4.565,4.565,0,0,1,1.582,1.457,6.725,6.725,0,0,1,.977,2.309,11.6,11.6,0,0,1,.3,2.781,13.865,13.865,0,0,1-.75,4.223,11.039,11.039,0,0,1-1.84,3.441A6.68,6.68,0,0,1,36.586,20.578Z" transform="translate(460 3023)" fill="#12263f"/>
      <text id="_." data-name="." transform="translate(473 3017)" fill="#12263f" font-size="18" font-family="Roboto-BoldItalic, Roboto" font-weight="700" font-style="italic"><tspan x="0" y="19">.</tspan></text>
      <path id="Trazado_721461" data-name="Trazado 721461" d="M4.922,14.617q.125-.625-.867-.906l-.711-.18Q.82,12.836.891,11.078A2.428,2.428,0,0,1,1.949,9.129a3.942,3.942,0,0,1,2.457-.738,3.536,3.536,0,0,1,2.313.758,2.5,2.5,0,0,1,.9,1.977L5.43,11.117a.963.963,0,0,0-1.078-1.1,1.552,1.552,0,0,0-.895.258,1.061,1.061,0,0,0-.465.7q-.117.625.945.883l.313.07a6.285,6.285,0,0,1,1.648.59,2.488,2.488,0,0,1,.879.824,2.04,2.04,0,0,1,.285,1.18,2.251,2.251,0,0,1-.52,1.406,3.18,3.18,0,0,1-1.359.93,4.736,4.736,0,0,1-1.816.3,3.568,3.568,0,0,1-2.344-.809A2.607,2.607,0,0,1,.07,14.3l2.078.016a1.142,1.142,0,0,0,1.3,1.227,1.845,1.845,0,0,0,1-.25A.987.987,0,0,0,4.922,14.617Zm7.625-8.148L12.18,8.547h1.406L13.3,10.2H11.891l-.719,4.234a1.077,1.077,0,0,0,.063.609q.109.211.531.227.125.008.672-.039l-.156,1.727a3.706,3.706,0,0,1-1.266.18,1.985,1.985,0,0,1-1.617-.68,2.456,2.456,0,0,1-.437-1.8L9.688,10.2h-1.2l.289-1.656h1.2l.359-2.078Z" transform="translate(502 3028)" fill="#12263f"/>
    </g>
  </g>
</svg>
