<svg xmlns="http://www.w3.org/2000/svg" width="132" height="58.078" viewBox="0 0 132 58.078">
  <g id="Grupo_957154" data-name="Grupo 957154" transform="translate(-1048.5 -13371.922)">
    <g id="Grupo_956675" data-name="Grupo 956675" transform="translate(1 -134)">
      <path id="Trazado_721457" data-name="Trazado 721457" d="M23.711,27.813,28.242,11.25h6.125L26.711,34h-6L13.117,11.25H19.2ZM47.367,34H42.086V17.188L36.9,18.7v-4l9.984-3.453h.484ZM33.227,50.484H26.4V69H20.914V50.484h-6.7V46.25H33.227ZM46.883,69H41.6V52.188L36.414,53.7v-4L46.4,46.25h.484Z" transform="translate(1042 13495)" fill="#12263f"/>
      <path id="Trazado_721458" data-name="Trazado 721458" d="M23.711,27.813,28.242,11.25h6.125L26.711,34h-6L13.117,11.25H19.2ZM51.57,34H35.7V30.563l7.313-7.687q2.7-3.078,2.7-4.891a3.4,3.4,0,0,0-.641-2.234,2.287,2.287,0,0,0-1.859-.766,2.316,2.316,0,0,0-1.953,1.023,4.206,4.206,0,0,0-.75,2.555H35.227A7.471,7.471,0,0,1,36.273,14.7a7.341,7.341,0,0,1,2.906-2.773,8.633,8.633,0,0,1,4.156-1,8.493,8.493,0,0,1,5.68,1.7,6.08,6.08,0,0,1,1.992,4.891,7.1,7.1,0,0,1-.5,2.617A11.477,11.477,0,0,1,48.953,22.8a39.162,39.162,0,0,1-3.4,3.742l-2.937,3.391H51.57ZM33.227,50.484H26.4V69H20.914V50.484h-6.7V46.25H33.227ZM51.086,69H35.211V65.563l7.313-7.687q2.7-3.078,2.7-4.891a3.4,3.4,0,0,0-.641-2.234,2.287,2.287,0,0,0-1.859-.766,2.316,2.316,0,0,0-1.953,1.023,4.206,4.206,0,0,0-.75,2.555H34.742A7.471,7.471,0,0,1,35.789,49.7,7.341,7.341,0,0,1,38.7,46.922a8.633,8.633,0,0,1,4.156-1,8.493,8.493,0,0,1,5.68,1.7,6.08,6.08,0,0,1,1.992,4.891,7.1,7.1,0,0,1-.5,2.617A11.477,11.477,0,0,1,48.469,57.8a39.162,39.162,0,0,1-3.4,3.742l-2.937,3.391h8.953Z" transform="translate(1122 13495)" fill="#12263f"/>
      <g id="Grupo_956674" data-name="Grupo 956674">
        <text id="_" data-name="=" transform="translate(1103 13513)" fill="#12263f" font-size="32" font-family="Roboto-Black, Roboto" font-weight="800"><tspan x="-9.367" y="34">=</tspan></text>
        <line id="Línea_323" data-name="Línea 323" x2="49" transform="translate(1047.5 13531.5)" fill="none" stroke="#707070" stroke-width="2"/>
        <line id="Línea_324" data-name="Línea 324" x2="49" transform="translate(1130.5 13531.5)" fill="none" stroke="#707070" stroke-width="2"/>
      </g>
    </g>
  </g>
</svg>
