<svg xmlns="http://www.w3.org/2000/svg" xmlns:xlink="http://www.w3.org/1999/xlink" width="61" height="43" viewBox="0 0 61 43">
  <defs>
    <clipPath id="clip-path">
      <rect id="Rectángulo_339756" data-name="Rectángulo 339756" width="61" height="43" transform="translate(590 3168)" fill="none"/>
    </clipPath>
  </defs>
  <g id="Enmascarar_grupo_927256" data-name="Enmascarar grupo 927256" transform="translate(-590 -3168)" clip-path="url(#clip-path)">
    <g id="Grupo_956871" data-name="Grupo 956871" transform="translate(604 3172.281)">
      <g id="Grupo_956872" data-name="Grupo 956872" transform="translate(0 0.719)">
        <path id="Trazado_721046" data-name="Trazado 721046" d="M0,20.436c.668-.655,1.341-1.305,2-1.97a.646.646,0,0,1,.529-.214c.446.016.893,0,1.346,0a3.694,3.694,0,0,1,2.709-3.173,3.715,3.715,0,0,1,4.029,1.082V4.757h.365c1.9,0,3.8,0,5.7,0a.524.524,0,0,0,.46-.21c.417-.513.841-1.02,1.283-1.512a.7.7,0,0,1,.421-.2,9.152,9.152,0,0,1,.918-.009V.927h3.857V2.834c.331,0,.629-.02.922.009a.722.722,0,0,1,.427.188c.454.481.894.975,1.317,1.483a.655.655,0,0,0,.573.25c1.856-.009,3.712,0,5.568,0h.358V33.689H29.9a.069.069,0,0,0-.015-.054q0-.2,0-.4l.023-.518h1.9v-.947c0-.064.011-.127.011-.191q0-12.787,0-25.573c0-.091-.012-.181-.018-.256H26.564V6.7h4.289v.327q0,12.226,0,24.453c0,.1-.006.192-.009.288H15.452v.98H26.986l.03.434q0,.256,0,.512H0V20.436M21.7,2.822h.935v-.94H20.758v.94Zm-16.2,14.1,0,0a2.83,2.83,0,0,0-.322,3.271l-.337.232-.528.258-.483-1.44c-.645-.027-1.339-.173-1.772.544l-.016.028c-.289.283-.571.574-.871.845a.643.643,0,0,0-.221.529q.01,5.6,0,11.2v.327H14.456v-1c0-.032.009-.064.009-.1q0-5.263-.005-10.526a.571.571,0,0,0-.151-.356c-.442-.462-.9-.911-1.354-1.36a.424.424,0,0,0-.234-.14c-.391-.015-.784-.007-1.164-.007a3.759,3.759,0,0,1-2.92,3.233,3.578,3.578,0,0,1-3.52-.86l.326-.4.315-.3a2.86,2.86,0,0,0,3.6.18,2.64,2.64,0,0,0,1.2-2.81A2.726,2.726,0,0,0,8.49,15.961a2.648,2.648,0,0,0-2.927.884l-.056.072M12.553,6.686h4.329v-.95H11.6V18.232h.957V13.416l.5-.025.444.035c0,1.615,0,3.2,0,4.792a.688.688,0,0,0,.223.558c.5.478.978.982,1.479,1.462a.692.692,0,0,1,.233.553q-.012,4.816-.006,9.632v.358H29.876v-.937c0-.085.013-.17.013-.255q0-10.818,0-21.635c0-.092-.009-.185-.015-.284H26.537V8.6H19.785l-.027-.393.033-.563h5.773V6.792a6.636,6.636,0,0,1,.027-.763,1.551,1.551,0,0,0-.564-1.495c-.184-.158-.313-.38-.5-.539a.736.736,0,0,0-.428-.19c-1.586-.013-3.171,0-4.757-.014a.5.5,0,0,0-.536.292,4.4,4.4,0,0,1-.406.448,1.635,1.635,0,0,0-.546,1.507c.043.526.009,1.058.009,1.625h.926c.011.206.02.375.029.545l-.031.39h-1.9V7.675H13.5V12.5h-.884c-.024-.053-.069-.106-.069-.158q0-2.83.008-5.66" transform="translate(0 -0.927)" fill="#020202"/>
        <path id="Trazado_721047" data-name="Trazado 721047" d="M327.782,373.944h-.96q-.013-.254-.027-.508l.028-.432h.941l.023.429q0,.256,0,.511" transform="translate(-298.846 -341.182)" fill="#030304"/>
        <path id="Trazado_721050" data-name="Trazado 721050" d="M348.819,383.419l.049-.054a.069.069,0,0,1,.015.054Z" transform="translate(-318.986 -350.657)" fill="#a3d5f3"/>
        <path id="Trazado_721051" data-name="Trazado 721051" d="M169.216,79.784h2.418v.922h1.9l.031-.39.936,0,.027.393h6.752v-.931h3.338c.005.1.015.192.015.284q0,10.818,0,21.635c0,.085-.008.17-.013.255H171.6c-.406,0-.406,0-.406-.424,0-2.954,0-5.907.007-8.861a.881.881,0,0,0-.308-.721c-.51-.467-1.008-.948-1.5-1.437a.608.608,0,0,1-.178-.38c-.008-2.484,0-4.969,0-7.453.106,0,.213.005.319.005.747,0,.742,0,.7-.736-.009-.16-.054-.233-.223-.227-.265.01-.531.005-.8.007q0-.973,0-1.945m6.341,3.858-1.16,6.212h1.011l.742-4.075c.078.193.134.305.169.423q.449,1.5.892,3c.209.706.208.712.958.665a.35.35,0,0,0,.25-.2c.168-.538.31-1.083.463-1.626q.319-1.132.64-2.263l.047.006.807,4.074h1.008l-1.256-6.225a8.058,8.058,0,0,0-.806.009.356.356,0,0,0-.246.2c-.126.372-.222.754-.33,1.133l-.869,3.05-1.315-4.382Zm-5.9,6.223c.811,0,1.608.02,2.4,0a1.913,1.913,0,0,0,1.8-2.166,1.938,1.938,0,0,0-.888-1.4c.024-.05.035-.079.05-.106a1.67,1.67,0,0,0-1.467-2.554c-.235,0-.469,0-.7,0h-1.192Zm13.035,2.9h-8.16v.923h8.16Zm-8.166,5.776h8.162v-.925h-8.162Zm7.743-8.686h.932V83.6h-.932Zm-7.745,5.775H176.9v-.931h-2.373Zm-.01,4.832H176.9v-.946h-2.382v.946Zm-2.358-18.238c-.006-.528.067-.5-.425-.495-.574,0-.536-.075-.534.416,0,.594-.076.543.44.542.574,0,.515.071.52-.464" transform="translate(-154.744 -73.035)" fill="#e3e9f2"/>
        <path id="Trazado_721052" data-name="Trazado 721052" d="M23.878,215.234l.016-.028c.433-.716,1.127-.571,1.772-.543l.483,1.441.528-.258.594.78-.326.4a3.577,3.577,0,0,0,3.52.861,3.759,3.759,0,0,0,2.92-3.233c.38,0,.772-.008,1.164.006a.425.425,0,0,1,.234.14c.456.449.912.9,1.354,1.36a.571.571,0,0,1,.151.356q.012,5.263.005,10.526c0,.032-.006.064-.009.1l-10.765,0c-.468,0-.937-.005-1.405,0-.177,0-.246-.057-.243-.239.011-.766.011-1.533.016-2.3.02.037.042.072.059.111a2.363,2.363,0,0,0,2.462,1.44,2.194,2.194,0,0,0,2.081-1.988,15.716,15.716,0,0,0,.041-2.455,2.242,2.242,0,0,0-1.2-1.919,2.387,2.387,0,0,0-3.4,1.2,2.074,2.074,0,0,1-.055-.333c-.006-1.038-.005-2.075-.006-3.113h.94v-.978h-.935q0-.666,0-1.332m11.457,7.554-.051,0c0-.394.028-.791-.005-1.182a2.376,2.376,0,0,0-4.735.087c-.031.745-.029,1.493,0,2.239a2.378,2.378,0,0,0,4.692.386,11.809,11.809,0,0,0,.1-1.528" transform="translate(-21.829 -196.355)" fill="#de8da1"/>
        <path id="Trazado_721053" data-name="Trazado 721053" d="M149.349,79.833q0,.973,0,1.945,0,.475,0,.95c0,2.484-.007,4.969,0,7.453a.608.608,0,0,0,.178.38c.489.489.986.97,1.5,1.437a.881.881,0,0,1,.308.721c-.012,2.954-.007,5.907-.007,8.861,0,.423,0,.424.406.424h13.018v.937H150.305v-.358q0-4.816.006-9.632a.692.692,0,0,0-.233-.553c-.5-.48-.977-.984-1.479-1.462a.688.688,0,0,1-.223-.558c.009-1.588,0-3.177,0-4.792l-.444-.035c0-.074,0-.147,0-.221,0-.527,0-.527-.445-.665h.884V79.833Z" transform="translate(-134.877 -73.085)" fill="#c8d5e7"/>
        <path id="Trazado_721054" data-name="Trazado 721054" d="M314.876,83.288c0-.1.009-.192.009-.288q0-12.227,0-24.453V58.22H310.6v-.949h5.233c.005.075.018.166.018.256q0,12.787,0,25.573c0,.064-.007.127-.011.191l-.96,0" transform="translate(-284.032 -52.452)" fill="#c2e3f6"/>
        <path id="Trazado_721055" data-name="Trazado 721055" d="M12.288,221.667q0,.666,0,1.332l-.006.978c0,1.038,0,2.075.006,3.113a2.074,2.074,0,0,0,.055.333,3.665,3.665,0,0,0-.153.777c.017.944.07,1.888.109,2.832,0,.767-.005,1.533-.016,2.3,0,.182.066.242.243.239.468-.008.937,0,1.405,0l10.765,0v1H11.2v-.327q0-5.6,0-11.2a.643.643,0,0,1,.221-.529c.3-.271.581-.562.871-.845" transform="translate(-10.238 -202.788)" fill="#cf5573"/>
        <path id="Trazado_721056" data-name="Trazado 721056" d="M64.317,176.229a2.649,2.649,0,0,1,2.927-.884,2.726,2.726,0,0,1,2.068,2.307,2.64,2.64,0,0,1-1.2,2.81h-.574a3.262,3.262,0,0,1-3.226-2.56,8.565,8.565,0,0,1-.049-1.6l0,0,.056-.072m1.652,2.362H66.9v-1.932h-.934Z" transform="translate(-58.755 -160.311)" fill="#faf3bc"/>
        <path id="Trazado_721057" data-name="Trazado 721057" d="M219.926,34.711a.5.5,0,0,1,.536-.292c1.586.011,3.171,0,4.757.014a.736.736,0,0,1,.428.19c.183.159.312.381.5.539a1.551,1.551,0,0,1,.564,1.495,6.674,6.674,0,0,0-.027.763c-2.152,0-4.3,0-6.456.01-.222,0-.293-.066-.291-.29.008-.809,0-1.619-.008-2.429m.461,1.709h.929v-.933h-.929Z" transform="translate(-201.117 -31.554)" fill="#e6a94b"/>
        <path id="Trazado_721058" data-name="Trazado 721058" d="M196.069,361.475l.96,0v.947h-1.9l-.023.518-.941-.053-.023-.429H193.2l-.028.432-.933,0-.03-.434H180.678v-.98Z" transform="translate(-165.226 -330.639)" fill="#a3d5f3"/>
        <path id="Trazado_721059" data-name="Trazado 721059" d="M136.661,63.932c.445.138.445.138.445.665,0,.074,0,.148,0,.221l-.5.025v4.815h-.957V57.164h.949q0,.475,0,.95-.006,2.83-.008,5.66c0,.053.045.106.069.158" transform="translate(-124.047 -52.354)" fill="#a1d3f0"/>
        <path id="Trazado_721060" data-name="Trazado 721060" d="M209.638,37.835c0,.81.015,1.619.008,2.429,0,.224.069.291.291.29,2.152-.009,4.3-.008,6.456-.01V41.4H210.62l-.033.563-.936,0c-.009-.169-.018-.338-.029-.544H208.7c0-.566.034-1.1-.009-1.625a1.634,1.634,0,0,1,.546-1.506,4.409,4.409,0,0,0,.406-.448" transform="translate(-190.829 -34.678)" fill="#de7539"/>
        <path id="Trazado_721061" data-name="Trazado 721061" d="M56.97,187.861a8.572,8.572,0,0,0,.049,1.6,3.262,3.262,0,0,0,3.226,2.56h.574a2.86,2.86,0,0,1-3.6-.18l-.315.3-.594-.78.337-.232a2.83,2.83,0,0,1,.322-3.271" transform="translate(-51.462 -171.874)" fill="#f3e467"/>
        <path id="Trazado_721062" data-name="Trazado 721062" d="M146.747,58.114q0-.475,0-.95h4.332v.95Z" transform="translate(-134.194 -52.354)" fill="#c3e4f8"/>
        <path id="Trazado_721063" data-name="Trazado 721063" d="M243.66,13.032h-.946v-.94h.946q0,.47,0,.94" transform="translate(-221.956 -11.137)" fill="#de7539"/>
        <path id="Trazado_721064" data-name="Trazado 721064" d="M253.77,13.032q0-.47,0-.94h.935v.94Z" transform="translate(-232.066 -11.137)" fill="#e6a94b"/>
        <path id="Trazado_721065" data-name="Trazado 721065" d="M64.439,187.047l-.056.072.056-.072" transform="translate(-58.877 -171.129)" fill="#f3e467"/>
        <path id="Trazado_721066" data-name="Trazado 721066" d="M230.958,124.788h1.005l1.315,4.382.869-3.05c.108-.378.2-.761.33-1.133a.356.356,0,0,1,.246-.2c.262-.027.528-.009.806-.009L236.784,131h-1.008l-.807-4.074-.047-.006q-.32,1.132-.64,2.263c-.153.542-.295,1.088-.463,1.626a.35.35,0,0,1-.25.2c-.751.048-.75.041-.958-.665q-.443-1.5-.892-3c-.035-.118-.091-.23-.169-.423L230.809,131H229.8l1.16-6.212" transform="translate(-210.145 -114.182)" fill="#030303"/>
        <path id="Trazado_721067" data-name="Trazado 721067" d="M174.378,131.065v-6.232h1.192c.235,0,.469,0,.7,0a1.67,1.67,0,0,1,1.467,2.554c-.015.027-.027.057-.051.106a1.938,1.938,0,0,1,.888,1.4,1.913,1.913,0,0,1-1.8,2.166c-.8.025-1.593,0-2.4,0m.961-.964c.485,0,.942.014,1.4,0a.905.905,0,0,0,.881-.88.874.874,0,0,0-.707-.99,13.577,13.577,0,0,0-1.583-.014c0,.583,0,1.157,0,1.732,0,.041.006.082.011.156m0-2.879c.429-.022.824-.016,1.209-.071.355-.051.486-.275.478-.675a.6.6,0,0,0-.519-.659c-.387-.031-.778-.007-1.168-.007Z" transform="translate(-159.464 -114.235)" fill="#030303"/>
        <rect id="Rectángulo_339744" data-name="Rectángulo 339744" width="8.16" height="0.923" transform="translate(19.789 19.726)" fill="#030304"/>
        <rect id="Rectángulo_339745" data-name="Rectángulo 339745" width="8.162" height="0.925" transform="translate(19.783 24.577)" fill="#030304"/>
        <rect id="Rectángulo_339746" data-name="Rectángulo 339746" width="0.932" height="6.254" transform="translate(27.526 10.562)" fill="#050505"/>
        <rect id="Rectángulo_339747" data-name="Rectángulo 339747" width="2.373" height="0.931" transform="translate(19.781 21.659)" fill="#060606"/>
        <path id="Trazado_721068" data-name="Trazado 721068" d="M231.171,311.449V310.5h2.382v.946Z" transform="translate(-211.4 -284.027)" fill="#030303"/>
        <path id="Trazado_721069" data-name="Trazado 721069" d="M169.254,103.448q0-.475,0-.95c.266,0,.532,0,.8-.007.168-.006.214.067.223.227.041.737.046.737-.7.736-.106,0-.213,0-.319-.005" transform="translate(-154.779 -93.804)" fill="#fcfcfd"/>
        <path id="Trazado_721070" data-name="Trazado 721070" d="M193.307,102.993c0,.535.054.462-.52.464-.515,0-.437.052-.44-.542,0-.491-.04-.413.534-.416.492,0,.419-.033.425.495" transform="translate(-175.894 -93.809)" fill="#fefefe"/>
        <path id="Trazado_721071" data-name="Trazado 721071" d="M106.459,274.543a11.79,11.79,0,0,1-.1,1.528,2.378,2.378,0,0,1-4.692-.386c-.029-.745-.031-1.494,0-2.239a2.376,2.376,0,0,1,4.735-.087c.033.391.005.788.005,1.182h.05m-1.781,2.259a1.2,1.2,0,0,0,.765-1.118c.03-.659.022-1.32.015-1.98a1.372,1.372,0,0,0-1.683-1.46,1.338,1.338,0,0,0-1.15,1.358c-.014.659-.019,1.319,0,1.978a1.39,1.39,0,0,0,2.052,1.222" transform="translate(-92.953 -248.111)" fill="#040304"/>
        <path id="Trazado_721072" data-name="Trazado 721072" d="M22.907,276.383c-.039-.944-.092-1.888-.109-2.832a3.665,3.665,0,0,1,.153-.777,2.387,2.387,0,0,1,3.4-1.2,2.241,2.241,0,0,1,1.2,1.919,15.706,15.706,0,0,1-.041,2.455,2.194,2.194,0,0,1-2.081,1.988,2.363,2.363,0,0,1-2.462-1.44c-.017-.038-.039-.074-.059-.11m2.938.428a1.282,1.282,0,0,0,.754-1.26c.02-.606.01-1.212,0-1.819a1.385,1.385,0,0,0-1.657-1.465,1.242,1.242,0,0,0-1.153,1.172,16.831,16.831,0,0,0,0,2.361,1.369,1.369,0,0,0,2.051,1.011" transform="translate(-20.848 -248.139)" fill="#030203"/>
        <path id="Trazado_721073" data-name="Trazado 721073" d="M23.87,238.225l.006-.978h.935v.978Z" transform="translate(-21.829 -217.036)" fill="#fcfcfd"/>
        <rect id="Rectángulo_339748" data-name="Rectángulo 339748" width="0.934" height="1.932" transform="translate(7.214 16.347)" fill="#12110d"/>
        <rect id="Rectángulo_339749" data-name="Rectángulo 339749" width="0.929" height="0.933" transform="translate(19.27 3.932)" fill="#fcf8f1"/>
        <path id="Trazado_721074" data-name="Trazado 721074" d="M185.5,166.065c-.005-.074-.011-.115-.011-.156,0-.574,0-1.149,0-1.732a13.573,13.573,0,0,1,1.582.014.874.874,0,0,1,.707.99.9.9,0,0,1-.882.88c-.455.018-.912,0-1.4,0" transform="translate(-169.621 -150.2)" fill="#e2e9f2"/>
        <path id="Trazado_721075" data-name="Trazado 721075" d="M185.626,137.586v-1.412c.39,0,.781-.023,1.168.007a.6.6,0,0,1,.519.659c.008.4-.123.624-.478.675-.385.055-.779.049-1.209.071" transform="translate(-169.75 -124.599)" fill="#e1e8f1"/>
        <path id="Trazado_721076" data-name="Trazado 721076" d="M124.385,282.941a1.372,1.372,0,0,1,1.683,1.46c.007.66.014,1.321-.015,1.98a1.2,1.2,0,0,1-.764,1.118.8.8,0,0,0-.112-.107,1.945,1.945,0,0,1-.988-1.771c.012-.532-.022-1.066.011-1.6a9.4,9.4,0,0,1,.187-1.084" transform="translate(-113.563 -258.807)" fill="#9f6fcd"/>
        <path id="Trazado_721077" data-name="Trazado 721077" d="M114.114,283.115a9.408,9.408,0,0,0-.187,1.084c-.032.53,0,1.064-.011,1.6a1.945,1.945,0,0,0,.988,1.771.8.8,0,0,1,.112.107,1.389,1.389,0,0,1-2.051-1.222c-.02-.659-.015-1.319,0-1.978a1.339,1.339,0,0,1,1.15-1.358" transform="translate(-103.292 -258.981)" fill="#7e3fbb"/>
        <path id="Trazado_721078" data-name="Trazado 721078" d="M45.764,282.937A1.385,1.385,0,0,1,47.42,284.4c.006.606.016,1.213,0,1.819a1.282,1.282,0,0,1-.754,1.26.991.991,0,0,0-.123-.1,1.8,1.8,0,0,1-.971-1.7c0-.607-.02-1.215.009-1.82a6.049,6.049,0,0,1,.185-.924" transform="translate(-41.666 -258.807)" fill="#9e6fcc"/>
        <path id="Trazado_721079" data-name="Trazado 721079" d="M35.144,283.059a6.047,6.047,0,0,0-.185.924c-.03.605-.006,1.213-.009,1.82a1.8,1.8,0,0,0,.971,1.7.988.988,0,0,1,.123.1,1.369,1.369,0,0,1-2.05-1.011,16.806,16.806,0,0,1,0-2.361,1.242,1.242,0,0,1,1.153-1.172" transform="translate(-31.046 -258.93)" fill="#7d3fba"/>
      </g>
    </g>
  </g>
</svg>
