<svg xmlns="http://www.w3.org/2000/svg" xmlns:xlink="http://www.w3.org/1999/xlink" width="61" height="43" viewBox="0 0 61 43">
  <defs>
    <clipPath id="clip-path">
      <rect id="Rectángulo_339754" data-name="Rectángulo 339754" width="61" height="43" transform="translate(939 3168)" fill="none"/>
    </clipPath>
  </defs>
  <g id="Enmascarar_grupo_927254" data-name="Enmascarar grupo 927254" transform="translate(-939 -3168)" clip-path="url(#clip-path)">
    <g id="Grupo_956876" data-name="Grupo 956876" transform="translate(876.205 3171.308)">
      <g id="Grupo_956877" data-name="Grupo 956877" transform="translate(83.795 0.693)">
        <path id="Trazado_721091" data-name="Trazado 721091" d="M88.785,10.141c-.523-.1-.691-.3-.691-.838,0-1.275-.008-2.551,0-3.826a4.779,4.779,0,0,1,9.487-.83A5.954,5.954,0,0,1,97.66,5.7q.007,6.422,0,12.845a.543.543,0,0,0,.281.517,9.087,9.087,0,0,1-3.385,16.477c-.259.049-.517.1-.776.153H91.864c-.291-.067-.582-.137-.874-.2A9,9,0,0,1,83.9,27.973a8.845,8.845,0,0,1,3.9-8.9.613.613,0,0,0,.3-.574c-.016-1.149-.008-2.3-.006-3.448,0-.535.169-.734.691-.836a.736.736,0,0,1,.675.866c0,1.276-.021,2.552.011,3.826a1.159,1.159,0,0,1-.638,1.126,7.453,7.453,0,0,0-3.649,5.929A7.721,7.721,0,1,0,96.87,20a1.042,1.042,0,0,1-.583-1.011c.017-3.53.009-7.061.009-10.591,0-.957.011-1.913,0-2.87a3.414,3.414,0,1,0-6.827-.084c-.02,1.275,0,2.551-.006,3.826a.737.737,0,0,1-.675.866" transform="translate(-83.795 -0.693)" fill="#030303"/>
        <path id="Trazado_721092" data-name="Trazado 721092" d="M102.315,23.814a.737.737,0,0,0,.675-.866c0-1.276-.014-2.551.006-3.827a3.414,3.414,0,1,1,6.827.084c.013.956,0,1.913,0,2.87,0,3.53.008,7.061-.009,10.591a1.042,1.042,0,0,0,.583,1.011A7.715,7.715,0,1,1,98.713,39.64a7.453,7.453,0,0,1,3.649-5.929A1.159,1.159,0,0,0,103,32.585c-.032-1.275-.009-2.551-.011-3.826a.736.736,0,0,0-.675-.866q0-.672,0-1.345c.444-.111.672-.346.672-.695s-.228-.584-.672-.694Zm2.043,10.432c-.094.039-.176.075-.26.107a6.368,6.368,0,1,0,4.676.035.438.438,0,0,1-.321-.5q.013-6.9.006-13.806c0-.7-.225-.929-.913-.929H105.29c-.73,0-.932.2-.932.934q0,6.886,0,13.772Z" transform="translate(-97.325 -14.366)" fill="#bdecf7"/>
        <path id="Trazado_721093" data-name="Trazado 721093" d="M258.853,54.494c-.409,0-.818.006-1.227,0a.681.681,0,1,1-.021-1.361c.841-.012,1.682-.013,2.523,0a.679.679,0,0,1-.013,1.359c-.42.01-.841,0-1.261,0" transform="translate(-241.102 -48.335)" fill="#030303"/>
        <path id="Trazado_721094" data-name="Trazado 721094" d="M258.884,96.416c-.42,0-.841.006-1.261,0a.681.681,0,1,1-.014-1.361q1.244-.018,2.489,0a.682.682,0,1,1-.02,1.362c-.4.006-.8,0-1.193,0" transform="translate(-241.103 -86.43)" fill="#030303"/>
        <path id="Trazado_721095" data-name="Trazado 721095" d="M258.838,138.333c-.4,0-.8.005-1.193,0a.683.683,0,1,1-.023-1.362q1.244-.015,2.489,0a.681.681,0,1,1-.011,1.361c-.42.008-.841,0-1.261,0" transform="translate(-241.104 -124.519)" fill="#030303"/>
        <path id="Trazado_721096" data-name="Trazado 721096" d="M258.86,180.254c-.409,0-.818.005-1.227,0a.683.683,0,1,1-.006-1.363q1.227-.014,2.455,0a.683.683,0,1,1-.028,1.363c-.4,0-.8,0-1.193,0" transform="translate(-241.099 -162.612)" fill="#030303"/>
        <path id="Trazado_721097" data-name="Trazado 721097" d="M131.583,118.9c.444.11.672.346.672.694s-.228.584-.672.695c-.472-.093-.689-.312-.69-.695s.218-.6.69-.694" transform="translate(-126.593 -108.103)" fill="#060707"/>
        <path id="Trazado_721098" data-name="Trazado 721098" d="M117.838,68.259v-.382q0-6.886,0-13.772c0-.731.2-.933.932-.934h2.256c.688,0,.913.229.913.929q0,6.9-.006,13.806a.438.438,0,0,0,.321.5,6.348,6.348,0,1,1-4.676-.035c.084-.033.167-.069.26-.107m1.367-13.713v.434q0,6.783,0,13.566c0,.607-.133.784-.709.954a4.984,4.984,0,1,0,6.364,5.044,4.933,4.933,0,0,0-3.559-5.037c-.618-.182-.729-.325-.729-.964q0-6.8,0-13.6v-.4Z" transform="translate(-110.805 -48.379)" fill="#030202"/>
        <path id="Trazado_721099" data-name="Trazado 721099" d="M132.8,68.239h1.367v.4q0,6.8,0,13.6c0,.638.111.782.729.964a4.985,4.985,0,0,1-.7,9.712,4.983,4.983,0,0,1-2.1-9.719c.576-.17.709-.347.709-.954q0-6.783,0-13.566v-.434m.771,23.368c.142-.017.393-.032.637-.082a3.8,3.8,0,0,0,.65-.2A3.648,3.648,0,0,0,137.1,88.05a.706.706,0,0,0-.64-.75.682.682,0,0,0-.723.658,4.088,4.088,0,0,1-.1.639,2.255,2.255,0,0,1-3.322,1.321.678.678,0,0,0-1,.232.687.687,0,0,0,.327.952,3.737,3.737,0,0,0,1.928.505m-3.707-3.626a.674.674,0,0,0,.658.684.684.684,0,1,0,0-1.367.672.672,0,0,0-.658.683" transform="translate(-124.396 -62.071)" fill="#fc6270"/>
        <path id="Trazado_721100" data-name="Trazado 721100" d="M160.939,281.278a3.736,3.736,0,0,1-1.928-.505.687.687,0,0,1-.327-.952.678.678,0,0,1,1-.232,2.255,2.255,0,0,0,3.322-1.321,4.076,4.076,0,0,0,.1-.639.681.681,0,0,1,.723-.658.706.706,0,0,1,.64.75A3.648,3.648,0,0,1,162.227,281a3.8,3.8,0,0,1-.65.2c-.244.05-.5.065-.637.082" transform="translate(-151.768 -251.743)" fill="#040102"/>
        <path id="Trazado_721101" data-name="Trazado 721101" d="M143.631,277.64a.672.672,0,0,1,.658-.683.684.684,0,1,1,0,1.367.674.674,0,0,1-.658-.684" transform="translate(-138.167 -251.731)" fill="#060303"/>
      </g>
    </g>
  </g>
</svg>
