<svg xmlns="http://www.w3.org/2000/svg" xmlns:xlink="http://www.w3.org/1999/xlink" width="61" height="43" viewBox="0 0 61 43">
  <defs>
    <clipPath id="clip-path">
      <rect id="Rectángulo_339752" data-name="Rectángulo 339752" width="61" height="43" transform="translate(1293 3168)" fill="none"/>
    </clipPath>
  </defs>
  <g id="Enmascarar_grupo_927252" data-name="Enmascarar grupo 927252" transform="translate(-1293 -3168)" clip-path="url(#clip-path)">
    <g id="Grupo_956882" data-name="Grupo 956882" transform="translate(1306 3172)">
      <g id="Grupo_956883" data-name="Grupo 956883">
        <path id="Trazado_721112" data-name="Trazado 721112" d="M0,172.817c.024.021.057.037.069.063a1.85,1.85,0,0,0,2.176,1.266c.554-.051,1.112-.07,1.667-.111a1.824,1.824,0,0,0,1.745-1.576,1.862,1.862,0,0,0-1.246-2.127,2.831,2.831,0,0,0-.6-.1c-.578-.048-1.157-.078-1.735-.124A1.826,1.826,0,0,0,.105,171.3a.989.989,0,0,1-.105.157v1.364m1.024-.671c0-.8.317-1.079,1.117-1.006.543.049,1.087.077,1.631.112.578.037.868.326.871.872,0,.567-.286.857-.883.894-.555.035-1.111.068-1.665.116-.749.065-1.071-.226-1.071-.988" transform="translate(0 -154.672)" fill="#040403"/>
        <path id="Trazado_721113" data-name="Trazado 721113" d="M170.684,321.759a.693.693,0,0,1-.126.091,1.836,1.836,0,0,0-1.217,2.018c.051.6.08,1.2.125,1.8a1.906,1.906,0,0,0,3.709.469,7.4,7.4,0,0,0,.151-1.385,7.516,7.516,0,0,0,.015-1.559,1.589,1.589,0,0,0-1.365-1.373c-.024,0-.042-.041-.063-.062Zm.678,1.023c.784,0,1.07.32,1,1.091-.049.543-.08,1.087-.112,1.631-.036.6-.322.9-.88.9s-.851-.291-.888-.89c-.033-.544-.064-1.088-.113-1.631-.07-.777.214-1.1.993-1.1" transform="translate(-153.899 -321.759)" fill="#040403"/>
        <path id="Trazado_721114" data-name="Trazado 721114" d="M94.307,23.681c.443.026.608-.084.682-.511a5.65,5.65,0,0,0,.076-.846c.011-.545.018-1.091,0-1.636a2.7,2.7,0,0,1,.9-2.15,10.047,10.047,0,0,0,3.05-5.832A10.267,10.267,0,0,0,91.5,1.151a10.06,10.06,0,0,0-8.536,1.493c-.38.258-.424.409-.272.828a.591.591,0,0,0,.853.017,9.093,9.093,0,0,1,6.861-1.518,1.247,1.247,0,0,1,.2.013,9,9,0,0,1,7.067,6.337,8.923,8.923,0,0,1-2.156,9.209A4.419,4.419,0,0,0,94.087,19.9h-.4l-6.274-.015H83.585a4.087,4.087,0,0,0-1.328-2.242,9.008,9.008,0,0,1-2.7-6.316,9.061,9.061,0,0,1,2.284-6.308c.313-.365.329-.5.108-.874-.386-.2-.551-.173-.831.142a10.261,10.261,0,0,0,.505,14.17,2.993,2.993,0,0,1,.99,2.358,11.758,11.758,0,0,0,.09,2.377,3.745,3.745,0,0,0,2.672,2.987.415.415,0,0,1,.335.382,2.351,2.351,0,0,0,1.915,1.93A9.764,9.764,0,0,0,90,28.5,2.35,2.35,0,0,0,91.97,26.5c.032-.2.13-.241.282-.315a11.957,11.957,0,0,0,1.394-.755c.385-.257.392-.465.164-.868a.614.614,0,0,0-.826.094,2.425,2.425,0,0,1-1.5.645c-.835.034-1.672.018-2.508.024-.873,0-1.748.055-2.617,0A2.8,2.8,0,0,1,83.7,22.967a12.934,12.934,0,0,1-.018-2.031h3.793q3.255,0,6.511-.006c.017,0,.034.027.005,0,0,.709.028,1.379-.012,2.046-.019.325.032.555.329.7m-6.216,3.85a1.392,1.392,0,0,1-1.326-1.146h4.17a1.451,1.451,0,0,1-1.347,1.156c-.5.016-1-.005-1.5-.01" transform="translate(-71.371 6.357)" fill="#030303"/>
        <path id="Trazado_721115" data-name="Trazado 721115" d="M100.684,96.213a9.094,9.094,0,0,0-6.861,1.518.591.591,0,0,1-.853-.017l-.743.67c.221.373.205.51-.108.874a9.257,9.257,0,0,0,.412,12.624,4.087,4.087,0,0,1,1.328,2.243h3.825c-.015-.089-.025-.179-.046-.266a3.392,3.392,0,0,0-1.108-1.638,8.4,8.4,0,0,1-1.622-2.126,9.6,9.6,0,0,1-1.042-6.626,8.689,8.689,0,0,1,4.876-6.555,19.531,19.531,0,0,1,1.94-.7" transform="translate(-81.648 -87.884)" fill="#efd133"/>
        <path id="Trazado_721116" data-name="Trazado 721116" d="M178.139,40.7c.836-.005,1.673.01,2.508-.024a2.425,2.425,0,0,0,1.5-.645.614.614,0,0,1,.826-.094l.5-.883c-.3-.148-.348-.378-.329-.7.039-.667.012-1.337.012-2.046.029.025.012,0-.005,0q-3.255,0-6.511.006c0,.533-.017,1.066,0,1.6a3.176,3.176,0,0,0,.66,1.883c.255.323.558.608.839.91" transform="translate(-160.534 -9.02)" fill="#f0f0f3"/>
        <path id="Trazado_721117" data-name="Trazado 721117" d="M23.729,246.387a4.827,4.827,0,0,0-.531.1,2.507,2.507,0,0,0-1.478,2,1.828,1.828,0,0,0,1.177,1.813c.539.263,1.074.534,1.614.794a1.9,1.9,0,0,0,1.912-3.272c-.522-.361-1.038-.735-1.583-1.057a8.181,8.181,0,0,0-1.073-.452l-.04.065m2.588,2.915a.947.947,0,0,1-1.344.88q-.876-.414-1.742-.85a.771.771,0,0,1-.35-1.168c.059-.11.121-.219.188-.323a.763.763,0,0,1,1.142-.261c.563.363,1.127.727,1.662,1.127a2.59,2.59,0,0,1,.443.595" transform="translate(-19.738 -238.775)" fill="#040403"/>
        <path id="Trazado_721118" data-name="Trazado 721118" d="M23.844,88.668a6.832,6.832,0,0,0,.985-.407c.573-.344,1.12-.73,1.669-1.112a1.9,1.9,0,0,0-1.892-3.271q-.922.432-1.829.894A1.791,1.791,0,0,0,22,87.289a2.089,2.089,0,0,0,1.347,1.248c.153.035.311.051.467.076l.032.055m2.5-2.978a2.072,2.072,0,0,1-.38.564c-.574.426-1.171.821-1.774,1.2a.746.746,0,0,1-1.046-.239,3.909,3.909,0,0,1-.225-.38.771.771,0,0,1,.349-1.169q.865-.437,1.742-.849a.938.938,0,0,1,1.335.869" transform="translate(-19.777 -61.3)" fill="#040403"/>
        <path id="Trazado_721119" data-name="Trazado 721119" d="M304.14,246.279a6.385,6.385,0,0,0-.991.394c-.583.348-1.139.742-1.7,1.131a1.9,1.9,0,0,0,1.881,3.271c.626-.291,1.247-.591,1.861-.907a1.784,1.784,0,0,0,.778-2.492,5.64,5.64,0,0,0-.329-.555,2.041,2.041,0,0,0-1.5-.842m-.081,1.1c.59-.013.775.352.969.7a.782.782,0,0,1-.373,1.211q-.85.428-1.711.835a.77.77,0,0,1-1.121-.355.785.785,0,0,1,.253-1.154q.8-.552,1.613-1.08a1.92,1.92,0,0,1,.372-.161" transform="translate(-273.251 -238.717)" fill="#040403"/>
        <path id="Trazado_721120" data-name="Trazado 721120" d="M250.555,303.325a4.661,4.661,0,0,0-.115-.563,2.516,2.516,0,0,0-1.991-1.448,1.834,1.834,0,0,0-1.816,1.173c-.27.548-.545,1.094-.807,1.646a1.9,1.9,0,0,0,3.282,1.886c.373-.541.758-1.077,1.093-1.641a6.94,6.94,0,0,0,.412-1.018l-.059-.036m-2.92,2.58a.948.948,0,0,1-.918-1.244c.292-.651.611-1.291.944-1.923a.736.736,0,0,1,1.025-.313,3.871,3.871,0,0,1,.413.237.761.761,0,0,1,.262,1.141c-.369.572-.741,1.144-1.148,1.689a2.328,2.328,0,0,1-.579.412" transform="translate(-223.235 -299.331)" fill="#040403"/>
        <path id="Trazado_721121" data-name="Trazado 721121" d="M304.14,88.534a5.015,5.015,0,0,0,.532-.1,2.476,2.476,0,0,0,1.506-1.98,1.838,1.838,0,0,0-1.148-1.833c-.547-.271-1.094-.543-1.646-.805a1.9,1.9,0,0,0-1.878,3.3c.525.357,1.041.729,1.585,1.053a7.627,7.627,0,0,0,1.011.427l.037-.06m-.077-1.047a1.358,1.358,0,0,1-.346-.131c-.572-.369-1.139-.746-1.7-1.136a.777.777,0,0,1-.216-1.135.769.769,0,0,1,1.094-.361c.585.274,1.164.561,1.742.85a.753.753,0,0,1,.492.9c-.2.559-.484,1.023-1.069,1.011" transform="translate(-273.229 -61.219)" fill="#040403"/>
        <path id="Trazado_721122" data-name="Trazado 721122" d="M82.959,303.363a6.355,6.355,0,0,0,.393.99c.348.583.742,1.139,1.131,1.7a1.9,1.9,0,0,0,3.278-1.869c-.295-.636-.6-1.269-.923-1.891a1.783,1.783,0,0,0-2.443-.774,2.113,2.113,0,0,0-1.305,1.381c-.032.143-.048.289-.071.434l-.059.031m1.1.084c-.008-.605.376-.786.737-.981a.769.769,0,0,1,1.165.36q.437.865.85,1.742a.775.775,0,0,1-.359,1.121.786.786,0,0,1-1.152-.256c-.367-.533-.729-1.069-1.081-1.612a1.877,1.877,0,0,1-.16-.374" transform="translate(-75.399 -299.325)" fill="#040403"/>
        <path id="Trazado_721123" data-name="Trazado 721123" d="M326.738,172.145a1.84,1.84,0,0,0-2.217-2.009c-.565.054-1.134.071-1.7.115a1.823,1.823,0,0,0-1.74,1.581,1.852,1.852,0,0,0,1.219,2.111,3,3,0,0,0,.668.112c.51.043,1.022.057,1.531.106a1.841,1.841,0,0,0,2.24-2.016m-1.024.009c0,.778-.322,1.062-1.1.992-.554-.05-1.11-.078-1.665-.115a.882.882,0,0,1,.007-1.763c.555-.037,1.111-.066,1.665-.115.771-.069,1.091.218,1.091,1" transform="translate(-291.805 -154.686)" fill="#040403"/>
        <path id="Trazado_721124" data-name="Trazado 721124" d="M11.232,182.316c0,.762.323,1.053,1.071.988.554-.048,1.11-.081,1.665-.116.6-.037.885-.327.883-.894,0-.546-.292-.835-.871-.872-.544-.035-1.089-.062-1.631-.112-.8-.073-1.118.206-1.117,1.006" transform="translate(-10.208 -164.841)" fill="#f5eb61"/>
        <path id="Trazado_721125" data-name="Trazado 721125" d="M181.626,333.042c-.779,0-1.062.322-.993,1.1.049.543.079,1.087.113,1.631.037.6.325.891.888.89s.844-.3.88-.9c.033-.544.064-1.089.112-1.631.069-.771-.217-1.091-1-1.091" transform="translate(-164.164 -332.019)" fill="#f5eb61"/>
        <path id="Trazado_721126" data-name="Trazado 721126" d="M139,95.89a19.531,19.531,0,0,0-1.94.7,8.689,8.689,0,0,0-4.876,6.555,9.6,9.6,0,0,0,1.042,6.626,8.4,8.4,0,0,0,1.622,2.126,3.392,3.392,0,0,1,1.108,1.638c.021.087.031.177.046.266l6.274.015h.4a4.418,4.418,0,0,1,1.436-2.367A9.294,9.294,0,0,0,139.2,95.9a1.248,1.248,0,0,0-.2-.013" transform="translate(-119.965 -87.561)" fill="#f8ee62"/>
        <path id="Trazado_721127" data-name="Trazado 721127" d="M140.034,40.437c-.281-.3-.585-.587-.839-.91a3.176,3.176,0,0,1-.66-1.883c-.021-.532,0-1.065,0-1.6h-3.793a12.931,12.931,0,0,0,.018,2.031,2.8,2.8,0,0,0,2.661,2.357c.868.059,1.744.006,2.617,0" transform="translate(-122.428 -8.753)" fill="#dce7ec"/>
        <path id="Trazado_721128" data-name="Trazado 721128" d="M178.672,13.091c.5,0,1,.026,1.5.01a1.451,1.451,0,0,0,1.347-1.156H178.19a2.883,2.883,0,0,0,.126.508,7.218,7.218,0,0,0,.356.637" transform="translate(-161.952 20.797)" fill="#534e56"/>
        <path id="Trazado_721129" data-name="Trazado 721129" d="M170.247,13.259a7.221,7.221,0,0,1-.356-.637,2.884,2.884,0,0,1-.126-.508h-.845a1.392,1.392,0,0,0,1.326,1.146" transform="translate(-153.528 20.63)" fill="#443f44"/>
        <path id="Trazado_721130" data-name="Trazado 721130" d="M36.562,259.647a2.59,2.59,0,0,0-.443-.595c-.535-.4-1.1-.765-1.662-1.127a.763.763,0,0,0-1.142.261c-.068.1-.129.214-.188.323a.771.771,0,0,0,.35,1.168q.865.437,1.742.85a.947.947,0,0,0,1.344-.88" transform="translate(-29.983 -249.119)" fill="#f5eb62"/>
        <path id="Trazado_721131" data-name="Trazado 721131" d="M36.552,96.562a.938.938,0,0,0-1.335-.869q-.877.413-1.742.849a.771.771,0,0,0-.349,1.169,3.912,3.912,0,0,0,.225.38.746.746,0,0,0,1.046.239c.6-.384,1.2-.779,1.774-1.2a2.071,2.071,0,0,0,.38-.564" transform="translate(-29.982 -72.172)" fill="#f5eb62"/>
        <path id="Trazado_721132" data-name="Trazado 721132" d="M314.269,257.542a1.921,1.921,0,0,0-.372.161q-.814.527-1.613,1.079a.785.785,0,0,0-.253,1.154.77.77,0,0,0,1.121.355q.86-.408,1.711-.835a.782.782,0,0,0,.373-1.211c-.194-.351-.378-.716-.969-.7" transform="translate(-283.461 -248.881)" fill="#f5eb62"/>
        <path id="Trazado_721133" data-name="Trazado 721133" d="M257.916,315.429a2.326,2.326,0,0,0,.579-.412c.407-.545.779-1.117,1.148-1.689a.761.761,0,0,0-.262-1.141,3.871,3.871,0,0,0-.413-.237.736.736,0,0,0-1.025.313c-.333.631-.653,1.271-.944,1.923a.948.948,0,0,0,.918,1.244" transform="translate(-233.516 -308.855)" fill="#f5eb62"/>
        <path id="Trazado_721134" data-name="Trazado 721134" d="M314.3,98.606c.585.012.871-.452,1.069-1.011a.753.753,0,0,0-.492-.9c-.578-.29-1.157-.576-1.742-.85a.769.769,0,0,0-1.094.361.777.777,0,0,0,.216,1.135c.558.39,1.126.766,1.7,1.136a1.358,1.358,0,0,0,.346.131" transform="translate(-283.462 -72.338)" fill="#f5eb62"/>
        <path id="Trazado_721135" data-name="Trazado 721135" d="M95.04,313.66a1.876,1.876,0,0,0,.16.374c.352.543.714,1.079,1.081,1.612a.786.786,0,0,0,1.152.256.775.775,0,0,0,.359-1.121q-.414-.876-.85-1.742a.769.769,0,0,0-1.165-.36c-.361.2-.745.376-.737.981" transform="translate(-86.379 -309.538)" fill="#f5eb62"/>
        <path id="Trazado_721136" data-name="Trazado 721136" d="M336.013,182.324c0-.783-.32-1.07-1.091-1-.554.049-1.11.079-1.665.115a.882.882,0,0,0-.007,1.763c.555.037,1.111.066,1.665.115.776.07,1.1-.214,1.1-.992" transform="translate(-302.103 -164.856)" fill="#f5eb61"/>
      </g>
    </g>
  </g>
</svg>
