<svg xmlns="http://www.w3.org/2000/svg" width="610" height="511.676" viewBox="0 0 610 511.676">
  <g id="Grupo_956997" data-name="Grupo 956997" transform="translate(-285 -10610.5)">
    <g id="Grupo_956995" data-name="Grupo 956995" transform="translate(285 10610.5)">
      <g id="Rectángulo_339828" data-name="Rectángulo 339828" transform="translate(214 87.5) rotate(90)" fill="#fff" stroke="#707070" stroke-width="2">
        <rect width="41" height="16" stroke="none"/>
        <rect x="1" y="1" width="39" height="14" fill="none"/>
      </g>
      <g id="Rectángulo_339829" data-name="Rectángulo 339829" transform="translate(16 87.5) rotate(90)" fill="#fff" stroke="#707070" stroke-width="2">
        <rect width="41" height="16" stroke="none"/>
        <rect x="1" y="1" width="39" height="14" fill="none"/>
      </g>
      <g id="Rectángulo_339830" data-name="Rectángulo 339830" transform="translate(87.214)" fill="#fff" stroke="#707070" stroke-width="2">
        <rect width="40.866" height="15.948" stroke="none"/>
        <rect x="1" y="1" width="38.866" height="13.948" fill="none"/>
      </g>
      <g id="Rectángulo_339831" data-name="Rectángulo 339831" transform="translate(87.214 198.35)" fill="#fff" stroke="#707070" stroke-width="2">
        <rect width="40.866" height="15.948" stroke="none"/>
        <rect x="1" y="1" width="38.866" height="13.948" fill="none"/>
      </g>
      <g id="Elipse_5471" data-name="Elipse 5471" transform="translate(13 12.5)" fill="#fff" stroke="#707070" stroke-width="2">
        <circle cx="95" cy="95" r="95" stroke="none"/>
        <circle cx="95" cy="95" r="94" fill="none"/>
      </g>
      <g id="Rectángulo_339832" data-name="Rectángulo 339832" transform="translate(98 53.5)" fill="#fff" stroke="#707070" stroke-width="2">
        <rect width="19" height="9" stroke="none"/>
        <rect x="1" y="1" width="17" height="7" fill="none"/>
      </g>
      <g id="Rectángulo_339833" data-name="Rectángulo 339833" transform="translate(98 146.5)" fill="#fff" stroke="#707070" stroke-width="2">
        <rect width="19" height="9" stroke="none"/>
        <rect x="1" y="1" width="17" height="7" fill="none"/>
      </g>
      <g id="Rectángulo_339834" data-name="Rectángulo 339834" transform="translate(158 93.5) rotate(90)" fill="#fff" stroke="#707070" stroke-width="2">
        <rect width="21" height="7" stroke="none"/>
        <rect x="1" y="1" width="19" height="5" fill="none"/>
      </g>
      <g id="Rectángulo_339835" data-name="Rectángulo 339835" transform="translate(65 93.5) rotate(90)" fill="#fff" stroke="#707070" stroke-width="2">
        <rect width="21" height="8" stroke="none"/>
        <rect x="1" y="1" width="19" height="6" fill="none"/>
      </g>
      <g id="Elipse_5472" data-name="Elipse 5472" transform="translate(63 59.5)" fill="#707070" stroke="#707070" stroke-width="2">
        <ellipse cx="44.5" cy="45" rx="44.5" ry="45" stroke="none"/>
        <ellipse cx="44.5" cy="45" rx="43.5" ry="44" fill="none"/>
      </g>
      <g id="Elipse_5473" data-name="Elipse 5473" transform="translate(68 64.5)" fill="#fff" stroke="#707070" stroke-width="2">
        <ellipse cx="39.5" cy="40" rx="39.5" ry="40" stroke="none"/>
        <ellipse cx="39.5" cy="40" rx="38.5" ry="39" fill="none"/>
      </g>
    </g>
    <g id="Grupo_956994" data-name="Grupo 956994" transform="translate(693.277 10610.5)">
      <g id="Rectángulo_339836" data-name="Rectángulo 339836" transform="translate(201.723 87.5) rotate(90)" fill="#fff" stroke="#707070" stroke-width="2">
        <rect width="41" height="16" stroke="none"/>
        <rect x="1" y="1" width="39" height="14" fill="none"/>
      </g>
      <g id="Rectángulo_339838" data-name="Rectángulo 339838" transform="translate(74.639)" fill="#fff" stroke="#707070" stroke-width="2">
        <rect width="40.866" height="15.948" stroke="none"/>
        <rect x="1" y="1" width="38.866" height="13.948" fill="none"/>
      </g>
      <g id="Elipse_5474" data-name="Elipse 5474" transform="translate(-0.277 12.5)" fill="#fff" stroke="#707070" stroke-width="2">
        <circle cx="95" cy="95" r="95" stroke="none"/>
        <circle cx="95" cy="95" r="94" fill="none"/>
      </g>
      <g id="Rectángulo_339840" data-name="Rectángulo 339840" transform="translate(84.723 53.5)" fill="#fff" stroke="#707070" stroke-width="2">
        <rect width="20" height="9" stroke="none"/>
        <rect x="1" y="1" width="18" height="7" fill="none"/>
      </g>
      <g id="Rectángulo_339842" data-name="Rectángulo 339842" transform="translate(145.723 93.5) rotate(90)" fill="#fff" stroke="#707070" stroke-width="2">
        <rect width="21" height="8" stroke="none"/>
        <rect x="1" y="1" width="19" height="6" fill="none"/>
      </g>
      <g id="Elipse_5475" data-name="Elipse 5475" transform="translate(50.723 59.5)" fill="#707070" stroke="#707070" stroke-width="2">
        <ellipse cx="44.5" cy="45" rx="44.5" ry="45" stroke="none"/>
        <ellipse cx="44.5" cy="45" rx="43.5" ry="44" fill="none"/>
      </g>
      <g id="Elipse_5476" data-name="Elipse 5476" transform="translate(55.723 64.5)" fill="#fff" stroke="#707070" stroke-width="2">
        <circle cx="40" cy="40" r="40" stroke="none"/>
        <circle cx="40" cy="40" r="39" fill="none"/>
      </g>
    </g>
    <g id="Grupo_956993" data-name="Grupo 956993" transform="translate(690.67 10907.603)">
      <g id="Elipse_5477" data-name="Elipse 5477" fill="#fff" stroke="#707070" stroke-width="2">
        <circle cx="94.69" cy="94.69" r="94.69" stroke="none"/>
        <circle cx="94.69" cy="94.69" r="93.69" fill="none"/>
      </g>
      <g id="Rectángulo_339845" data-name="Rectángulo 339845" transform="translate(84.722 41.863)" fill="#fff" stroke="#707070" stroke-width="2">
        <rect width="19.935" height="7.974" stroke="none"/>
        <rect x="1" y="1" width="17.935" height="5.974" fill="none"/>
      </g>
      <g id="Rectángulo_339846" data-name="Rectángulo 339846" transform="translate(145.523 81.732) rotate(90)" fill="#fff" stroke="#707070" stroke-width="2">
        <rect width="19.935" height="7.974" stroke="none"/>
        <rect x="1" y="1" width="17.935" height="5.974" fill="none"/>
      </g>
      <g id="Elipse_5478" data-name="Elipse 5478" transform="translate(49.837 46.846)" fill="#707070" stroke="#707070" stroke-width="2">
        <circle cx="44.853" cy="44.853" r="44.853" stroke="none"/>
        <circle cx="44.853" cy="44.853" r="43.853" fill="none"/>
      </g>
      <g id="Elipse_5479" data-name="Elipse 5479" transform="translate(54.82 51.83)" fill="#fff" stroke="#707070" stroke-width="2">
        <circle cx="39.869" cy="39.869" r="39.869" stroke="none"/>
        <circle cx="39.869" cy="39.869" r="38.869" fill="none"/>
      </g>
    </g>
    <g id="Grupo_956996" data-name="Grupo 956996" transform="translate(343.271 10894.569)">
      <path id="Trazado_721332" data-name="Trazado 721332" d="M-6831.412-1344.077h39.775v42.867l42.749,44.662h43.607v39.583h-43.607l-25.487,24.072-83.855-88.573,26.818-19.744Z" transform="translate(6858.23 1344.077)" fill="none" stroke="#707070" stroke-width="2"/>
      <g id="Rectángulo_339847" data-name="Rectángulo 339847" transform="translate(36.419 54.897)" fill="#fff" stroke="#707070" stroke-width="2">
        <rect width="19.935" height="7.974" stroke="none"/>
        <rect x="1" y="1" width="17.935" height="5.974" fill="none"/>
      </g>
      <g id="Rectángulo_339848" data-name="Rectángulo 339848" transform="translate(97.219 94.766) rotate(90)" fill="#fff" stroke="#707070" stroke-width="2">
        <rect width="19.935" height="7.974" stroke="none"/>
        <rect x="1" y="1" width="17.935" height="5.974" fill="none"/>
      </g>
      <g id="Elipse_5481" data-name="Elipse 5481" transform="translate(1.533 59.881)" fill="#707070" stroke="#707070" stroke-width="2">
        <circle cx="44.853" cy="44.853" r="44.853" stroke="none"/>
        <circle cx="44.853" cy="44.853" r="43.853" fill="none"/>
      </g>
      <g id="Elipse_5482" data-name="Elipse 5482" transform="translate(6.517 64.864)" fill="#fff" stroke="#707070" stroke-width="2">
        <circle cx="39.869" cy="39.869" r="39.869" stroke="none"/>
        <circle cx="39.869" cy="39.869" r="38.869" fill="none"/>
      </g>
    </g>
    <line id="Línea_454" data-name="Línea 454" y1="84" x2="62" transform="translate(490 10626)" fill="none" stroke="#707070" stroke-width="2"/>
    <line id="Línea_456" data-name="Línea 456" x1="46.846" y2="130.572" transform="translate(788.848 10718.146)" fill="none" stroke="#707070" stroke-width="2"/>
    <line id="Línea_457" data-name="Línea 457" y1="80" transform="translate(785 10873)" fill="none" stroke="#707070" stroke-width="2"/>
    <line id="Línea_458" data-name="Línea 458" x2="28.905" y2="83.725" transform="translate(436.005 10764.993)" fill="none" stroke="#707070" stroke-width="2"/>
    <line id="Línea_459" data-name="Línea 459" y1="102.663" x2="32.892" transform="translate(432.018 10873.637)" fill="none" stroke="#707070" stroke-width="2"/>
    <line id="Línea_460" data-name="Línea 460" x2="118.611" y2="28.905" transform="translate(420.057 11022.15)" fill="none" stroke="#707070" stroke-width="2"/>
    <line id="Línea_461" data-name="Línea 461" x1="121.601" y2="34.886" transform="translate(626.381 11016.17)" fill="none" stroke="#707070" stroke-width="2"/>
    <path id="Trazado_721427" data-name="Trazado 721427" d="M1.32,17V5.625H5.039a4.317,4.317,0,0,1,2.785.766,2.759,2.759,0,0,1,.934,2.266,2.31,2.31,0,0,1-.453,1.41,2.938,2.938,0,0,1-1.234.949A2.638,2.638,0,0,1,8.527,12a2.814,2.814,0,0,1,.535,1.723,3.042,3.042,0,0,1-.992,2.406,4.1,4.1,0,0,1-2.8.875Zm1.5-5.32v4.094H5.3a2.385,2.385,0,0,0,1.652-.543,1.907,1.907,0,0,0,.605-1.5q0-2.055-2.234-2.055Zm0-1.2H5.086A2.375,2.375,0,0,0,6.66,9.983a1.654,1.654,0,0,0,.59-1.339A1.626,1.626,0,0,0,6.7,7.278a2.686,2.686,0,0,0-1.664-.427H2.82ZM16.273,17a3.036,3.036,0,0,1-.2-.891,3.225,3.225,0,0,1-2.406,1.047,2.984,2.984,0,0,1-2.051-.707,2.287,2.287,0,0,1-.8-1.793,2.39,2.39,0,0,1,1-2.051,4.733,4.733,0,0,1,2.824-.73h1.406v-.664A1.623,1.623,0,0,0,15.594,10a1.821,1.821,0,0,0-1.336-.449,2.107,2.107,0,0,0-1.3.391,1.151,1.151,0,0,0-.523.945H10.984a2,2,0,0,1,.449-1.223,3.066,3.066,0,0,1,1.219-.934,4.1,4.1,0,0,1,1.691-.344,3.342,3.342,0,0,1,2.289.73,2.635,2.635,0,0,1,.859,2.012v3.891a4.757,4.757,0,0,0,.3,1.852V17Zm-2.4-1.1a2.54,2.54,0,0,0,1.289-.352,2.127,2.127,0,0,0,.883-.914V12.9H14.914q-2.656,0-2.656,1.555a1.316,1.316,0,0,0,.453,1.063A1.742,1.742,0,0,0,13.875,15.9ZM21.2,9.57a3.073,3.073,0,0,1,2.5-1.18q2.68,0,2.7,3.023V17H24.961V11.406a1.946,1.946,0,0,0-.418-1.352,1.675,1.675,0,0,0-1.277-.437,2.086,2.086,0,0,0-1.234.375,2.546,2.546,0,0,0-.828.984V17H19.758V5H21.2ZM30.141,17H28.688V8.547h1.453Zm.016-11.992h1.75L29.813,7.3l-1.164,0ZM37.742,17a3.036,3.036,0,0,1-.2-.891,3.225,3.225,0,0,1-2.406,1.047,2.984,2.984,0,0,1-2.051-.707,2.287,2.287,0,0,1-.8-1.793,2.39,2.39,0,0,1,1-2.051,4.733,4.733,0,0,1,2.824-.73h1.406v-.664A1.623,1.623,0,0,0,37.063,10a1.821,1.821,0,0,0-1.336-.449,2.107,2.107,0,0,0-1.3.391,1.151,1.151,0,0,0-.523.945H32.453A2,2,0,0,1,32.9,9.668a3.066,3.066,0,0,1,1.219-.934,4.1,4.1,0,0,1,1.691-.344,3.342,3.342,0,0,1,2.289.73,2.635,2.635,0,0,1,.859,2.012v3.891a4.757,4.757,0,0,0,.3,1.852V17Zm-2.4-1.1a2.54,2.54,0,0,0,1.289-.352,2.127,2.127,0,0,0,.883-.914V12.9H36.383q-2.656,0-2.656,1.555a1.316,1.316,0,0,0,.453,1.063A1.742,1.742,0,0,0,35.344,15.9Z" transform="translate(557 10611)" fill="#12263f"/>
    <path id="Trazado_721428" data-name="Trazado 721428" d="M9.688,13.391a4.185,4.185,0,0,1-1.332,2.785,4.365,4.365,0,0,1-2.98.98,4.008,4.008,0,0,1-3.23-1.445A5.815,5.815,0,0,1,.93,11.844V10.75A6.481,6.481,0,0,1,1.5,7.961,4.231,4.231,0,0,1,3.1,6.113a4.47,4.47,0,0,1,2.406-.645A4.11,4.11,0,0,1,8.414,6.48a4.235,4.235,0,0,1,1.273,2.8H8.18a3.268,3.268,0,0,0-.848-1.975A2.565,2.565,0,0,0,5.508,6.7,2.684,2.684,0,0,0,3.254,7.759a4.882,4.882,0,0,0-.816,3.026v1.1a5.018,5.018,0,0,0,.773,2.948A2.5,2.5,0,0,0,5.375,15.93a2.887,2.887,0,0,0,1.918-.566,3.143,3.143,0,0,0,.887-1.973Zm3.266-3.82a3.073,3.073,0,0,1,2.5-1.18q2.68,0,2.7,3.023V17H16.711V11.406a1.946,1.946,0,0,0-.418-1.352,1.675,1.675,0,0,0-1.277-.437,2.086,2.086,0,0,0-1.234.375,2.546,2.546,0,0,0-.828.984V17H11.508V5h1.445ZM21.891,17H20.445V8.547h1.445ZM20.328,6.3a.863.863,0,0,1,.215-.594.807.807,0,0,1,.637-.242.819.819,0,0,1,.641.242.854.854,0,0,1,.219.594.826.826,0,0,1-.219.586.834.834,0,0,1-.641.234.821.821,0,0,1-.637-.234A.834.834,0,0,1,20.328,6.3Zm5.234,2.242.039.938a3.122,3.122,0,0,1,2.508-1.094A2.417,2.417,0,0,1,30.523,9.75a3.2,3.2,0,0,1,1.1-.984,3.242,3.242,0,0,1,1.6-.375q2.781,0,2.828,2.945V17H34.6V11.422a1.941,1.941,0,0,0-.414-1.355A1.823,1.823,0,0,0,32.8,9.617a1.917,1.917,0,0,0-1.336.48,1.949,1.949,0,0,0-.617,1.293V17H29.391V11.461a1.613,1.613,0,0,0-1.8-1.844,1.934,1.934,0,0,0-1.945,1.211V17H24.2V8.547Zm16.172,8.609a3.693,3.693,0,0,1-2.8-1.129,4.19,4.19,0,0,1-1.078-3.02v-.266a5.073,5.073,0,0,1,.48-2.246,3.748,3.748,0,0,1,1.344-1.547,3.378,3.378,0,0,1,1.871-.559,3.166,3.166,0,0,1,2.563,1.086,4.7,4.7,0,0,1,.914,3.109v.6H39.3a3,3,0,0,0,.73,2.02,2.3,2.3,0,0,0,1.777.77,2.517,2.517,0,0,0,1.3-.312,3.259,3.259,0,0,0,.93-.828l.883.688A3.55,3.55,0,0,1,41.734,17.156Zm-.18-7.578a1.928,1.928,0,0,0-1.469.637A3.1,3.1,0,0,0,39.352,12h4.234v-.109a2.753,2.753,0,0,0-.594-1.707A1.815,1.815,0,0,0,41.555,9.578ZM48.07,8.547l.047,1.063a3.08,3.08,0,0,1,2.531-1.219q2.68,0,2.7,3.023V17H51.906V11.406a1.946,1.946,0,0,0-.418-1.352,1.675,1.675,0,0,0-1.277-.437,2.086,2.086,0,0,0-1.234.375,2.546,2.546,0,0,0-.828.984V17H46.7V8.547Zm10.969,8.609a3.693,3.693,0,0,1-2.8-1.129,4.19,4.19,0,0,1-1.078-3.02v-.266a5.073,5.073,0,0,1,.48-2.246,3.748,3.748,0,0,1,1.344-1.547,3.378,3.378,0,0,1,1.871-.559,3.166,3.166,0,0,1,2.563,1.086,4.7,4.7,0,0,1,.914,3.109v.6H56.609a3,3,0,0,0,.73,2.02,2.3,2.3,0,0,0,1.777.77,2.517,2.517,0,0,0,1.3-.312,3.259,3.259,0,0,0,.93-.828l.883.688A3.55,3.55,0,0,1,59.039,17.156Zm-.18-7.578a1.928,1.928,0,0,0-1.469.637A3.1,3.1,0,0,0,56.656,12h4.234v-.109a2.753,2.753,0,0,0-.594-1.707A1.815,1.815,0,0,0,58.859,9.578ZM69.227,17a3.036,3.036,0,0,1-.2-.891,3.225,3.225,0,0,1-2.406,1.047,2.984,2.984,0,0,1-2.051-.707,2.288,2.288,0,0,1-.8-1.793,2.39,2.39,0,0,1,1-2.051,4.733,4.733,0,0,1,2.824-.73H69v-.664A1.623,1.623,0,0,0,68.547,10a1.821,1.821,0,0,0-1.336-.449,2.108,2.108,0,0,0-1.3.391,1.151,1.151,0,0,0-.523.945H63.938a2,2,0,0,1,.449-1.223,3.066,3.066,0,0,1,1.219-.934A4.1,4.1,0,0,1,67.3,8.391a3.342,3.342,0,0,1,2.289.73,2.635,2.635,0,0,1,.859,2.012v3.891a4.757,4.757,0,0,0,.3,1.852V17Zm-2.4-1.1a2.54,2.54,0,0,0,1.289-.352A2.127,2.127,0,0,0,69,14.633V12.9H67.867q-2.656,0-2.656,1.555a1.316,1.316,0,0,0,.453,1.063A1.742,1.742,0,0,0,66.828,15.9Z" transform="translate(546 11041)" fill="#12263f"/>
    <path id="Trazado_721430" data-name="Trazado 721430" d="M2.82,12.547V17H1.32V5.625h4.2a4.215,4.215,0,0,1,2.926.953A3.231,3.231,0,0,1,9.5,9.1a3.189,3.189,0,0,1-1.035,2.551,4.4,4.4,0,0,1-2.965.895Zm0-1.227h2.7a2.7,2.7,0,0,0,1.844-.567A2.075,2.075,0,0,0,8,9.113a2.143,2.143,0,0,0-.641-1.628A2.525,2.525,0,0,0,5.6,6.852H2.82Zm13.586,4.844a3.07,3.07,0,0,1-2.477.992,2.628,2.628,0,0,1-2.059-.785,3.4,3.4,0,0,1-.715-2.324v-5.5H12.6v5.461q0,1.922,1.563,1.922a2.163,2.163,0,0,0,2.2-1.234V8.547h1.445V17H16.438Zm7.109.992a3.693,3.693,0,0,1-2.8-1.129,4.19,4.19,0,0,1-1.078-3.02v-.266a5.073,5.073,0,0,1,.48-2.246,3.748,3.748,0,0,1,1.344-1.547,3.378,3.378,0,0,1,1.871-.559A3.166,3.166,0,0,1,25.9,9.477a4.7,4.7,0,0,1,.914,3.109v.6H21.086a3,3,0,0,0,.73,2.02,2.3,2.3,0,0,0,1.777.77,2.517,2.517,0,0,0,1.3-.312,3.259,3.259,0,0,0,.93-.828l.883.688A3.55,3.55,0,0,1,23.516,17.156Zm-.18-7.578a1.928,1.928,0,0,0-1.469.637A3.1,3.1,0,0,0,21.133,12h4.234v-.109a2.753,2.753,0,0,0-.594-1.707A1.815,1.815,0,0,0,23.336,9.578Zm9.234.266a4.331,4.331,0,0,0-.711-.055A1.9,1.9,0,0,0,29.93,11v6H28.484V8.547h1.406l.023.977A2.251,2.251,0,0,1,31.93,8.391a1.477,1.477,0,0,1,.641.109ZM36.25,6.5V8.547h1.578V9.664H36.25v5.249a1.173,1.173,0,0,0,.211.763.888.888,0,0,0,.719.254,3.5,3.5,0,0,0,.688-.094V17a4.215,4.215,0,0,1-1.109.155A1.8,1.8,0,0,1,35.3,16.57a2.517,2.517,0,0,1-.492-1.664V9.664H33.266V8.547H34.8V6.5Zm2.727,6.2a4.993,4.993,0,0,1,.488-2.234A3.643,3.643,0,0,1,40.824,8.93a3.7,3.7,0,0,1,1.988-.539,3.565,3.565,0,0,1,2.793,1.2,4.6,4.6,0,0,1,1.066,3.18v.1a5.036,5.036,0,0,1-.473,2.215,3.589,3.589,0,0,1-1.352,1.527,3.743,3.743,0,0,1-2.02.547,3.556,3.556,0,0,1-2.785-1.2A4.575,4.575,0,0,1,38.977,12.8Zm1.453.172a3.616,3.616,0,0,0,.652,2.258,2.211,2.211,0,0,0,3.5-.012,3.955,3.955,0,0,0,.648-2.418,3.61,3.61,0,0,0-.66-2.254,2.1,2.1,0,0,0-1.754-.863,2.075,2.075,0,0,0-1.727.852A3.925,3.925,0,0,0,40.43,12.867Zm12.977,1.891a1.064,1.064,0,0,0-.441-.91,4.249,4.249,0,0,0-1.539-.559,7.277,7.277,0,0,1-1.742-.562,2.479,2.479,0,0,1-.953-.781,1.869,1.869,0,0,1-.309-1.078A2.193,2.193,0,0,1,49.3,9.109a3.432,3.432,0,0,1,2.246-.719,3.532,3.532,0,0,1,2.332.742,2.357,2.357,0,0,1,.895,1.9H53.32a1.3,1.3,0,0,0-.5-1.023,1.888,1.888,0,0,0-1.27-.43,1.976,1.976,0,0,0-1.234.344,1.082,1.082,0,0,0-.445.9.877.877,0,0,0,.414.789,5.1,5.1,0,0,0,1.5.508,7.8,7.8,0,0,1,1.754.578,2.558,2.558,0,0,1,1,.809,1.988,1.988,0,0,1,.324,1.152,2.163,2.163,0,0,1-.906,1.816,3.8,3.8,0,0,1-2.352.684,4.257,4.257,0,0,1-1.8-.359,2.922,2.922,0,0,1-1.223-1,2.42,2.42,0,0,1-.441-1.395h1.445a1.5,1.5,0,0,0,.582,1.152,2.258,2.258,0,0,0,1.434.426,2.331,2.331,0,0,0,1.316-.332A1.02,1.02,0,0,0,53.406,14.758ZM60.344,12.7a4.952,4.952,0,0,1,.922-3.129,3.137,3.137,0,0,1,4.766-.168V5h1.445V17H66.148l-.07-.906a2.943,2.943,0,0,1-2.414,1.063,2.887,2.887,0,0,1-2.395-1.2,5.008,5.008,0,0,1-.926-3.141Zm1.445.164a3.749,3.749,0,0,0,.594,2.25,1.92,1.92,0,0,0,1.641.813A2.108,2.108,0,0,0,66.031,14.7V10.813a2.125,2.125,0,0,0-1.992-1.2,1.929,1.929,0,0,0-1.656.82A4.128,4.128,0,0,0,61.789,12.867Zm11.438,4.289a3.693,3.693,0,0,1-2.8-1.129,4.19,4.19,0,0,1-1.078-3.02v-.266a5.073,5.073,0,0,1,.48-2.246,3.748,3.748,0,0,1,1.344-1.547,3.378,3.378,0,0,1,1.871-.559,3.166,3.166,0,0,1,2.563,1.086,4.7,4.7,0,0,1,.914,3.109v.6H70.8a3,3,0,0,0,.73,2.02,2.3,2.3,0,0,0,1.777.77,2.517,2.517,0,0,0,1.3-.312,3.259,3.259,0,0,0,.93-.828l.883.688A3.55,3.55,0,0,1,73.227,17.156Zm-.18-7.578a1.928,1.928,0,0,0-1.469.637A3.1,3.1,0,0,0,70.844,12h4.234v-.109a2.753,2.753,0,0,0-.594-1.707A1.815,1.815,0,0,0,73.047,9.578ZM83.516,8.547l.039.938a3.122,3.122,0,0,1,2.508-1.094A2.417,2.417,0,0,1,88.477,9.75a3.2,3.2,0,0,1,1.1-.984,3.242,3.242,0,0,1,1.6-.375q2.781,0,2.828,2.945V17H92.555V11.422a1.941,1.941,0,0,0-.414-1.355,1.823,1.823,0,0,0-1.391-.449,1.916,1.916,0,0,0-1.336.48,1.949,1.949,0,0,0-.617,1.293V17H87.344V11.461a1.613,1.613,0,0,0-1.8-1.844,1.934,1.934,0,0,0-1.945,1.211V17H82.148V8.547ZM101.4,16.164a3.07,3.07,0,0,1-2.477.992,2.628,2.628,0,0,1-2.059-.785,3.4,3.4,0,0,1-.715-2.324v-5.5h1.445v5.461q0,1.922,1.563,1.922a2.163,2.163,0,0,0,2.2-1.234V8.547H102.8V17H101.43Zm7.109.992a3.693,3.693,0,0,1-2.8-1.129,4.19,4.19,0,0,1-1.078-3.02v-.266a5.073,5.073,0,0,1,.48-2.246,3.748,3.748,0,0,1,1.344-1.547,3.378,3.378,0,0,1,1.871-.559,3.166,3.166,0,0,1,2.563,1.086,4.7,4.7,0,0,1,.914,3.109v.6h-5.727a3,3,0,0,0,.73,2.02,2.3,2.3,0,0,0,1.777.77,2.517,2.517,0,0,0,1.3-.312,3.259,3.259,0,0,0,.93-.828l.883.688A3.55,3.55,0,0,1,108.508,17.156Zm-.18-7.578a1.928,1.928,0,0,0-1.469.637A3.1,3.1,0,0,0,106.125,12h4.234v-.109a2.753,2.753,0,0,0-.594-1.707A1.815,1.815,0,0,0,108.328,9.578Zm10.07,5.18a1.064,1.064,0,0,0-.441-.91,4.249,4.249,0,0,0-1.539-.559,7.277,7.277,0,0,1-1.742-.562,2.479,2.479,0,0,1-.953-.781,1.869,1.869,0,0,1-.309-1.078,2.193,2.193,0,0,1,.879-1.758,3.432,3.432,0,0,1,2.246-.719,3.532,3.532,0,0,1,2.332.742,2.357,2.357,0,0,1,.895,1.9h-1.453a1.3,1.3,0,0,0-.5-1.023,1.888,1.888,0,0,0-1.27-.43,1.976,1.976,0,0,0-1.234.344,1.082,1.082,0,0,0-.445.9.877.877,0,0,0,.414.789,5.1,5.1,0,0,0,1.5.508,7.8,7.8,0,0,1,1.754.578,2.558,2.558,0,0,1,1,.809,1.988,1.988,0,0,1,.324,1.152,2.163,2.163,0,0,1-.906,1.816,3.8,3.8,0,0,1-2.352.684,4.257,4.257,0,0,1-1.8-.359,2.922,2.922,0,0,1-1.223-1,2.42,2.42,0,0,1-.441-1.395h1.445a1.5,1.5,0,0,0,.582,1.152,2.258,2.258,0,0,0,1.434.426,2.331,2.331,0,0,0,1.316-.332A1.02,1.02,0,0,0,118.4,14.758ZM123.688,6.5V8.547h1.578V9.664h-1.578v5.249a1.173,1.173,0,0,0,.211.763.888.888,0,0,0,.719.254,3.5,3.5,0,0,0,.688-.094V17a4.215,4.215,0,0,1-1.109.155,1.8,1.8,0,0,1-1.461-.586,2.517,2.517,0,0,1-.492-1.664V9.664H120.7V8.547h1.539V6.5Zm7.352,3.344a4.331,4.331,0,0,0-.711-.055A1.9,1.9,0,0,0,128.4,11v6h-1.445V8.547h1.406l.023.977A2.251,2.251,0,0,1,130.4,8.391a1.477,1.477,0,0,1,.641.109Zm4.836,7.313a3.693,3.693,0,0,1-2.8-1.129A4.19,4.19,0,0,1,132,13.008v-.266a5.073,5.073,0,0,1,.48-2.246,3.748,3.748,0,0,1,1.344-1.547,3.378,3.378,0,0,1,1.871-.559,3.166,3.166,0,0,1,2.563,1.086,4.7,4.7,0,0,1,.914,3.109v.6h-5.727a3,3,0,0,0,.73,2.02,2.3,2.3,0,0,0,1.777.77,2.517,2.517,0,0,0,1.3-.312,3.258,3.258,0,0,0,.93-.828l.883.688A3.55,3.55,0,0,1,135.875,17.156Zm-.18-7.578a1.928,1.928,0,0,0-1.469.637A3.1,3.1,0,0,0,133.492,12h4.234v-.109a2.753,2.753,0,0,0-.594-1.707A1.815,1.815,0,0,0,135.7,9.578Zm4.766,3.117a4.993,4.993,0,0,1,.488-2.234,3.642,3.642,0,0,1,1.359-1.531,3.7,3.7,0,0,1,1.988-.539,3.565,3.565,0,0,1,2.793,1.2,4.6,4.6,0,0,1,1.066,3.18v.1a5.036,5.036,0,0,1-.473,2.215,3.589,3.589,0,0,1-1.352,1.527,3.743,3.743,0,0,1-2.02.547,3.556,3.556,0,0,1-2.785-1.2,4.575,4.575,0,0,1-1.066-3.164Zm1.453.172a3.616,3.616,0,0,0,.652,2.258,2.211,2.211,0,0,0,3.5-.012,3.954,3.954,0,0,0,.648-2.418,3.61,3.61,0,0,0-.66-2.254,2.1,2.1,0,0,0-1.754-.863,2.075,2.075,0,0,0-1.727.852A3.925,3.925,0,0,0,141.914,12.867Z" transform="translate(704 10851)" fill="#12263f"/>
    <path id="Trazado_721429" data-name="Trazado 721429" d="M2.82,12.547V17H1.32V5.625h4.2a4.215,4.215,0,0,1,2.926.953A3.231,3.231,0,0,1,9.5,9.1a3.189,3.189,0,0,1-1.035,2.551,4.4,4.4,0,0,1-2.965.895Zm0-1.227h2.7a2.7,2.7,0,0,0,1.844-.567A2.075,2.075,0,0,0,8,9.113a2.143,2.143,0,0,0-.641-1.628A2.525,2.525,0,0,0,5.6,6.852H2.82ZM12.758,17H11.313V5h1.445Zm7.531,0a3.036,3.036,0,0,1-.2-.891,3.225,3.225,0,0,1-2.406,1.047,2.984,2.984,0,0,1-2.051-.707,2.287,2.287,0,0,1-.8-1.793,2.39,2.39,0,0,1,1-2.051,4.733,4.733,0,0,1,2.824-.73h1.406v-.664A1.623,1.623,0,0,0,19.609,10a1.821,1.821,0,0,0-1.336-.449,2.107,2.107,0,0,0-1.3.391,1.151,1.151,0,0,0-.523.945H15a2,2,0,0,1,.449-1.223,3.066,3.066,0,0,1,1.219-.934,4.1,4.1,0,0,1,1.691-.344,3.342,3.342,0,0,1,2.289.73,2.635,2.635,0,0,1,.859,2.012v3.891a4.757,4.757,0,0,0,.3,1.852V17Zm-2.4-1.1a2.54,2.54,0,0,0,1.289-.352,2.127,2.127,0,0,0,.883-.914V12.9H18.93q-2.656,0-2.656,1.555a1.316,1.316,0,0,0,.453,1.063A1.742,1.742,0,0,0,17.891,15.9Zm7.844-9.4V8.547h1.578V9.664H25.734v5.249a1.173,1.173,0,0,0,.211.763.888.888,0,0,0,.719.254,3.5,3.5,0,0,0,.688-.094V17a4.215,4.215,0,0,1-1.109.155,1.8,1.8,0,0,1-1.461-.586,2.517,2.517,0,0,1-.492-1.664V9.664H22.75V8.547h1.539V6.5ZM34.219,17a3.036,3.036,0,0,1-.2-.891,3.225,3.225,0,0,1-2.406,1.047,2.984,2.984,0,0,1-2.051-.707,2.287,2.287,0,0,1-.8-1.793,2.39,2.39,0,0,1,1-2.051,4.733,4.733,0,0,1,2.824-.73h1.406v-.664A1.623,1.623,0,0,0,33.539,10,1.821,1.821,0,0,0,32.2,9.555a2.107,2.107,0,0,0-1.3.391,1.151,1.151,0,0,0-.523.945H28.93a2,2,0,0,1,.449-1.223A3.066,3.066,0,0,1,30.6,8.734a4.1,4.1,0,0,1,1.691-.344,3.342,3.342,0,0,1,2.289.73,2.635,2.635,0,0,1,.859,2.012v3.891a4.757,4.757,0,0,0,.3,1.852V17Zm-2.4-1.1a2.54,2.54,0,0,0,1.289-.352,2.127,2.127,0,0,0,.883-.914V12.9H32.859q-2.656,0-2.656,1.555a1.316,1.316,0,0,0,.453,1.063A1.742,1.742,0,0,0,31.82,15.9ZM38.414,17V9.664H37.078V8.547h1.336V7.68a2.878,2.878,0,0,1,.727-2.1A2.745,2.745,0,0,1,41.2,4.836a3.816,3.816,0,0,1,.992.132l-.078,1.165a4.151,4.151,0,0,0-.781-.07,1.41,1.41,0,0,0-1.086.411,1.669,1.669,0,0,0-.383,1.18v.893h1.8V9.664h-1.8V17Zm4.461-4.3a4.993,4.993,0,0,1,.488-2.234A3.643,3.643,0,0,1,44.723,8.93a3.7,3.7,0,0,1,1.988-.539,3.565,3.565,0,0,1,2.793,1.2,4.6,4.6,0,0,1,1.066,3.18v.1a5.036,5.036,0,0,1-.473,2.215,3.589,3.589,0,0,1-1.352,1.527,3.743,3.743,0,0,1-2.02.547,3.556,3.556,0,0,1-2.785-1.2A4.575,4.575,0,0,1,42.875,12.8Zm1.453.172a3.616,3.616,0,0,0,.652,2.258,2.211,2.211,0,0,0,3.5-.012,3.955,3.955,0,0,0,.648-2.418,3.61,3.61,0,0,0-.66-2.254,2.1,2.1,0,0,0-1.754-.863,2.075,2.075,0,0,0-1.727.852A3.925,3.925,0,0,0,44.328,12.867ZM56.469,9.844a4.331,4.331,0,0,0-.711-.055A1.9,1.9,0,0,0,53.828,11v6H52.383V8.547h1.406l.023.977a2.251,2.251,0,0,1,2.016-1.133,1.477,1.477,0,0,1,.641.109Zm2.688-1.3.039.938A3.122,3.122,0,0,1,61.7,8.391,2.417,2.417,0,0,1,64.117,9.75a3.2,3.2,0,0,1,1.1-.984,3.242,3.242,0,0,1,1.6-.375q2.781,0,2.828,2.945V17H68.2V11.422a1.941,1.941,0,0,0-.414-1.355,1.823,1.823,0,0,0-1.391-.449,1.916,1.916,0,0,0-1.336.48,1.949,1.949,0,0,0-.617,1.293V17H62.984V11.461a1.613,1.613,0,0,0-1.8-1.844,1.934,1.934,0,0,0-1.945,1.211V17H57.789V8.547ZM77.039,17a3.036,3.036,0,0,1-.2-.891,3.225,3.225,0,0,1-2.406,1.047,2.984,2.984,0,0,1-2.051-.707,2.288,2.288,0,0,1-.8-1.793,2.39,2.39,0,0,1,1-2.051,4.733,4.733,0,0,1,2.824-.73h1.406v-.664A1.623,1.623,0,0,0,76.359,10a1.821,1.821,0,0,0-1.336-.449,2.108,2.108,0,0,0-1.3.391,1.151,1.151,0,0,0-.523.945H71.75A2,2,0,0,1,72.2,9.668a3.066,3.066,0,0,1,1.219-.934,4.1,4.1,0,0,1,1.691-.344,3.342,3.342,0,0,1,2.289.73,2.635,2.635,0,0,1,.859,2.012v3.891a4.757,4.757,0,0,0,.3,1.852V17Zm-2.4-1.1a2.54,2.54,0,0,0,1.289-.352,2.127,2.127,0,0,0,.883-.914V12.9H75.68q-2.656,0-2.656,1.555a1.316,1.316,0,0,0,.453,1.063A1.742,1.742,0,0,0,74.641,15.9Z" transform="translate(436 10850)" fill="#12263f"/>
    <path id="Trazado_721431" data-name="Trazado 721431" d="M19.344,15.52,21.893,6.2h3.445L21.031,19H17.656L13.385,6.2H16.8ZM29.557,19H26.48V6.2h3.076ZM38.3,15.6a1.268,1.268,0,0,0-.479-1.055,5.954,5.954,0,0,0-1.683-.782,16.147,16.147,0,0,1-1.969-.782q-2.487-1.222-2.487-3.357a3.011,3.011,0,0,1,.62-1.876A4.008,4.008,0,0,1,34.057,6.48a6.823,6.823,0,0,1,2.549-.453,5.969,5.969,0,0,1,2.474.492,3.917,3.917,0,0,1,1.7,1.4A3.661,3.661,0,0,1,41.387,10H38.311a1.547,1.547,0,0,0-.479-1.213,1.867,1.867,0,0,0-1.3-.431,2.106,2.106,0,0,0-1.305.365,1.074,1.074,0,0,0,.048,1.819,6.65,6.65,0,0,0,1.854.826,11.36,11.36,0,0,1,2.18.918,3.663,3.663,0,0,1,2.074,3.3,3.125,3.125,0,0,1-1.266,2.637,5.629,5.629,0,0,1-3.472.958,6.888,6.888,0,0,1-2.817-.558,4.247,4.247,0,0,1-1.9-1.529,3.985,3.985,0,0,1-.637-2.237h3.094a1.963,1.963,0,0,0,.532,1.516,2.513,2.513,0,0,0,1.727.488,1.985,1.985,0,0,0,1.208-.33A1.088,1.088,0,0,0,38.3,15.6ZM53.015,8.585H49.174V19H46.089V8.585H42.318V6.2h10.7Zm7.515,8.024H56.3L55.563,19h-3.3L56.961,6.2h2.9L64.59,19H61.276ZM57.04,14.228h2.751l-1.38-4.438ZM72.122,15.6a1.268,1.268,0,0,0-.479-1.055,5.954,5.954,0,0,0-1.683-.782,16.147,16.147,0,0,1-1.969-.782Q65.5,11.758,65.5,9.622a3.011,3.011,0,0,1,.62-1.876A4.008,4.008,0,0,1,67.877,6.48a6.823,6.823,0,0,1,2.549-.453A5.969,5.969,0,0,1,72.9,6.52a3.917,3.917,0,0,1,1.7,1.4A3.661,3.661,0,0,1,75.207,10H72.131a1.547,1.547,0,0,0-.479-1.213,1.867,1.867,0,0,0-1.3-.431,2.106,2.106,0,0,0-1.305.365,1.074,1.074,0,0,0,.048,1.819,6.65,6.65,0,0,0,1.854.826,11.36,11.36,0,0,1,2.18.918,3.663,3.663,0,0,1,2.074,3.3,3.125,3.125,0,0,1-1.266,2.637,5.629,5.629,0,0,1-3.472.958,6.888,6.888,0,0,1-2.817-.558,4.247,4.247,0,0,1-1.9-1.529,3.985,3.985,0,0,1-.637-2.237h3.094a1.963,1.963,0,0,0,.532,1.516,2.513,2.513,0,0,0,1.727.488,1.985,1.985,0,0,0,1.208-.33A1.088,1.088,0,0,0,72.122,15.6Zm17.086-2.03H84.356v3.059h5.73V19H81.271V6.2H90.1V8.585H84.356v2.7h4.852ZM102.031,19H98.964l-4.535-7.963V19H91.344V6.2h3.085l4.526,7.963V6.2h3.076Zm9.519-4.342V19h-3.085V6.2h5.106a5.948,5.948,0,0,1,2.6.541,4.074,4.074,0,0,1,1.749,1.538,4.2,4.2,0,0,1,.62,2.263,3.7,3.7,0,0,1-1.34,2.993,5.561,5.561,0,0,1-3.678,1.121Zm0-2.382h2.021a1.906,1.906,0,0,0,1.367-.448,1.665,1.665,0,0,0,.47-1.266,2.059,2.059,0,0,0-.483-1.433,1.712,1.712,0,0,0-1.318-.545H111.55Zm11.716,4.351h5.37V19h-8.455V6.2h3.085Zm14.106-.018h-4.228L132.406,19h-3.3L133.8,6.2h2.9L141.433,19h-3.313Zm-3.489-2.382h2.751l-1.38-4.438ZM153.052,19h-3.067l-4.535-7.963V19h-3.085V6.2h3.085l4.526,7.963V6.2h3.076Zm12-10.415h-3.841V19h-3.085V8.585h-3.771V6.2h10.7Zm7.515,8.024h-4.228L167.6,19h-3.3L169,6.2h2.9L176.624,19h-3.313Zm-3.489-2.382h2.751l-1.38-4.438Z" transform="translate(494 11103)" fill="#12263f"/>
    <line id="Línea_462" data-name="Línea 462" x2="174" transform="translate(603 10620)" fill="none" stroke="#707070" stroke-width="2"/>
  </g>
</svg>
