<svg id="Grupo_956856" data-name="Grupo 956856" xmlns="http://www.w3.org/2000/svg" width="74.534" height="74.533" viewBox="0 0 74.534 74.533">
  <g id="Grupo_956854" data-name="Grupo 956854">
    <path id="Trazado_721006" data-name="Trazado 721006" d="M70.147,27.956,60.012,38.091a15.019,15.019,0,0,1-17.83,2.529l8.247-8.247a4.965,4.965,0,0,0,2.512-1.353L63.076,20.885a5,5,0,0,0,0-7.071l-2.357-2.357a5,5,0,0,0-7.071,0L43.513,21.592a4.948,4.948,0,0,0-1.268,2.225l-8.406,8.407a15.021,15.021,0,0,1,2.6-17.7L46.577,4.386a15.018,15.018,0,0,1,21.213,0l2.357,2.357a15.016,15.016,0,0,1,0,21.213M28.756,52.631l24.07-24.07a4.918,4.918,0,0,0-6.955-6.955L21.8,45.676a4.918,4.918,0,0,0,6.955,6.955M40.62,42.182l-8.247,8.247a4.963,4.963,0,0,1-1.352,2.512L20.886,63.076a5,5,0,0,1-7.072,0l-2.357-2.357a5,5,0,0,1,0-7.071L21.593,43.513a4.943,4.943,0,0,1,2.225-1.268l8.406-8.407a15.022,15.022,0,0,0-17.7,2.6L4.386,46.577a15.018,15.018,0,0,0,0,21.213l2.357,2.357a15.019,15.019,0,0,0,21.214,0L38.092,60.012a15.019,15.019,0,0,0,2.528-17.83" fill="#f1cc4b"/>
  </g>
</svg>
