<svg xmlns="http://www.w3.org/2000/svg" width="1029.001" height="499" viewBox="0 0 1029.001 499">
  <g id="Grupo_957148" data-name="Grupo 957148" transform="translate(-285 -7043)">
    <g id="Grupo_956659" data-name="Grupo 956659" transform="translate(-30 6930)">
      <g id="Rectángulo_339587" data-name="Rectángulo 339587" transform="translate(315 113)" fill="#fff" stroke="#707070" stroke-width="1">
        <rect width="1029" height="499" stroke="none"/>
        <rect x="0.5" y="0.5" width="1028" height="498" fill="none"/>
      </g>
      <line id="Línea_291" data-name="Línea 291" x2="1027" transform="translate(316 165)" fill="none" stroke="#707070" stroke-width="1"/>
      <line id="Línea_292" data-name="Línea 292" x2="1027" transform="translate(316 209)" fill="none" stroke="#707070" stroke-width="1"/>
      <line id="Línea_293" data-name="Línea 293" x2="1027" transform="translate(316 253)" fill="none" stroke="#707070" stroke-width="1"/>
      <line id="Línea_294" data-name="Línea 294" x2="1027" transform="translate(316 297)" fill="none" stroke="#707070" stroke-width="1"/>
      <line id="Línea_295" data-name="Línea 295" x2="1027" transform="translate(316 341)" fill="none" stroke="#707070" stroke-width="1"/>
      <line id="Línea_296" data-name="Línea 296" x2="339" transform="translate(315 385)" fill="none" stroke="#707070" stroke-width="1"/>
      <line id="Línea_297" data-name="Línea 297" x2="1027" transform="translate(316 429)" fill="none" stroke="#707070" stroke-width="1"/>
      <line id="Línea_298" data-name="Línea 298" x2="1027" transform="translate(316 473)" fill="none" stroke="#707070" stroke-width="1"/>
      <line id="Línea_300" data-name="Línea 300" y2="499" transform="translate(654 113)" fill="none" stroke="#707070" stroke-width="1"/>
      <line id="Línea_301" data-name="Línea 301" y2="499" transform="translate(1009 113)" fill="none" stroke="#707070" stroke-width="1"/>
      <path id="Trazado_721440" data-name="Trazado 721440" d="M25.164,17H22.82L18.258,9.516V17H15.914V5.625h2.344l4.57,7.5v-7.5h2.336Zm11.391-5.43a6.867,6.867,0,0,1-.594,2.945,4.472,4.472,0,0,1-1.7,1.953,5.021,5.021,0,0,1-5.059.008,4.515,4.515,0,0,1-1.719-1.941,6.67,6.67,0,0,1-.617-2.9V11.07a6.831,6.831,0,0,1,.605-2.957,4.508,4.508,0,0,1,1.711-1.961,5.014,5.014,0,0,1,5.055,0,4.508,4.508,0,0,1,1.711,1.961,6.811,6.811,0,0,1,.605,2.949Zm-2.375-.516a4.787,4.787,0,0,0-.641-2.719,2.263,2.263,0,0,0-3.648-.012,4.732,4.732,0,0,0-.648,2.691v.555a4.847,4.847,0,0,0,.641,2.7,2.243,2.243,0,0,0,3.656.035,4.819,4.819,0,0,0,.641-2.7Zm7.141-5.43,2.922,8.25,2.906-8.25h3.078V17H47.875V13.891l.234-5.367L45.039,17H43.43L40.367,8.531l.234,5.359V17H38.258V5.625ZM52.273,17V5.625h3.984a5.232,5.232,0,0,1,3.141.793,2.712,2.712,0,0,1,1.07,2.324,2.57,2.57,0,0,1-.43,1.473,2.482,2.482,0,0,1-1.2.934,2.4,2.4,0,0,1,1.379.883,2.61,2.61,0,0,1,.5,1.625,3,3,0,0,1-1.047,2.484A4.713,4.713,0,0,1,56.7,17Zm2.344-4.953v3.07h2.008a1.938,1.938,0,0,0,1.293-.395,1.353,1.353,0,0,0,.465-1.09,1.428,1.428,0,0,0-1.617-1.586Zm0-1.656h1.734q1.773-.031,1.773-1.414a1.307,1.307,0,0,0-.449-1.113,2.363,2.363,0,0,0-1.418-.34H54.617ZM66.7,12.836H64.828V17H62.484V5.625h4.227a4.778,4.778,0,0,1,3.109.9,3.1,3.1,0,0,1,1.094,2.539A3.5,3.5,0,0,1,70.41,11a3.437,3.437,0,0,1-1.527,1.238l2.461,4.648V17H68.828Zm-1.867-1.9h1.891a1.936,1.936,0,0,0,1.367-.449A1.606,1.606,0,0,0,68.57,9.25a1.719,1.719,0,0,0-.457-1.266,1.9,1.9,0,0,0-1.4-.461H64.828ZM79.539,12.07h-4.5v3.047H80.32V17H72.7V5.625H80.3v1.9H75.039v2.711h4.5Zm15.469-.5a6.853,6.853,0,0,1-.516,2.77,4.754,4.754,0,0,1-1.43,1.887l1.891,1.484-1.492,1.32-2.422-1.945a5.126,5.126,0,0,1-.859.07,4.732,4.732,0,0,1-2.523-.68,4.515,4.515,0,0,1-1.719-1.941,6.67,6.67,0,0,1-.617-2.9V11.07a6.831,6.831,0,0,1,.605-2.957,4.508,4.508,0,0,1,1.711-1.961,5.014,5.014,0,0,1,5.055,0A4.508,4.508,0,0,1,94.4,8.113a6.811,6.811,0,0,1,.605,2.949Zm-2.375-.516a4.787,4.787,0,0,0-.641-2.719,2.263,2.263,0,0,0-3.648-.012,4.732,4.732,0,0,0-.648,2.691v.555a4.847,4.847,0,0,0,.641,2.7,2.243,2.243,0,0,0,3.656.035,4.819,4.819,0,0,0,.641-2.7Zm12.7-5.43v7.492a3.836,3.836,0,0,1-1.168,2.953,4.5,4.5,0,0,1-3.191,1.086A4.553,4.553,0,0,1,97.813,16.1a3.77,3.77,0,0,1-1.2-2.9V5.625h2.344v7.508a2.167,2.167,0,0,0,.535,1.629,2.054,2.054,0,0,0,1.48.512q1.977,0,2.008-2.078V5.625ZM109.75,17h-2.344V5.625h2.344Zm-.727-14.445h2.461L109.32,4.977h-1.836Zm5.961,3.07,2.922,8.25,2.906-8.25h3.078V17h-2.352V13.891l.234-5.367L118.7,17h-1.609l-3.062-8.469.234,5.359V17h-2.344V5.625ZM128.43,17h-2.344V5.625h2.344Zm11.1-3.789a4.025,4.025,0,0,1-1.355,2.891,4.76,4.76,0,0,1-3.223,1.055,4.281,4.281,0,0,1-3.441-1.473,6.038,6.038,0,0,1-1.254-4.043v-.7a6.819,6.819,0,0,1,.578-2.891,4.332,4.332,0,0,1,1.652-1.918,5.164,5.164,0,0,1,5.668.387,4.326,4.326,0,0,1,1.391,2.961H137.2a2.376,2.376,0,0,0-.613-1.6,2.271,2.271,0,0,0-1.605-.5,1.991,1.991,0,0,0-1.754.84,4.707,4.707,0,0,0-.6,2.605V11.7a5.038,5.038,0,0,0,.559,2.7,1.954,1.954,0,0,0,1.762.852,2.314,2.314,0,0,0,1.621-.5,2.241,2.241,0,0,0,.613-1.535Zm10.883-1.641a6.867,6.867,0,0,1-.594,2.945,4.471,4.471,0,0,1-1.7,1.953,5.021,5.021,0,0,1-5.059.008,4.515,4.515,0,0,1-1.719-1.941,6.67,6.67,0,0,1-.617-2.9V11.07a6.831,6.831,0,0,1,.605-2.957,4.508,4.508,0,0,1,1.711-1.961,5.014,5.014,0,0,1,5.055,0,4.508,4.508,0,0,1,1.711,1.961,6.811,6.811,0,0,1,.605,2.949Zm-2.375-.516a4.787,4.787,0,0,0-.641-2.719,2.263,2.263,0,0,0-3.648-.012,4.732,4.732,0,0,0-.648,2.691v.555a4.847,4.847,0,0,0,.641,2.7,2.243,2.243,0,0,0,3.656.035,4.819,4.819,0,0,0,.641-2.7Z" transform="translate(393 132)" fill="#12263f"/>
      <path id="Trazado_721442" data-name="Trazado 721442" d="M13.73,17H11.387L6.824,9.516V17H4.48V5.625H6.824l4.57,7.5v-7.5H13.73Zm11.391-5.43a6.867,6.867,0,0,1-.594,2.945,4.472,4.472,0,0,1-1.7,1.953,5.021,5.021,0,0,1-5.059.008,4.515,4.515,0,0,1-1.719-1.941,6.67,6.67,0,0,1-.617-2.9V11.07a6.831,6.831,0,0,1,.605-2.957A4.508,4.508,0,0,1,17.75,6.152a5.014,5.014,0,0,1,5.055,0,4.508,4.508,0,0,1,1.711,1.961,6.811,6.811,0,0,1,.605,2.949Zm-2.375-.516a4.787,4.787,0,0,0-.641-2.719,2.263,2.263,0,0,0-3.648-.012,4.732,4.732,0,0,0-.648,2.691v.555a4.847,4.847,0,0,0,.641,2.7,2.243,2.243,0,0,0,3.656.035,4.819,4.819,0,0,0,.641-2.7Zm7.141-5.43,2.922,8.25,2.906-8.25h3.078V17H36.441V13.891l.234-5.367L33.605,17H32L28.934,8.531l.234,5.359V17H26.824V5.625ZM40.84,17V5.625h3.984a5.232,5.232,0,0,1,3.141.793,2.712,2.712,0,0,1,1.07,2.324,2.57,2.57,0,0,1-.43,1.473,2.482,2.482,0,0,1-1.2.934,2.4,2.4,0,0,1,1.379.883,2.61,2.61,0,0,1,.5,1.625,3,3,0,0,1-1.047,2.484A4.713,4.713,0,0,1,45.262,17Zm2.344-4.953v3.07h2.008a1.938,1.938,0,0,0,1.293-.395,1.353,1.353,0,0,0,.465-1.09,1.428,1.428,0,0,0-1.617-1.586Zm0-1.656h1.734q1.773-.031,1.773-1.414a1.307,1.307,0,0,0-.449-1.113,2.363,2.363,0,0,0-1.418-.34H43.184Zm12.078,2.445H53.395V17H51.051V5.625h4.227a4.778,4.778,0,0,1,3.109.9A3.1,3.1,0,0,1,59.48,9.063a3.5,3.5,0,0,1-.5,1.941,3.437,3.437,0,0,1-1.527,1.238l2.461,4.648V17H57.395Zm-1.867-1.9h1.891a1.936,1.936,0,0,0,1.367-.449,1.606,1.606,0,0,0,.484-1.238,1.719,1.719,0,0,0-.457-1.266,1.9,1.9,0,0,0-1.4-.461H53.395ZM68.105,12.07h-4.5v3.047h5.281V17H61.262V5.625h7.609v1.9H63.605v2.711h4.5Zm15.07,1.141A4.025,4.025,0,0,1,81.82,16.1,4.76,4.76,0,0,1,78.6,17.156a4.28,4.28,0,0,1-3.441-1.473A6.038,6.038,0,0,1,73.9,11.641v-.7a6.819,6.819,0,0,1,.578-2.891,4.332,4.332,0,0,1,1.652-1.918,5.164,5.164,0,0,1,5.668.387,4.326,4.326,0,0,1,1.391,2.961H80.848a2.376,2.376,0,0,0-.613-1.6,2.271,2.271,0,0,0-1.605-.5,1.991,1.991,0,0,0-1.754.84,4.707,4.707,0,0,0-.6,2.605V11.7a5.038,5.038,0,0,0,.559,2.7,1.954,1.954,0,0,0,1.762.852,2.314,2.314,0,0,0,1.621-.5,2.241,2.241,0,0,0,.613-1.535ZM94.059,11.57a6.867,6.867,0,0,1-.594,2.945,4.472,4.472,0,0,1-1.7,1.953,5.021,5.021,0,0,1-5.059.008,4.515,4.515,0,0,1-1.719-1.941,6.67,6.67,0,0,1-.617-2.9V11.07a6.831,6.831,0,0,1,.605-2.957,4.508,4.508,0,0,1,1.711-1.961,5.014,5.014,0,0,1,5.055,0,4.508,4.508,0,0,1,1.711,1.961,6.811,6.811,0,0,1,.605,2.949Zm-2.375-.516a4.787,4.787,0,0,0-.641-2.719,2.263,2.263,0,0,0-3.648-.012,4.732,4.732,0,0,0-.648,2.691v.555a4.847,4.847,0,0,0,.641,2.7,2.243,2.243,0,0,0,3.656.035,4.819,4.819,0,0,0,.641-2.7Zm7.141-5.43,2.922,8.25,2.906-8.25h3.078V17h-2.352V13.891l.234-5.367L102.543,17h-1.609L97.871,8.531l.234,5.359V17H95.762V5.625Zm17.8,6.445h-4.5v3.047H117.4V17h-7.625V5.625h7.609v1.9h-5.266v2.711h4.5Zm6.367.766h-1.867V17h-2.344V5.625H123a4.778,4.778,0,0,1,3.109.9,3.1,3.1,0,0,1,1.094,2.539A3.5,3.5,0,0,1,126.7,11a3.437,3.437,0,0,1-1.527,1.238l2.461,4.648V17h-2.516Zm-1.867-1.9h1.891a1.936,1.936,0,0,0,1.367-.449,1.606,1.606,0,0,0,.484-1.238,1.719,1.719,0,0,0-.457-1.266,1.9,1.9,0,0,0-1.4-.461h-1.883Zm16.8,2.273a4.025,4.025,0,0,1-1.355,2.891,4.76,4.76,0,0,1-3.223,1.055,4.281,4.281,0,0,1-3.441-1.473,6.038,6.038,0,0,1-1.254-4.043v-.7a6.819,6.819,0,0,1,.578-2.891,4.332,4.332,0,0,1,1.652-1.918,5.164,5.164,0,0,1,5.668.387,4.326,4.326,0,0,1,1.391,2.961H135.59a2.376,2.376,0,0,0-.613-1.6,2.271,2.271,0,0,0-1.605-.5,1.991,1.991,0,0,0-1.754.84,4.707,4.707,0,0,0-.6,2.605V11.7a5.038,5.038,0,0,0,.559,2.7,1.954,1.954,0,0,0,1.762.852,2.314,2.314,0,0,0,1.621-.5,2.241,2.241,0,0,0,.613-1.535ZM141.949,17h-2.344V5.625h2.344Zm8.594-2.344h-4.109L145.652,17H143.16l4.234-11.375h2.172L153.824,17h-2.492Zm-3.477-1.9h2.844L148.48,8.5Zm10.164,2.359h4.977V17h-7.32V5.625h2.344Z" transform="translate(749 132)" fill="#12263f"/>
      <path id="Trazado_721446" data-name="Trazado 721446" d="M53.785,12.352h-4.5V17H46.941V5.625h7.406v1.9H49.285v2.938h4.5Zm11.266-.781a6.867,6.867,0,0,1-.594,2.945,4.472,4.472,0,0,1-1.7,1.953,5.021,5.021,0,0,1-5.059.008,4.515,4.515,0,0,1-1.719-1.941,6.67,6.67,0,0,1-.617-2.9V11.07a6.831,6.831,0,0,1,.605-2.957A4.508,4.508,0,0,1,57.68,6.152a5.014,5.014,0,0,1,5.055,0,4.508,4.508,0,0,1,1.711,1.961,6.811,6.811,0,0,1,.605,2.949Zm-2.375-.516a4.787,4.787,0,0,0-.641-2.719,2.263,2.263,0,0,0-3.648-.012,4.732,4.732,0,0,0-.648,2.691v.555a4.847,4.847,0,0,0,.641,2.7,2.243,2.243,0,0,0,3.656.035,4.819,4.819,0,0,0,.641-2.7ZM60.66,2.578h2.461L60.957,5H59.121Zm10.3,10.258H69.1V17H66.754V5.625H70.98a4.778,4.778,0,0,1,3.109.9,3.1,3.1,0,0,1,1.094,2.539A3.5,3.5,0,0,1,74.68,11a3.437,3.437,0,0,1-1.527,1.238l2.461,4.648V17H73.1Zm-1.867-1.9h1.891a1.936,1.936,0,0,0,1.367-.449A1.606,1.606,0,0,0,72.84,9.25a1.719,1.719,0,0,0-.457-1.266,1.9,1.9,0,0,0-1.4-.461H69.1Zm10.93-5.312,2.922,8.25,2.906-8.25h3.078V17H86.582V13.891l.234-5.367L83.746,17H82.137L79.074,8.531l.234,5.359V17H76.965V5.625Zm19.563,0v7.492a3.836,3.836,0,0,1-1.168,2.953,4.5,4.5,0,0,1-3.191,1.086A4.553,4.553,0,0,1,92.066,16.1a3.77,3.77,0,0,1-1.2-2.9V5.625h2.344v7.508a2.167,2.167,0,0,0,.535,1.629,2.054,2.054,0,0,0,1.48.512q1.977,0,2.008-2.078V5.625Zm4.266,9.492h4.977V17h-7.32V5.625h2.344Zm12.891-.461h-4.109L111.855,17h-2.492L113.6,5.625h2.172L120.027,17h-2.492Zm-3.477-1.9h2.844L114.684,8.5Z" transform="translate(1101 132)" fill="#12263f"/>
      <path id="Trazado_721441" data-name="Trazado 721441" d="M67.441,11.68a7.037,7.037,0,0,1-.562,2.918,4.261,4.261,0,0,1-1.594,1.9,4.4,4.4,0,0,1-6.4-1.887,6.752,6.752,0,0,1-.59-2.832v-.82a6.953,6.953,0,0,1,.57-2.9,4.218,4.218,0,0,1,4-2.594,4.41,4.41,0,0,1,2.41.66,4.253,4.253,0,0,1,1.605,1.914,7.071,7.071,0,0,1,.563,2.918Zm-1.492-.734a5.1,5.1,0,0,0-.812-3.105,2.68,2.68,0,0,0-2.273-1.082A2.651,2.651,0,0,0,60.625,7.84a5,5,0,0,0-.84,3v.836a5.107,5.107,0,0,0,.824,3.082,2.888,2.888,0,0,0,4.52.063,5.079,5.079,0,0,0,.82-3.035Zm6.906,5.031a2.082,2.082,0,0,0,1.352-.469,1.649,1.649,0,0,0,.641-1.172h1.367a2.621,2.621,0,0,1-.5,1.383,3.293,3.293,0,0,1-1.23,1.047,3.55,3.55,0,0,1-1.629.391A3.482,3.482,0,0,1,70.109,16a4.59,4.59,0,0,1-1.02-3.152v-.242a5.089,5.089,0,0,1,.453-2.2,3.451,3.451,0,0,1,1.3-1.492,3.7,3.7,0,0,1,2-.531,3.39,3.39,0,0,1,2.363.852,3.043,3.043,0,0,1,1,2.211H74.848a1.992,1.992,0,0,0-.621-1.348,1.932,1.932,0,0,0-1.379-.527,2.023,2.023,0,0,0-1.707.793,3.724,3.724,0,0,0-.605,2.293v.273a3.65,3.65,0,0,0,.6,2.25A2.033,2.033,0,0,0,72.855,15.977ZM79.8,6.5V8.547h1.578V9.664H79.8v5.249a1.173,1.173,0,0,0,.211.763.888.888,0,0,0,.719.254,3.5,3.5,0,0,0,.688-.094V17a4.215,4.215,0,0,1-1.109.155,1.8,1.8,0,0,1-1.461-.586,2.517,2.517,0,0,1-.492-1.664V9.664H76.816V8.547h1.539V6.5ZM88.285,17a3.036,3.036,0,0,1-.2-.891,3.225,3.225,0,0,1-2.406,1.047,2.984,2.984,0,0,1-2.051-.707,2.288,2.288,0,0,1-.8-1.793,2.39,2.39,0,0,1,1-2.051,4.733,4.733,0,0,1,2.824-.73h1.406v-.664A1.623,1.623,0,0,0,87.605,10a1.821,1.821,0,0,0-1.336-.449,2.108,2.108,0,0,0-1.3.391,1.151,1.151,0,0,0-.523.945H83a2,2,0,0,1,.449-1.223,3.066,3.066,0,0,1,1.219-.934,4.1,4.1,0,0,1,1.691-.344,3.342,3.342,0,0,1,2.289.73,2.635,2.635,0,0,1,.859,2.012v3.891a4.757,4.757,0,0,0,.3,1.852V17Zm-2.4-1.1a2.54,2.54,0,0,0,1.289-.352,2.127,2.127,0,0,0,.883-.914V12.9H86.926q-2.656,0-2.656,1.555a1.316,1.316,0,0,0,.453,1.063A1.742,1.742,0,0,0,85.887,15.9Zm7.25-7.352.047,1.063a3.08,3.08,0,0,1,2.531-1.219q2.68,0,2.7,3.023V17H96.973V11.406a1.946,1.946,0,0,0-.418-1.352,1.675,1.675,0,0,0-1.277-.437,2.086,2.086,0,0,0-1.234.375,2.546,2.546,0,0,0-.828.984V17H91.77V8.547Zm7.078,4.148a4.993,4.993,0,0,1,.488-2.234,3.643,3.643,0,0,1,1.359-1.531,3.7,3.7,0,0,1,1.988-.539,3.565,3.565,0,0,1,2.793,1.2,4.6,4.6,0,0,1,1.066,3.18v.1a5.036,5.036,0,0,1-.473,2.215,3.589,3.589,0,0,1-1.352,1.527,3.743,3.743,0,0,1-2.02.547,3.556,3.556,0,0,1-2.785-1.2,4.575,4.575,0,0,1-1.066-3.164Zm1.453.172a3.616,3.616,0,0,0,.652,2.258,2.211,2.211,0,0,0,3.5-.012,3.955,3.955,0,0,0,.648-2.418,3.61,3.61,0,0,0-.66-2.254,2.1,2.1,0,0,0-1.754-.863,2.075,2.075,0,0,0-1.727.852A3.925,3.925,0,0,0,101.668,12.867ZM48.168,61h-1.5V49.625h1.5Zm7.438-2.242a1.064,1.064,0,0,0-.441-.91,4.249,4.249,0,0,0-1.539-.559,7.277,7.277,0,0,1-1.742-.562,2.479,2.479,0,0,1-.953-.781,1.869,1.869,0,0,1-.309-1.078,2.193,2.193,0,0,1,.879-1.758,3.432,3.432,0,0,1,2.246-.719,3.532,3.532,0,0,1,2.332.742,2.357,2.357,0,0,1,.895,1.9H55.52a1.3,1.3,0,0,0-.5-1.023,1.888,1.888,0,0,0-1.27-.43,1.976,1.976,0,0,0-1.234.344,1.082,1.082,0,0,0-.445.9.877.877,0,0,0,.414.789,5.1,5.1,0,0,0,1.5.508,7.8,7.8,0,0,1,1.754.578,2.558,2.558,0,0,1,1,.809,1.988,1.988,0,0,1,.324,1.152,2.163,2.163,0,0,1-.906,1.816,3.8,3.8,0,0,1-2.352.684A4.257,4.257,0,0,1,52,60.8a2.922,2.922,0,0,1-1.223-1,2.42,2.42,0,0,1-.441-1.395h1.445a1.5,1.5,0,0,0,.582,1.152,2.258,2.258,0,0,0,1.434.426,2.331,2.331,0,0,0,1.316-.332A1.02,1.02,0,0,0,55.605,58.758ZM58.551,56.7a4.993,4.993,0,0,1,.488-2.234A3.643,3.643,0,0,1,60.4,52.93a3.7,3.7,0,0,1,1.988-.539,3.565,3.565,0,0,1,2.793,1.2,4.6,4.6,0,0,1,1.066,3.18v.1a5.036,5.036,0,0,1-.473,2.215,3.589,3.589,0,0,1-1.352,1.527,3.743,3.743,0,0,1-2.02.547,3.556,3.556,0,0,1-2.785-1.2A4.575,4.575,0,0,1,58.551,56.8ZM60,56.867a3.616,3.616,0,0,0,.652,2.258,2.211,2.211,0,0,0,3.5-.012A3.955,3.955,0,0,0,64.8,56.7a3.61,3.61,0,0,0-.66-2.254,2.1,2.1,0,0,0-1.754-.863,2.075,2.075,0,0,0-1.727.852A3.925,3.925,0,0,0,60,56.867Zm11.063-.109H67.254v-1.18h3.813ZM72.09,56.7a4.993,4.993,0,0,1,.488-2.234,3.643,3.643,0,0,1,1.359-1.531,3.7,3.7,0,0,1,1.988-.539,3.565,3.565,0,0,1,2.793,1.2,4.6,4.6,0,0,1,1.066,3.18v.1a5.036,5.036,0,0,1-.473,2.215,3.589,3.589,0,0,1-1.352,1.527,3.743,3.743,0,0,1-2.02.547,3.556,3.556,0,0,1-2.785-1.2A4.575,4.575,0,0,1,72.09,56.8Zm1.453.172a3.616,3.616,0,0,0,.652,2.258,2.211,2.211,0,0,0,3.5-.012A3.955,3.955,0,0,0,78.34,56.7a3.61,3.61,0,0,0-.66-2.254,2.1,2.1,0,0,0-1.754-.863,2.075,2.075,0,0,0-1.727.852A3.925,3.925,0,0,0,73.543,56.867Zm11.445,3.109a2.082,2.082,0,0,0,1.352-.469,1.649,1.649,0,0,0,.641-1.172h1.367a2.621,2.621,0,0,1-.5,1.383,3.293,3.293,0,0,1-1.23,1.047,3.55,3.55,0,0,1-1.629.391A3.482,3.482,0,0,1,82.242,60a4.59,4.59,0,0,1-1.02-3.152v-.242a5.089,5.089,0,0,1,.453-2.2,3.451,3.451,0,0,1,1.3-1.492,3.7,3.7,0,0,1,2-.531,3.39,3.39,0,0,1,2.363.852,3.043,3.043,0,0,1,1,2.211H86.98a1.992,1.992,0,0,0-.621-1.348,1.932,1.932,0,0,0-1.379-.527,2.023,2.023,0,0,0-1.707.793,3.724,3.724,0,0,0-.605,2.293v.273a3.65,3.65,0,0,0,.6,2.25A2.033,2.033,0,0,0,84.988,59.977ZM91.934,50.5v2.047h1.578v1.117H91.934v5.249a1.173,1.173,0,0,0,.211.763.888.888,0,0,0,.719.254,3.5,3.5,0,0,0,.688-.094V61a4.215,4.215,0,0,1-1.109.155,1.8,1.8,0,0,1-1.461-.586,2.517,2.517,0,0,1-.492-1.664V53.664H88.949V52.547h1.539V50.5ZM100.418,61a3.036,3.036,0,0,1-.2-.891,3.225,3.225,0,0,1-2.406,1.047,2.984,2.984,0,0,1-2.051-.707,2.288,2.288,0,0,1-.8-1.793,2.39,2.39,0,0,1,1-2.051,4.733,4.733,0,0,1,2.824-.73h1.406v-.664A1.623,1.623,0,0,0,99.738,54a1.821,1.821,0,0,0-1.336-.449,2.107,2.107,0,0,0-1.3.391,1.151,1.151,0,0,0-.523.945H95.129a2,2,0,0,1,.449-1.223,3.066,3.066,0,0,1,1.219-.934,4.1,4.1,0,0,1,1.691-.344,3.342,3.342,0,0,1,2.289.73,2.635,2.635,0,0,1,.859,2.012v3.891a4.757,4.757,0,0,0,.3,1.852V61Zm-2.4-1.1a2.54,2.54,0,0,0,1.289-.352,2.127,2.127,0,0,0,.883-.914V56.9H99.059q-2.656,0-2.656,1.555a1.316,1.316,0,0,0,.453,1.063A1.742,1.742,0,0,0,98.02,59.9Zm7.25-7.352.047,1.063a3.08,3.08,0,0,1,2.531-1.219q2.68,0,2.7,3.023V61h-1.445V55.406a1.946,1.946,0,0,0-.418-1.352,1.675,1.675,0,0,0-1.277-.437,2.086,2.086,0,0,0-1.234.375,2.546,2.546,0,0,0-.828.984V61H103.9V52.547Zm7.078,4.148a4.993,4.993,0,0,1,.488-2.234A3.643,3.643,0,0,1,114.2,52.93a3.7,3.7,0,0,1,1.988-.539,3.565,3.565,0,0,1,2.793,1.2,4.6,4.6,0,0,1,1.066,3.18v.1a5.036,5.036,0,0,1-.473,2.215,3.589,3.589,0,0,1-1.352,1.527,3.743,3.743,0,0,1-2.02.547,3.556,3.556,0,0,1-2.785-1.2,4.575,4.575,0,0,1-1.066-3.164Zm1.453.172a3.616,3.616,0,0,0,.652,2.258,2.211,2.211,0,0,0,3.5-.012A3.955,3.955,0,0,0,118.6,56.7a3.61,3.61,0,0,0-.66-2.254,2.1,2.1,0,0,0-1.754-.863,2.075,2.075,0,0,0-1.727.852A3.925,3.925,0,0,0,113.8,56.867ZM55.766,188.547V193h-1.5V181.625h4.2a4.215,4.215,0,0,1,2.926.953,3.231,3.231,0,0,1,1.059,2.523,3.189,3.189,0,0,1-1.035,2.551,4.4,4.4,0,0,1-2.965.895Zm0-1.227h2.7a2.7,2.7,0,0,0,1.844-.567,2.075,2.075,0,0,0,.641-1.64,2.143,2.143,0,0,0-.641-1.628,2.525,2.525,0,0,0-1.758-.634H55.766Zm12.453-1.477a4.332,4.332,0,0,0-.711-.055A1.9,1.9,0,0,0,65.578,187v6H64.133v-8.453h1.406l.023.977a2.251,2.251,0,0,1,2.016-1.133,1.476,1.476,0,0,1,.641.109Zm.789,2.852a4.993,4.993,0,0,1,.488-2.234,3.643,3.643,0,0,1,1.359-1.531,3.7,3.7,0,0,1,1.988-.539,3.565,3.565,0,0,1,2.793,1.2,4.6,4.6,0,0,1,1.066,3.18v.1a5.036,5.036,0,0,1-.473,2.215,3.589,3.589,0,0,1-1.352,1.527,3.743,3.743,0,0,1-2.02.547,3.556,3.556,0,0,1-2.785-1.2,4.575,4.575,0,0,1-1.066-3.164Zm1.453.172a3.616,3.616,0,0,0,.652,2.258,2.211,2.211,0,0,0,3.5-.012,3.955,3.955,0,0,0,.648-2.418,3.61,3.61,0,0,0-.66-2.254,2.1,2.1,0,0,0-1.754-.863,2.075,2.075,0,0,0-1.727.852A3.925,3.925,0,0,0,70.461,188.867Zm15.2,0a5.062,5.062,0,0,1-.883,3.109,2.829,2.829,0,0,1-2.391,1.18,3.1,3.1,0,0,1-2.422-.977v4.07H78.516v-11.7h1.32l.07.938a2.977,2.977,0,0,1,2.453-1.094,2.882,2.882,0,0,1,2.41,1.148,5.117,5.117,0,0,1,.887,3.2Zm-1.445-.164a3.735,3.735,0,0,0-.609-2.258,1.963,1.963,0,0,0-1.672-.828,2.125,2.125,0,0,0-1.969,1.164v4.039a2.129,2.129,0,0,0,1.984,1.156,1.954,1.954,0,0,0,1.652-.824A4.077,4.077,0,0,0,84.211,188.7Zm8.5,4.3a3.036,3.036,0,0,1-.2-.891,3.225,3.225,0,0,1-2.406,1.047,2.984,2.984,0,0,1-2.051-.707,2.288,2.288,0,0,1-.8-1.793,2.39,2.39,0,0,1,1-2.051,4.733,4.733,0,0,1,2.824-.73h1.406v-.664A1.623,1.623,0,0,0,92.031,186a1.821,1.821,0,0,0-1.336-.449,2.107,2.107,0,0,0-1.3.391,1.151,1.151,0,0,0-.523.945H87.422a2,2,0,0,1,.449-1.223,3.066,3.066,0,0,1,1.219-.934,4.1,4.1,0,0,1,1.691-.344,3.342,3.342,0,0,1,2.289.73,2.635,2.635,0,0,1,.859,2.012v3.891a4.757,4.757,0,0,0,.3,1.852V193Zm-2.4-1.1a2.54,2.54,0,0,0,1.289-.352,2.127,2.127,0,0,0,.883-.914V188.9H91.352q-2.656,0-2.656,1.555a1.316,1.316,0,0,0,.453,1.063A1.742,1.742,0,0,0,90.313,191.9Zm7.25-7.352.047,1.063a3.08,3.08,0,0,1,2.531-1.219q2.68,0,2.7,3.023V193H101.4v-5.594a1.946,1.946,0,0,0-.418-1.352,1.675,1.675,0,0,0-1.277-.437,2.086,2.086,0,0,0-1.234.375,2.546,2.546,0,0,0-.828.984V193H96.2v-8.453Zm7.078,4.148a4.993,4.993,0,0,1,.488-2.234,3.643,3.643,0,0,1,1.359-1.531,3.7,3.7,0,0,1,1.988-.539,3.565,3.565,0,0,1,2.793,1.2,4.6,4.6,0,0,1,1.066,3.18v.1a5.036,5.036,0,0,1-.473,2.215,3.589,3.589,0,0,1-1.352,1.527,3.743,3.743,0,0,1-2.02.547,3.556,3.556,0,0,1-2.785-1.2,4.575,4.575,0,0,1-1.066-3.164Zm1.453.172a3.616,3.616,0,0,0,.652,2.258,2.211,2.211,0,0,0,3.5-.012,3.955,3.955,0,0,0,.648-2.418,3.61,3.61,0,0,0-.66-2.254,2.1,2.1,0,0,0-1.754-.863,2.075,2.075,0,0,0-1.727.852A3.925,3.925,0,0,0,106.094,188.867ZM58.988,237V225.625h3.719a4.317,4.317,0,0,1,2.785.766,2.759,2.759,0,0,1,.934,2.266,2.31,2.31,0,0,1-.453,1.41,2.937,2.937,0,0,1-1.234.949A2.638,2.638,0,0,1,66.2,232a2.814,2.814,0,0,1,.535,1.723,3.042,3.042,0,0,1-.992,2.406,4.1,4.1,0,0,1-2.8.875Zm1.5-5.32v4.094h2.477a2.385,2.385,0,0,0,1.652-.543,1.907,1.907,0,0,0,.605-1.5q0-2.055-2.234-2.055Zm0-1.2h2.266a2.375,2.375,0,0,0,1.574-.493,1.654,1.654,0,0,0,.59-1.339,1.626,1.626,0,0,0-.547-1.366,2.686,2.686,0,0,0-1.664-.427H60.488Zm13.453,5.688a3.07,3.07,0,0,1-2.477.992,2.628,2.628,0,0,1-2.059-.785,3.4,3.4,0,0,1-.715-2.324v-5.5h1.445v5.461q0,1.922,1.563,1.922a2.163,2.163,0,0,0,2.2-1.234v-6.148h1.445V237H73.973ZM79.5,226.5v2.047h1.578v1.117H79.5v5.249a1.173,1.173,0,0,0,.211.763.888.888,0,0,0,.719.254,3.5,3.5,0,0,0,.688-.094V237a4.215,4.215,0,0,1-1.109.155,1.8,1.8,0,0,1-1.461-.586,2.517,2.517,0,0,1-.492-1.664v-5.242H76.52v-1.117h1.539V226.5ZM87.988,237a3.036,3.036,0,0,1-.2-.891,3.225,3.225,0,0,1-2.406,1.047,2.984,2.984,0,0,1-2.051-.707,2.288,2.288,0,0,1-.8-1.793,2.39,2.39,0,0,1,1-2.051,4.733,4.733,0,0,1,2.824-.73h1.406v-.664A1.623,1.623,0,0,0,87.309,230a1.821,1.821,0,0,0-1.336-.449,2.107,2.107,0,0,0-1.3.391,1.151,1.151,0,0,0-.523.945H82.7a2,2,0,0,1,.449-1.223,3.066,3.066,0,0,1,1.219-.934,4.1,4.1,0,0,1,1.691-.344,3.342,3.342,0,0,1,2.289.73,2.635,2.635,0,0,1,.859,2.012v3.891a4.757,4.757,0,0,0,.3,1.852V237Zm-2.4-1.1a2.54,2.54,0,0,0,1.289-.352,2.127,2.127,0,0,0,.883-.914V232.9H86.629q-2.656,0-2.656,1.555a1.316,1.316,0,0,0,.453,1.063A1.742,1.742,0,0,0,85.59,235.9Zm7.25-7.352.047,1.063a3.08,3.08,0,0,1,2.531-1.219q2.68,0,2.7,3.023V237H96.676v-5.594a1.946,1.946,0,0,0-.418-1.352,1.675,1.675,0,0,0-1.277-.437,2.086,2.086,0,0,0-1.234.375,2.546,2.546,0,0,0-.828.984V237H91.473v-8.453Zm7.078,4.148a4.993,4.993,0,0,1,.488-2.234,3.643,3.643,0,0,1,1.359-1.531,3.7,3.7,0,0,1,1.988-.539,3.565,3.565,0,0,1,2.793,1.2,4.6,4.6,0,0,1,1.066,3.18v.1a5.036,5.036,0,0,1-.473,2.215,3.589,3.589,0,0,1-1.352,1.527,3.743,3.743,0,0,1-2.02.547,3.556,3.556,0,0,1-2.785-1.2,4.575,4.575,0,0,1-1.066-3.164Zm1.453.172a3.616,3.616,0,0,0,.652,2.258,2.211,2.211,0,0,0,3.5-.012,3.955,3.955,0,0,0,.648-2.418,3.61,3.61,0,0,0-.66-2.254,2.1,2.1,0,0,0-1.754-.863,2.075,2.075,0,0,0-1.727.852A3.925,3.925,0,0,0,101.371,232.867ZM70.262,275.742h-4.93v4.031h5.727V281H63.832V269.625H70.98v1.227H65.332v3.664h4.93Zm4.4-5.242v2.047h1.578v1.117H74.66v5.249a1.173,1.173,0,0,0,.211.763.888.888,0,0,0,.719.254,3.5,3.5,0,0,0,.688-.094V281a4.215,4.215,0,0,1-1.109.155,1.8,1.8,0,0,1-1.461-.586,2.517,2.517,0,0,1-.492-1.664v-5.242H71.676v-1.117h1.539V270.5ZM83.145,281a3.036,3.036,0,0,1-.2-.891,3.225,3.225,0,0,1-2.406,1.047,2.984,2.984,0,0,1-2.051-.707,2.287,2.287,0,0,1-.8-1.793,2.39,2.39,0,0,1,1-2.051,4.733,4.733,0,0,1,2.824-.73h1.406v-.664A1.623,1.623,0,0,0,82.465,274a1.821,1.821,0,0,0-1.336-.449,2.108,2.108,0,0,0-1.3.391,1.151,1.151,0,0,0-.523.945H77.855a2,2,0,0,1,.449-1.223,3.066,3.066,0,0,1,1.219-.934,4.1,4.1,0,0,1,1.691-.344,3.342,3.342,0,0,1,2.289.73,2.635,2.635,0,0,1,.859,2.012v3.891a4.757,4.757,0,0,0,.3,1.852V281Zm-2.4-1.1a2.54,2.54,0,0,0,1.289-.352,2.127,2.127,0,0,0,.883-.914V276.9H81.785q-2.656,0-2.656,1.555a1.316,1.316,0,0,0,.453,1.063A1.742,1.742,0,0,0,80.746,279.9ZM88,272.547l.047,1.063a3.08,3.08,0,0,1,2.531-1.219q2.68,0,2.7,3.023V281H91.832v-5.594a1.946,1.946,0,0,0-.418-1.352,1.675,1.675,0,0,0-1.277-.437,2.086,2.086,0,0,0-1.234.375,2.546,2.546,0,0,0-.828.984V281H86.629v-8.453Zm7.078,4.148a4.993,4.993,0,0,1,.488-2.234,3.642,3.642,0,0,1,1.359-1.531,3.7,3.7,0,0,1,1.988-.539,3.565,3.565,0,0,1,2.793,1.2,4.6,4.6,0,0,1,1.066,3.18v.1a5.036,5.036,0,0,1-.473,2.215,3.589,3.589,0,0,1-1.352,1.527,3.743,3.743,0,0,1-2.02.547,3.556,3.556,0,0,1-2.785-1.2,4.575,4.575,0,0,1-1.066-3.164Zm1.453.172a3.616,3.616,0,0,0,.652,2.258,2.211,2.211,0,0,0,3.5-.012,3.955,3.955,0,0,0,.648-2.418,3.61,3.61,0,0,0-.66-2.254,2.1,2.1,0,0,0-1.754-.863,2.075,2.075,0,0,0-1.727.852A3.925,3.925,0,0,0,96.527,276.867ZM59.094,313.625l3.719,9.281,3.719-9.281h1.945V325h-1.5v-4.43l.141-4.781L63.383,325H62.234l-3.727-9.187.148,4.758V325h-1.5V313.625Zm15.313,11.531a3.693,3.693,0,0,1-2.8-1.129,4.19,4.19,0,0,1-1.078-3.02v-.266a5.073,5.073,0,0,1,.48-2.246,3.748,3.748,0,0,1,1.344-1.547,3.378,3.378,0,0,1,1.871-.559,3.166,3.166,0,0,1,2.563,1.086,4.7,4.7,0,0,1,.914,3.109v.6H71.977a3,3,0,0,0,.73,2.02,2.3,2.3,0,0,0,1.777.77,2.517,2.517,0,0,0,1.3-.312,3.259,3.259,0,0,0,.93-.828l.883.688A3.55,3.55,0,0,1,74.406,325.156Zm-.18-7.578a1.928,1.928,0,0,0-1.469.637A3.1,3.1,0,0,0,72.023,320h4.234v-.109a2.753,2.753,0,0,0-.594-1.707A1.815,1.815,0,0,0,74.227,317.578Zm7.109-3.078v2.047h1.578v1.117H81.336v5.249a1.173,1.173,0,0,0,.211.763.888.888,0,0,0,.719.254,3.5,3.5,0,0,0,.688-.094V325a4.215,4.215,0,0,1-1.109.155,1.8,1.8,0,0,1-1.461-.586,2.517,2.517,0,0,1-.492-1.664v-5.242H78.352v-1.117h1.539V314.5ZM89.82,325a3.036,3.036,0,0,1-.2-.891,3.225,3.225,0,0,1-2.406,1.047,2.984,2.984,0,0,1-2.051-.707,2.287,2.287,0,0,1-.8-1.793,2.39,2.39,0,0,1,1-2.051,4.733,4.733,0,0,1,2.824-.73h1.406v-.664A1.623,1.623,0,0,0,89.141,318a1.821,1.821,0,0,0-1.336-.449,2.108,2.108,0,0,0-1.3.391,1.151,1.151,0,0,0-.523.945H84.531a2,2,0,0,1,.449-1.223,3.066,3.066,0,0,1,1.219-.934,4.1,4.1,0,0,1,1.691-.344,3.342,3.342,0,0,1,2.289.73,2.635,2.635,0,0,1,.859,2.012v3.891a4.757,4.757,0,0,0,.3,1.852V325Zm-2.4-1.1a2.54,2.54,0,0,0,1.289-.352,2.127,2.127,0,0,0,.883-.914V320.9H88.461q-2.656,0-2.656,1.555a1.316,1.316,0,0,0,.453,1.063A1.742,1.742,0,0,0,87.422,323.9Zm7.25-7.352.047,1.063a3.08,3.08,0,0,1,2.531-1.219q2.68,0,2.7,3.023V325H98.508v-5.594a1.946,1.946,0,0,0-.418-1.352,1.675,1.675,0,0,0-1.277-.437,2.086,2.086,0,0,0-1.234.375,2.546,2.546,0,0,0-.828.984V325H93.3v-8.453Zm7.078,4.148a4.993,4.993,0,0,1,.488-2.234,3.642,3.642,0,0,1,1.359-1.531,3.7,3.7,0,0,1,1.988-.539,3.565,3.565,0,0,1,2.793,1.2,4.6,4.6,0,0,1,1.066,3.18v.1a5.036,5.036,0,0,1-.473,2.215,3.589,3.589,0,0,1-1.352,1.527,3.743,3.743,0,0,1-2.02.547,3.556,3.556,0,0,1-2.785-1.2,4.575,4.575,0,0,1-1.066-3.164Zm1.453.172a3.616,3.616,0,0,0,.652,2.258,2.211,2.211,0,0,0,3.5-.012A3.955,3.955,0,0,0,108,320.7a3.61,3.61,0,0,0-.66-2.254,2.1,2.1,0,0,0-1.754-.863,2.075,2.075,0,0,0-1.727.852A3.925,3.925,0,0,0,103.2,320.867Z" transform="translate(393 178)" fill="#12263f"/>
      <path id="Trazado_721443" data-name="Trazado 721443" d="M61.582,15.508a3.465,3.465,0,0,1-1.613,1.238,6.517,6.517,0,0,1-2.41.41A4.674,4.674,0,0,1,55.09,16.5a4.346,4.346,0,0,1-1.668-1.855,6.408,6.408,0,0,1-.605-2.789v-.992a5.982,5.982,0,0,1,1.2-3.984,4.179,4.179,0,0,1,3.371-1.414,4.316,4.316,0,0,1,2.867.91,3.965,3.965,0,0,1,1.328,2.582h-1.5A2.48,2.48,0,0,0,57.395,6.7a2.655,2.655,0,0,0-2.285,1.06,5.173,5.173,0,0,0-.785,3.069v.93A4.848,4.848,0,0,0,55.2,14.8a2.836,2.836,0,0,0,2.367,1.13,5.228,5.228,0,0,0,1.477-.187,2.283,2.283,0,0,0,1.047-.631V12.563H57.457V11.336h4.125ZM69.074,17a3.036,3.036,0,0,1-.2-.891,3.225,3.225,0,0,1-2.406,1.047,2.984,2.984,0,0,1-2.051-.707,2.287,2.287,0,0,1-.8-1.793,2.39,2.39,0,0,1,1-2.051,4.733,4.733,0,0,1,2.824-.73h1.406v-.664A1.623,1.623,0,0,0,68.395,10a1.821,1.821,0,0,0-1.336-.449,2.108,2.108,0,0,0-1.3.391,1.151,1.151,0,0,0-.523.945H63.785a2,2,0,0,1,.449-1.223,3.066,3.066,0,0,1,1.219-.934,4.1,4.1,0,0,1,1.691-.344,3.342,3.342,0,0,1,2.289.73,2.635,2.635,0,0,1,.859,2.012v3.891a4.757,4.757,0,0,0,.3,1.852V17Zm-2.4-1.1a2.54,2.54,0,0,0,1.289-.352,2.127,2.127,0,0,0,.883-.914V12.9H67.715q-2.656,0-2.656,1.555a1.316,1.316,0,0,0,.453,1.063A1.742,1.742,0,0,0,66.676,15.9Zm10.8-1.141a1.064,1.064,0,0,0-.441-.91,4.249,4.249,0,0,0-1.539-.559,7.277,7.277,0,0,1-1.742-.562,2.479,2.479,0,0,1-.953-.781,1.869,1.869,0,0,1-.309-1.078,2.193,2.193,0,0,1,.879-1.758,3.432,3.432,0,0,1,2.246-.719,3.532,3.532,0,0,1,2.332.742,2.357,2.357,0,0,1,.895,1.9H77.395a1.3,1.3,0,0,0-.5-1.023,1.888,1.888,0,0,0-1.27-.43,1.976,1.976,0,0,0-1.234.344,1.082,1.082,0,0,0-.445.9.877.877,0,0,0,.414.789,5.1,5.1,0,0,0,1.5.508,7.8,7.8,0,0,1,1.754.578,2.558,2.558,0,0,1,1,.809,1.988,1.988,0,0,1,.324,1.152,2.163,2.163,0,0,1-.906,1.816,3.8,3.8,0,0,1-2.352.684,4.257,4.257,0,0,1-1.8-.359,2.922,2.922,0,0,1-1.223-1,2.42,2.42,0,0,1-.441-1.395h1.445a1.5,1.5,0,0,0,.582,1.152,2.258,2.258,0,0,0,1.434.426,2.331,2.331,0,0,0,1.316-.332A1.02,1.02,0,0,0,77.48,14.758ZM80.426,12.7a4.993,4.993,0,0,1,.488-2.234A3.643,3.643,0,0,1,82.273,8.93a3.7,3.7,0,0,1,1.988-.539,3.565,3.565,0,0,1,2.793,1.2,4.6,4.6,0,0,1,1.066,3.18v.1a5.036,5.036,0,0,1-.473,2.215A3.589,3.589,0,0,1,86.3,16.609a3.743,3.743,0,0,1-2.02.547,3.556,3.556,0,0,1-2.785-1.2A4.575,4.575,0,0,1,80.426,12.8Zm1.453.172a3.616,3.616,0,0,0,.652,2.258,2.211,2.211,0,0,0,3.5-.012,3.955,3.955,0,0,0,.648-2.418,3.61,3.61,0,0,0-.66-2.254,2.1,2.1,0,0,0-1.754-.863,2.075,2.075,0,0,0-1.727.852A3.925,3.925,0,0,0,81.879,12.867ZM91.5,17H90.059V5H91.5Zm3.883,0H93.941V8.547h1.445ZM93.824,6.3a.863.863,0,0,1,.215-.594.807.807,0,0,1,.637-.242.819.819,0,0,1,.641.242.854.854,0,0,1,.219.594.826.826,0,0,1-.219.586.834.834,0,0,1-.641.234.821.821,0,0,1-.637-.234A.834.834,0,0,1,93.824,6.3Zm5.242,2.242.047,1.063a3.08,3.08,0,0,1,2.531-1.219q2.68,0,2.7,3.023V17H102.9V11.406a1.946,1.946,0,0,0-.418-1.352,1.675,1.675,0,0,0-1.277-.437,2.086,2.086,0,0,0-1.234.375,2.546,2.546,0,0,0-.828.984V17H97.7V8.547ZM111.746,17a3.036,3.036,0,0,1-.2-.891,3.225,3.225,0,0,1-2.406,1.047,2.984,2.984,0,0,1-2.051-.707,2.288,2.288,0,0,1-.8-1.793,2.39,2.39,0,0,1,1-2.051,4.733,4.733,0,0,1,2.824-.73h1.406v-.664A1.623,1.623,0,0,0,111.066,10a1.821,1.821,0,0,0-1.336-.449,2.108,2.108,0,0,0-1.3.391,1.151,1.151,0,0,0-.523.945h-1.453a2,2,0,0,1,.449-1.223,3.066,3.066,0,0,1,1.219-.934,4.1,4.1,0,0,1,1.691-.344,3.342,3.342,0,0,1,2.289.73,2.635,2.635,0,0,1,.859,2.012v3.891a4.757,4.757,0,0,0,.3,1.852V17Zm-2.4-1.1a2.54,2.54,0,0,0,1.289-.352,2.127,2.127,0,0,0,.883-.914V12.9h-1.133q-2.656,0-2.656,1.555a1.316,1.316,0,0,0,.453,1.063A1.742,1.742,0,0,0,109.348,15.9ZM61.582,59.508a3.465,3.465,0,0,1-1.613,1.238,6.517,6.517,0,0,1-2.41.41A4.674,4.674,0,0,1,55.09,60.5a4.346,4.346,0,0,1-1.668-1.855,6.408,6.408,0,0,1-.605-2.789v-.992a5.982,5.982,0,0,1,1.2-3.984,4.179,4.179,0,0,1,3.371-1.414,4.316,4.316,0,0,1,2.867.91,3.965,3.965,0,0,1,1.328,2.582h-1.5A2.48,2.48,0,0,0,57.395,50.7a2.655,2.655,0,0,0-2.285,1.06,5.173,5.173,0,0,0-.785,3.069v.93A4.848,4.848,0,0,0,55.2,58.8a2.836,2.836,0,0,0,2.367,1.13,5.229,5.229,0,0,0,1.477-.187,2.283,2.283,0,0,0,1.047-.631V56.563H57.457V55.336h4.125ZM69.074,61a3.036,3.036,0,0,1-.2-.891,3.225,3.225,0,0,1-2.406,1.047,2.984,2.984,0,0,1-2.051-.707,2.287,2.287,0,0,1-.8-1.793,2.39,2.39,0,0,1,1-2.051,4.733,4.733,0,0,1,2.824-.73h1.406v-.664A1.623,1.623,0,0,0,68.395,54a1.821,1.821,0,0,0-1.336-.449,2.107,2.107,0,0,0-1.3.391,1.151,1.151,0,0,0-.523.945H63.785a2,2,0,0,1,.449-1.223,3.066,3.066,0,0,1,1.219-.934,4.1,4.1,0,0,1,1.691-.344,3.342,3.342,0,0,1,2.289.73,2.635,2.635,0,0,1,.859,2.012v3.891a4.757,4.757,0,0,0,.3,1.852V61Zm-2.4-1.1a2.54,2.54,0,0,0,1.289-.352,2.127,2.127,0,0,0,.883-.914V56.9H67.715q-2.656,0-2.656,1.555a1.316,1.316,0,0,0,.453,1.063A1.742,1.742,0,0,0,66.676,59.9Zm10.8-1.141a1.064,1.064,0,0,0-.441-.91,4.249,4.249,0,0,0-1.539-.559,7.277,7.277,0,0,1-1.742-.562,2.479,2.479,0,0,1-.953-.781,1.869,1.869,0,0,1-.309-1.078,2.193,2.193,0,0,1,.879-1.758,3.432,3.432,0,0,1,2.246-.719,3.532,3.532,0,0,1,2.332.742,2.357,2.357,0,0,1,.895,1.9H77.395a1.3,1.3,0,0,0-.5-1.023,1.888,1.888,0,0,0-1.27-.43,1.976,1.976,0,0,0-1.234.344,1.082,1.082,0,0,0-.445.9.877.877,0,0,0,.414.789,5.1,5.1,0,0,0,1.5.508,7.8,7.8,0,0,1,1.754.578,2.558,2.558,0,0,1,1,.809,1.988,1.988,0,0,1,.324,1.152,2.163,2.163,0,0,1-.906,1.816,3.8,3.8,0,0,1-2.352.684,4.257,4.257,0,0,1-1.8-.359,2.922,2.922,0,0,1-1.223-1,2.42,2.42,0,0,1-.441-1.395h1.445a1.5,1.5,0,0,0,.582,1.152,2.258,2.258,0,0,0,1.434.426,2.331,2.331,0,0,0,1.316-.332A1.02,1.02,0,0,0,77.48,58.758ZM80.426,56.7a4.993,4.993,0,0,1,.488-2.234,3.643,3.643,0,0,1,1.359-1.531,3.7,3.7,0,0,1,1.988-.539,3.565,3.565,0,0,1,2.793,1.2,4.6,4.6,0,0,1,1.066,3.18v.1a5.036,5.036,0,0,1-.473,2.215A3.589,3.589,0,0,1,86.3,60.609a3.743,3.743,0,0,1-2.02.547,3.556,3.556,0,0,1-2.785-1.2A4.575,4.575,0,0,1,80.426,56.8Zm1.453.172a3.616,3.616,0,0,0,.652,2.258,2.211,2.211,0,0,0,3.5-.012,3.955,3.955,0,0,0,.648-2.418,3.61,3.61,0,0,0-.66-2.254,2.1,2.1,0,0,0-1.754-.863,2.075,2.075,0,0,0-1.727.852A3.925,3.925,0,0,0,81.879,56.867ZM91.5,61H90.059V49H91.5Zm3.883,0H93.941V52.547h1.445ZM93.824,50.3a.863.863,0,0,1,.215-.594.807.807,0,0,1,.637-.242.819.819,0,0,1,.641.242.854.854,0,0,1,.219.594.826.826,0,0,1-.219.586.834.834,0,0,1-.641.234.821.821,0,0,1-.637-.234A.834.834,0,0,1,93.824,50.3Zm5.242,2.242.047,1.063a3.08,3.08,0,0,1,2.531-1.219q2.68,0,2.7,3.023V61H102.9V55.406a1.946,1.946,0,0,0-.418-1.352,1.675,1.675,0,0,0-1.277-.437,2.086,2.086,0,0,0-1.234.375,2.546,2.546,0,0,0-.828.984V61H97.7V52.547ZM111.746,61a3.036,3.036,0,0,1-.2-.891,3.225,3.225,0,0,1-2.406,1.047,2.984,2.984,0,0,1-2.051-.707,2.288,2.288,0,0,1-.8-1.793,2.39,2.39,0,0,1,1-2.051,4.733,4.733,0,0,1,2.824-.73h1.406v-.664A1.623,1.623,0,0,0,111.066,54a1.821,1.821,0,0,0-1.336-.449,2.107,2.107,0,0,0-1.3.391,1.151,1.151,0,0,0-.523.945h-1.453a2,2,0,0,1,.449-1.223,3.066,3.066,0,0,1,1.219-.934,4.1,4.1,0,0,1,1.691-.344,3.342,3.342,0,0,1,2.289.73,2.635,2.635,0,0,1,.859,2.012v3.891a4.757,4.757,0,0,0,.3,1.852V61Zm-2.4-1.1a2.54,2.54,0,0,0,1.289-.352,2.127,2.127,0,0,0,.883-.914V56.9h-1.133q-2.656,0-2.656,1.555a1.316,1.316,0,0,0,.453,1.063A1.742,1.742,0,0,0,109.348,59.9ZM62.59,105V93.625H65.8a5.169,5.169,0,0,1,2.625.656,4.438,4.438,0,0,1,1.762,1.867,6.078,6.078,0,0,1,.629,2.781v.727a6.1,6.1,0,0,1-.621,2.82,4.369,4.369,0,0,1-1.773,1.859,5.5,5.5,0,0,1-2.684.664Zm1.5-10.148v8.922h1.578a3.434,3.434,0,0,0,2.7-1.079,4.458,4.458,0,0,0,.965-3.073v-.665a4.529,4.529,0,0,0-.91-3.014,3.239,3.239,0,0,0-2.582-1.091ZM74.426,105H72.98V96.547h1.445ZM72.863,94.3a.863.863,0,0,1,.215-.594.807.807,0,0,1,.637-.242.819.819,0,0,1,.641.242.854.854,0,0,1,.219.594.826.826,0,0,1-.219.586.834.834,0,0,1-.641.234.821.821,0,0,1-.637-.234A.834.834,0,0,1,72.863,94.3Zm7.383,10.852a3.693,3.693,0,0,1-2.8-1.129,4.19,4.19,0,0,1-1.078-3.02v-.266a5.073,5.073,0,0,1,.48-2.246A3.748,3.748,0,0,1,78.2,96.949a3.378,3.378,0,0,1,1.871-.559,3.166,3.166,0,0,1,2.563,1.086,4.7,4.7,0,0,1,.914,3.109v.6H77.816a3,3,0,0,0,.73,2.02,2.3,2.3,0,0,0,1.777.77,2.517,2.517,0,0,0,1.3-.312,3.259,3.259,0,0,0,.93-.828l.883.688A3.55,3.55,0,0,1,80.246,105.156Zm-.18-7.578a1.928,1.928,0,0,0-1.469.637A3.1,3.1,0,0,0,77.863,100H82.1v-.109a2.753,2.753,0,0,0-.594-1.707A1.815,1.815,0,0,0,80.066,97.578ZM80.77,93h1.75l-2.094,2.3-1.164,0Zm9.367,9.758a1.064,1.064,0,0,0-.441-.91,4.249,4.249,0,0,0-1.539-.559,7.277,7.277,0,0,1-1.742-.562,2.478,2.478,0,0,1-.953-.781,1.869,1.869,0,0,1-.309-1.078,2.193,2.193,0,0,1,.879-1.758,3.432,3.432,0,0,1,2.246-.719,3.532,3.532,0,0,1,2.332.742,2.357,2.357,0,0,1,.895,1.9H90.051a1.3,1.3,0,0,0-.5-1.023,1.888,1.888,0,0,0-1.27-.43,1.976,1.976,0,0,0-1.234.344,1.082,1.082,0,0,0-.445.9.877.877,0,0,0,.414.789,5.1,5.1,0,0,0,1.5.508,7.8,7.8,0,0,1,1.754.578,2.559,2.559,0,0,1,1,.809,1.988,1.988,0,0,1,.324,1.152,2.163,2.163,0,0,1-.906,1.816,3.8,3.8,0,0,1-2.352.684,4.257,4.257,0,0,1-1.8-.359,2.922,2.922,0,0,1-1.223-1,2.42,2.42,0,0,1-.441-1.395h1.445a1.5,1.5,0,0,0,.582,1.152,2.258,2.258,0,0,0,1.434.426,2.331,2.331,0,0,0,1.316-.332A1.02,1.02,0,0,0,90.137,102.758Zm6.836,2.4a3.693,3.693,0,0,1-2.8-1.129,4.19,4.19,0,0,1-1.078-3.02v-.266a5.073,5.073,0,0,1,.48-2.246,3.748,3.748,0,0,1,1.344-1.547,3.378,3.378,0,0,1,1.871-.559,3.166,3.166,0,0,1,2.563,1.086,4.7,4.7,0,0,1,.914,3.109v.6H94.543a3,3,0,0,0,.73,2.02,2.3,2.3,0,0,0,1.777.77,2.517,2.517,0,0,0,1.3-.312,3.259,3.259,0,0,0,.93-.828l.883.688A3.55,3.55,0,0,1,96.973,105.156Zm-.18-7.578a1.928,1.928,0,0,0-1.469.637A3.1,3.1,0,0,0,94.59,100h4.234v-.109a2.753,2.753,0,0,0-.594-1.707A1.815,1.815,0,0,0,96.793,97.578ZM103.512,105h-1.445V93h1.445ZM62.59,149V137.625H65.8a5.169,5.169,0,0,1,2.625.656,4.438,4.438,0,0,1,1.762,1.867,6.078,6.078,0,0,1,.629,2.781v.727a6.1,6.1,0,0,1-.621,2.82,4.369,4.369,0,0,1-1.773,1.859,5.5,5.5,0,0,1-2.684.664Zm1.5-10.148v8.922h1.578a3.434,3.434,0,0,0,2.7-1.079,4.458,4.458,0,0,0,.965-3.073v-.665a4.529,4.529,0,0,0-.91-3.014,3.239,3.239,0,0,0-2.582-1.091ZM74.426,149H72.98v-8.453h1.445Zm-1.562-10.7a.863.863,0,0,1,.215-.594.807.807,0,0,1,.637-.242.819.819,0,0,1,.641.242.854.854,0,0,1,.219.594.826.826,0,0,1-.219.586.834.834,0,0,1-.641.234.821.821,0,0,1-.637-.234A.834.834,0,0,1,72.863,138.3Zm7.383,10.852a3.693,3.693,0,0,1-2.8-1.129,4.19,4.19,0,0,1-1.078-3.02v-.266a5.073,5.073,0,0,1,.48-2.246,3.748,3.748,0,0,1,1.344-1.547,3.379,3.379,0,0,1,1.871-.559,3.166,3.166,0,0,1,2.563,1.086,4.7,4.7,0,0,1,.914,3.109v.6H77.816a3,3,0,0,0,.73,2.02,2.3,2.3,0,0,0,1.777.77,2.517,2.517,0,0,0,1.3-.312,3.258,3.258,0,0,0,.93-.828l.883.688A3.55,3.55,0,0,1,80.246,149.156Zm-.18-7.578a1.928,1.928,0,0,0-1.469.637A3.1,3.1,0,0,0,77.863,144H82.1v-.109a2.753,2.753,0,0,0-.594-1.707A1.815,1.815,0,0,0,80.066,141.578Zm.7-4.578h1.75l-2.094,2.3-1.164,0Zm9.367,9.758a1.064,1.064,0,0,0-.441-.91,4.249,4.249,0,0,0-1.539-.559,7.277,7.277,0,0,1-1.742-.562,2.479,2.479,0,0,1-.953-.781,1.869,1.869,0,0,1-.309-1.078,2.193,2.193,0,0,1,.879-1.758,3.432,3.432,0,0,1,2.246-.719,3.532,3.532,0,0,1,2.332.742,2.357,2.357,0,0,1,.895,1.9H90.051a1.3,1.3,0,0,0-.5-1.023,1.888,1.888,0,0,0-1.27-.43,1.976,1.976,0,0,0-1.234.344,1.082,1.082,0,0,0-.445.9.877.877,0,0,0,.414.789,5.1,5.1,0,0,0,1.5.508,7.8,7.8,0,0,1,1.754.578,2.558,2.558,0,0,1,1,.809,1.988,1.988,0,0,1,.324,1.152,2.163,2.163,0,0,1-.906,1.816,3.8,3.8,0,0,1-2.352.684,4.257,4.257,0,0,1-1.8-.359,2.922,2.922,0,0,1-1.223-1,2.42,2.42,0,0,1-.441-1.395h1.445a1.5,1.5,0,0,0,.582,1.152,2.258,2.258,0,0,0,1.434.426,2.331,2.331,0,0,0,1.316-.332A1.02,1.02,0,0,0,90.137,146.758Zm6.836,2.4a3.693,3.693,0,0,1-2.8-1.129,4.19,4.19,0,0,1-1.078-3.02v-.266a5.073,5.073,0,0,1,.48-2.246,3.748,3.748,0,0,1,1.344-1.547,3.379,3.379,0,0,1,1.871-.559,3.166,3.166,0,0,1,2.563,1.086,4.7,4.7,0,0,1,.914,3.109v.6H94.543a3,3,0,0,0,.73,2.02,2.3,2.3,0,0,0,1.777.77,2.517,2.517,0,0,0,1.3-.312,3.258,3.258,0,0,0,.93-.828l.883.688A3.55,3.55,0,0,1,96.973,149.156Zm-.18-7.578a1.928,1.928,0,0,0-1.469.637A3.1,3.1,0,0,0,94.59,144h4.234v-.109a2.753,2.753,0,0,0-.594-1.707A1.815,1.815,0,0,0,96.793,141.578ZM103.512,149h-1.445V137h1.445Z" transform="translate(744 178)" fill="#12263f"/>
      <path id="Trazado_721447" data-name="Trazado 721447" d="M98.316,13.391a4.185,4.185,0,0,1-1.332,2.785,4.365,4.365,0,0,1-2.98.98,4.008,4.008,0,0,1-3.23-1.445,5.815,5.815,0,0,1-1.215-3.867V10.75a6.481,6.481,0,0,1,.566-2.789A4.231,4.231,0,0,1,91.73,6.113a4.47,4.47,0,0,1,2.406-.645A4.11,4.11,0,0,1,97.043,6.48a4.235,4.235,0,0,1,1.273,2.8H96.809a3.268,3.268,0,0,0-.848-1.975A2.565,2.565,0,0,0,94.137,6.7a2.684,2.684,0,0,0-2.254,1.063,4.882,4.882,0,0,0-.816,3.026v1.1a5.018,5.018,0,0,0,.773,2.948A2.5,2.5,0,0,0,94,15.93a2.886,2.886,0,0,0,1.918-.566,3.143,3.143,0,0,0,.887-1.973ZM117.027,17H115.52V11.742h-5.734V17h-1.5V5.625h1.5v4.891h5.734V5.625h1.508ZM98.316,57.391a4.185,4.185,0,0,1-1.332,2.785,4.365,4.365,0,0,1-2.98.98,4.008,4.008,0,0,1-3.23-1.445,5.815,5.815,0,0,1-1.215-3.867V54.75a6.481,6.481,0,0,1,.566-2.789,4.231,4.231,0,0,1,1.605-1.848,4.47,4.47,0,0,1,2.406-.645,4.11,4.11,0,0,1,2.906,1.012,4.235,4.235,0,0,1,1.273,2.8H96.809a3.268,3.268,0,0,0-.848-1.975,2.565,2.565,0,0,0-1.824-.611,2.684,2.684,0,0,0-2.254,1.063,4.882,4.882,0,0,0-.816,3.026v1.1a5.018,5.018,0,0,0,.773,2.948A2.5,2.5,0,0,0,94,59.93a2.886,2.886,0,0,0,1.918-.566,3.143,3.143,0,0,0,.887-1.973ZM117.027,61H115.52V55.742h-5.734V61h-1.5V49.625h1.5v4.891h5.734V49.625h1.508ZM96.336,101.391A4.185,4.185,0,0,1,95,104.176a4.365,4.365,0,0,1-2.98.98,4.008,4.008,0,0,1-3.23-1.445,5.815,5.815,0,0,1-1.215-3.867V98.75a6.481,6.481,0,0,1,.566-2.789,4.231,4.231,0,0,1,1.605-1.848,4.47,4.47,0,0,1,2.406-.645,4.11,4.11,0,0,1,2.906,1.012,4.235,4.235,0,0,1,1.273,2.8H94.828a3.268,3.268,0,0,0-.848-1.975,2.565,2.565,0,0,0-1.824-.611A2.684,2.684,0,0,0,89.9,95.759a4.882,4.882,0,0,0-.816,3.026v1.1a5.018,5.018,0,0,0,.773,2.948,2.5,2.5,0,0,0,2.164,1.095,2.887,2.887,0,0,0,1.918-.566,3.143,3.143,0,0,0,.887-1.973ZM119.008,105H117.5V99.742h-5.734V105h-1.5V93.625h1.5v4.891H117.5V93.625h1.508ZM92.375,145.391a4.185,4.185,0,0,1-1.332,2.785,4.365,4.365,0,0,1-2.98.98,4.008,4.008,0,0,1-3.23-1.445,5.815,5.815,0,0,1-1.215-3.867V142.75a6.481,6.481,0,0,1,.566-2.789,4.231,4.231,0,0,1,1.605-1.848,4.47,4.47,0,0,1,2.406-.645A4.11,4.11,0,0,1,91.1,138.48a4.235,4.235,0,0,1,1.273,2.8H90.867a3.268,3.268,0,0,0-.848-1.975A2.565,2.565,0,0,0,88.2,138.7a2.684,2.684,0,0,0-2.254,1.063,4.882,4.882,0,0,0-.816,3.026v1.1a5.018,5.018,0,0,0,.773,2.948,2.5,2.5,0,0,0,2.164,1.095,2.886,2.886,0,0,0,1.918-.566,3.143,3.143,0,0,0,.887-1.973ZM122.969,149h-1.508v-5.258h-5.734V149h-1.5V137.625h1.5v4.891h5.734v-4.891h1.508ZM98.316,189.391a4.185,4.185,0,0,1-1.332,2.785,4.365,4.365,0,0,1-2.98.98,4.008,4.008,0,0,1-3.23-1.445,5.815,5.815,0,0,1-1.215-3.867V186.75a6.481,6.481,0,0,1,.566-2.789,4.231,4.231,0,0,1,1.605-1.848,4.47,4.47,0,0,1,2.406-.645,4.11,4.11,0,0,1,2.906,1.012,4.235,4.235,0,0,1,1.273,2.8H96.809a3.268,3.268,0,0,0-.848-1.975,2.565,2.565,0,0,0-1.824-.611,2.684,2.684,0,0,0-2.254,1.063,4.882,4.882,0,0,0-.816,3.026v1.1a5.018,5.018,0,0,0,.773,2.948A2.5,2.5,0,0,0,94,191.93a2.886,2.886,0,0,0,1.918-.566,3.143,3.143,0,0,0,.887-1.973ZM117.027,193H115.52v-5.258h-5.734V193h-1.5V181.625h1.5v4.891h5.734v-4.891h1.508ZM98.316,233.391a4.185,4.185,0,0,1-1.332,2.785,4.365,4.365,0,0,1-2.98.98,4.008,4.008,0,0,1-3.23-1.445,5.815,5.815,0,0,1-1.215-3.867V230.75a6.481,6.481,0,0,1,.566-2.789,4.231,4.231,0,0,1,1.605-1.848,4.47,4.47,0,0,1,2.406-.645,4.11,4.11,0,0,1,2.906,1.012,4.235,4.235,0,0,1,1.273,2.8H96.809a3.268,3.268,0,0,0-.848-1.975,2.565,2.565,0,0,0-1.824-.611,2.684,2.684,0,0,0-2.254,1.063,4.882,4.882,0,0,0-.816,3.026v1.1a5.018,5.018,0,0,0,.773,2.948A2.5,2.5,0,0,0,94,235.93a2.886,2.886,0,0,0,1.918-.566,3.143,3.143,0,0,0,.887-1.973ZM117.027,237H115.52v-5.258h-5.734V237h-1.5V225.625h1.5v4.891h5.734v-4.891h1.508ZM98.316,277.391a4.185,4.185,0,0,1-1.332,2.785,4.365,4.365,0,0,1-2.98.98,4.008,4.008,0,0,1-3.23-1.445,5.815,5.815,0,0,1-1.215-3.867V274.75a6.481,6.481,0,0,1,.566-2.789,4.231,4.231,0,0,1,1.605-1.848,4.47,4.47,0,0,1,2.406-.645,4.11,4.11,0,0,1,2.906,1.012,4.235,4.235,0,0,1,1.273,2.8H96.809a3.268,3.268,0,0,0-.848-1.975,2.565,2.565,0,0,0-1.824-.611,2.684,2.684,0,0,0-2.254,1.063,4.882,4.882,0,0,0-.816,3.026v1.1a5.018,5.018,0,0,0,.773,2.948A2.5,2.5,0,0,0,94,279.93a2.887,2.887,0,0,0,1.918-.566,3.143,3.143,0,0,0,.887-1.973ZM117.027,281H115.52v-5.258h-5.734V281h-1.5V269.625h1.5v4.891h5.734v-4.891h1.508Zm-14.75,40.391a4.185,4.185,0,0,1-1.332,2.785,4.365,4.365,0,0,1-2.98.98,4.008,4.008,0,0,1-3.23-1.445,5.815,5.815,0,0,1-1.215-3.867V318.75a6.481,6.481,0,0,1,.566-2.789,4.231,4.231,0,0,1,1.605-1.848,4.47,4.47,0,0,1,2.406-.645A4.11,4.11,0,0,1,101,314.48a4.235,4.235,0,0,1,1.273,2.8H100.77a3.268,3.268,0,0,0-.848-1.975A2.565,2.565,0,0,0,98.1,314.7a2.684,2.684,0,0,0-2.254,1.063,4.882,4.882,0,0,0-.816,3.026v1.1a5.018,5.018,0,0,0,.773,2.948,2.5,2.5,0,0,0,2.164,1.095,2.887,2.887,0,0,0,1.918-.566,3.143,3.143,0,0,0,.887-1.973ZM113.066,325h-1.508v-5.258h-5.734V325h-1.5V313.625h1.5v4.891h5.734v-4.891h1.508ZM54.828,365.391a4.185,4.185,0,0,1-1.332,2.785,4.365,4.365,0,0,1-2.98.98,4.008,4.008,0,0,1-3.23-1.445,5.815,5.815,0,0,1-1.215-3.867V362.75a6.481,6.481,0,0,1,.566-2.789,4.231,4.231,0,0,1,1.605-1.848,4.47,4.47,0,0,1,2.406-.645,4.11,4.11,0,0,1,2.906,1.012,4.235,4.235,0,0,1,1.273,2.8H53.32a3.268,3.268,0,0,0-.848-1.975,2.565,2.565,0,0,0-1.824-.611,2.684,2.684,0,0,0-2.254,1.063,4.882,4.882,0,0,0-.816,3.026v1.1a5.018,5.018,0,0,0,.773,2.948,2.5,2.5,0,0,0,2.164,1.095,2.887,2.887,0,0,0,1.918-.566,3.143,3.143,0,0,0,.887-1.973ZM65.617,369H64.109v-5.258H58.375V369h-1.5V357.625h1.5v4.891h5.734v-4.891h1.508Zm17.328-4.242H79.133v-1.18h3.813Zm14.633-1.187a6.867,6.867,0,0,1-.594,2.945,4.472,4.472,0,0,1-1.7,1.953,5.021,5.021,0,0,1-5.059.008,4.515,4.515,0,0,1-1.719-1.941,6.67,6.67,0,0,1-.617-2.9v-.562a6.831,6.831,0,0,1,.605-2.957,4.508,4.508,0,0,1,1.711-1.961,5.014,5.014,0,0,1,5.055,0,4.508,4.508,0,0,1,1.711,1.961,6.811,6.811,0,0,1,.605,2.949Zm-2.375-.516a4.787,4.787,0,0,0-.641-2.719,2.263,2.263,0,0,0-3.648-.012,4.732,4.732,0,0,0-.648,2.691v.555a4.847,4.847,0,0,0,.641,2.7,2.243,2.243,0,0,0,3.656.035,4.819,4.819,0,0,0,.641-2.7Zm16.328,1.289h-8.091V362.5h8.091Zm14.758.867a4.025,4.025,0,0,1-1.355,2.891,4.76,4.76,0,0,1-3.223,1.055,4.28,4.28,0,0,1-3.441-1.473,6.038,6.038,0,0,1-1.254-4.043v-.7a6.819,6.819,0,0,1,.578-2.891,4.332,4.332,0,0,1,1.652-1.918,5.164,5.164,0,0,1,5.668.387,4.326,4.326,0,0,1,1.391,2.961h-2.344a2.376,2.376,0,0,0-.613-1.6,2.271,2.271,0,0,0-1.605-.5,1.991,1.991,0,0,0-1.754.84,4.707,4.707,0,0,0-.6,2.605v.859a5.038,5.038,0,0,0,.559,2.7,1.954,1.954,0,0,0,1.762.852,2.314,2.314,0,0,0,1.621-.5,2.241,2.241,0,0,0,.613-1.535Zm10.883-1.641a6.867,6.867,0,0,1-.594,2.945,4.472,4.472,0,0,1-1.7,1.953,5.021,5.021,0,0,1-5.059.008,4.515,4.515,0,0,1-1.719-1.941,6.67,6.67,0,0,1-.617-2.9v-.562a6.831,6.831,0,0,1,.605-2.957,4.508,4.508,0,0,1,1.711-1.961,5.014,5.014,0,0,1,5.055,0,4.508,4.508,0,0,1,1.711,1.961,6.811,6.811,0,0,1,.605,2.949Zm-2.375-.516a4.787,4.787,0,0,0-.641-2.719,2.263,2.263,0,0,0-3.648-.012,4.732,4.732,0,0,0-.648,2.691v.555a4.847,4.847,0,0,0,.641,2.7,2.243,2.243,0,0,0,3.656.035,4.819,4.819,0,0,0,.641-2.7Zm12.3,1.984h-4.4v-1.82h4.4Zm10.4-.641h-2.672V369H153.32V357.625h3.766a4.457,4.457,0,0,1,2.957.875,3.148,3.148,0,0,1,1.035,2.547,3.062,3.062,0,0,1-.574,1.852,3.428,3.428,0,0,1-1.6,1.18l2.672,4.828V369h-1.609Zm-2.672-1.227h2.3a2.6,2.6,0,0,0,1.777-.579,1.958,1.958,0,0,0,.66-1.55,2.062,2.062,0,0,0-.629-1.62,2.663,2.663,0,0,0-1.816-.571h-2.3ZM83.152,409.391a4.185,4.185,0,0,1-1.332,2.785,4.365,4.365,0,0,1-2.98.98,4.008,4.008,0,0,1-3.23-1.445,5.815,5.815,0,0,1-1.215-3.867V406.75a6.481,6.481,0,0,1,.566-2.789,4.231,4.231,0,0,1,1.605-1.848,4.47,4.47,0,0,1,2.406-.645,4.11,4.11,0,0,1,2.906,1.012,4.235,4.235,0,0,1,1.273,2.8H81.645a3.268,3.268,0,0,0-.848-1.975,2.565,2.565,0,0,0-1.824-.611,2.684,2.684,0,0,0-2.254,1.063,4.882,4.882,0,0,0-.816,3.026v1.1a5.018,5.018,0,0,0,.773,2.948,2.5,2.5,0,0,0,2.164,1.095,2.887,2.887,0,0,0,1.918-.566,3.143,3.143,0,0,0,.887-1.973ZM101.863,413h-1.508v-5.258H94.621V413h-1.5V401.625h1.5v4.891h5.734v-4.891h1.508Zm19.336-5.32a7.037,7.037,0,0,1-.562,2.918,4.261,4.261,0,0,1-1.594,1.9,4.4,4.4,0,0,1-6.4-1.887,6.752,6.752,0,0,1-.59-2.832v-.82a6.953,6.953,0,0,1,.57-2.9,4.218,4.218,0,0,1,4-2.594,4.41,4.41,0,0,1,2.41.66,4.253,4.253,0,0,1,1.605,1.914,7.071,7.071,0,0,1,.563,2.918Zm-1.492-.734a5.1,5.1,0,0,0-.812-3.105,2.68,2.68,0,0,0-2.273-1.082,2.651,2.651,0,0,0-2.238,1.082,5,5,0,0,0-.84,3v.836a5.107,5.107,0,0,0,.824,3.082,2.888,2.888,0,0,0,4.52.063,5.079,5.079,0,0,0,.82-3.035ZM132.191,413h-1.508v-5.258h-5.734V413h-1.5V401.625h1.5v4.891h5.734v-4.891h1.508Z" transform="translate(1080 178)" fill="#12263f"/>
      <path id="Trazado_721448" data-name="Trazado 721448" d="M5.595,4.746a1.651,1.651,0,0,1-.281.947,1.91,1.91,0,0,1-.759.649,2.038,2.038,0,0,1,.881.7,1.757,1.757,0,0,1,.325,1.04,1.858,1.858,0,0,1-.623,1.47A2.392,2.392,0,0,1,3.5,10.1a2.381,2.381,0,0,1-1.643-.549,1.866,1.866,0,0,1-.618-1.467,1.81,1.81,0,0,1,.315-1.04,1.96,1.96,0,0,1,.872-.7,1.863,1.863,0,0,1-.747-.649,1.674,1.674,0,0,1-.273-.942A1.838,1.838,0,0,1,1.981,3.32,2.161,2.161,0,0,1,3.5,2.793a2.163,2.163,0,0,1,1.516.527A1.834,1.834,0,0,1,5.595,4.746ZM4.857,8.062a1.31,1.31,0,0,0-.378-.972,1.342,1.342,0,0,0-.989-.376,1.318,1.318,0,0,0-.979.371,1.325,1.325,0,0,0-.369.977,1.262,1.262,0,0,0,.359.952,1.378,1.378,0,0,0,1,.347,1.373,1.373,0,0,0,1-.349A1.259,1.259,0,0,0,4.857,8.062ZM3.5,3.535a1.166,1.166,0,0,0-.862.33,1.211,1.211,0,0,0-.33.9,1.2,1.2,0,0,0,.325.876,1.152,1.152,0,0,0,.867.334,1.152,1.152,0,0,0,.867-.334,1.2,1.2,0,0,0,.325-.876,1.205,1.205,0,0,0-.337-.884A1.149,1.149,0,0,0,3.5,3.535Z" transform="translate(1180 187)" fill="#12263f"/>
      <line id="Línea_341" data-name="Línea 341" y1="1" x2="335" transform="translate(1009 385)" fill="none" stroke="#707070" stroke-width="1"/>
      <path id="Trazado_721444" data-name="Trazado 721444" d="M56.285,15.508a3.465,3.465,0,0,1-1.613,1.238,6.517,6.517,0,0,1-2.41.41,4.674,4.674,0,0,1-2.469-.652,4.346,4.346,0,0,1-1.668-1.855,6.408,6.408,0,0,1-.605-2.789v-.992a5.982,5.982,0,0,1,1.2-3.984A4.179,4.179,0,0,1,52.09,5.469a4.316,4.316,0,0,1,2.867.91,3.965,3.965,0,0,1,1.328,2.582h-1.5A2.48,2.48,0,0,0,52.1,6.7a2.655,2.655,0,0,0-2.285,1.06,5.173,5.173,0,0,0-.785,3.069v.93A4.848,4.848,0,0,0,49.9,14.8a2.836,2.836,0,0,0,2.367,1.13,5.228,5.228,0,0,0,1.477-.187,2.283,2.283,0,0,0,1.047-.631V12.563H52.16V11.336h4.125ZM63.777,17a3.036,3.036,0,0,1-.2-.891,3.225,3.225,0,0,1-2.406,1.047,2.984,2.984,0,0,1-2.051-.707,2.287,2.287,0,0,1-.8-1.793,2.39,2.39,0,0,1,1-2.051,4.733,4.733,0,0,1,2.824-.73h1.406v-.664A1.623,1.623,0,0,0,63.1,10a1.821,1.821,0,0,0-1.336-.449,2.107,2.107,0,0,0-1.3.391,1.151,1.151,0,0,0-.523.945H58.488a2,2,0,0,1,.449-1.223,3.066,3.066,0,0,1,1.219-.934,4.1,4.1,0,0,1,1.691-.344,3.342,3.342,0,0,1,2.289.73A2.635,2.635,0,0,1,65,11.133v3.891a4.757,4.757,0,0,0,.3,1.852V17Zm-2.4-1.1a2.54,2.54,0,0,0,1.289-.352,2.127,2.127,0,0,0,.883-.914V12.9H62.418q-2.656,0-2.656,1.555a1.316,1.316,0,0,0,.453,1.063A1.742,1.742,0,0,0,61.379,15.9Zm10.8-1.141a1.064,1.064,0,0,0-.441-.91,4.249,4.249,0,0,0-1.539-.559,7.277,7.277,0,0,1-1.742-.562,2.479,2.479,0,0,1-.953-.781,1.869,1.869,0,0,1-.309-1.078,2.193,2.193,0,0,1,.879-1.758,3.432,3.432,0,0,1,2.246-.719,3.532,3.532,0,0,1,2.332.742,2.357,2.357,0,0,1,.895,1.9H72.1a1.3,1.3,0,0,0-.5-1.023,1.888,1.888,0,0,0-1.27-.43,1.976,1.976,0,0,0-1.234.344,1.082,1.082,0,0,0-.445.9.877.877,0,0,0,.414.789,5.1,5.1,0,0,0,1.5.508,7.8,7.8,0,0,1,1.754.578,2.558,2.558,0,0,1,1,.809,1.988,1.988,0,0,1,.324,1.152,2.163,2.163,0,0,1-.906,1.816,3.8,3.8,0,0,1-2.352.684,4.257,4.257,0,0,1-1.8-.359,2.922,2.922,0,0,1-1.223-1A2.42,2.42,0,0,1,66.91,14.4h1.445a1.5,1.5,0,0,0,.582,1.152,2.258,2.258,0,0,0,1.434.426,2.331,2.331,0,0,0,1.316-.332A1.02,1.02,0,0,0,72.184,14.758ZM81.043,17H79.6V5h1.445Zm3.883,0H83.48V8.547h1.445ZM83.363,6.3a.863.863,0,0,1,.215-.594.807.807,0,0,1,.637-.242.819.819,0,0,1,.641.242.854.854,0,0,1,.219.594.826.826,0,0,1-.219.586.834.834,0,0,1-.641.234.821.821,0,0,1-.637-.234A.834.834,0,0,1,83.363,6.3Zm7.266,9.672a2.082,2.082,0,0,0,1.352-.469,1.649,1.649,0,0,0,.641-1.172h1.367a2.621,2.621,0,0,1-.5,1.383,3.293,3.293,0,0,1-1.23,1.047,3.55,3.55,0,0,1-1.629.391A3.482,3.482,0,0,1,87.883,16a4.59,4.59,0,0,1-1.02-3.152v-.242a5.089,5.089,0,0,1,.453-2.2,3.451,3.451,0,0,1,1.3-1.492,3.7,3.7,0,0,1,2-.531,3.39,3.39,0,0,1,2.363.852,3.043,3.043,0,0,1,1,2.211H92.621A1.992,1.992,0,0,0,92,10.105a1.932,1.932,0,0,0-1.379-.527,2.023,2.023,0,0,0-1.707.793,3.724,3.724,0,0,0-.605,2.293v.273a3.65,3.65,0,0,0,.6,2.25A2.033,2.033,0,0,0,90.629,15.977Zm10.2.188a3.07,3.07,0,0,1-2.477.992,2.628,2.628,0,0,1-2.059-.785,3.4,3.4,0,0,1-.715-2.324v-5.5h1.445v5.461q0,1.922,1.563,1.922a2.163,2.163,0,0,0,2.2-1.234V8.547h1.445V17h-1.375Zm8.82.836a3.036,3.036,0,0,1-.2-.891,3.225,3.225,0,0,1-2.406,1.047,2.984,2.984,0,0,1-2.051-.707,2.288,2.288,0,0,1-.8-1.793,2.39,2.39,0,0,1,1-2.051,4.733,4.733,0,0,1,2.824-.73h1.406v-.664A1.623,1.623,0,0,0,108.973,10a1.821,1.821,0,0,0-1.336-.449,2.108,2.108,0,0,0-1.3.391,1.151,1.151,0,0,0-.523.945h-1.453a2,2,0,0,1,.449-1.223,3.066,3.066,0,0,1,1.219-.934,4.1,4.1,0,0,1,1.691-.344,3.342,3.342,0,0,1,2.289.73,2.635,2.635,0,0,1,.859,2.012v3.891a4.757,4.757,0,0,0,.3,1.852V17Zm-2.4-1.1a2.54,2.54,0,0,0,1.289-.352,2.127,2.127,0,0,0,.883-.914V12.9h-1.133q-2.656,0-2.656,1.555a1.316,1.316,0,0,0,.453,1.063A1.742,1.742,0,0,0,107.254,15.9Zm5.531-3.2a4.952,4.952,0,0,1,.922-3.129,3.137,3.137,0,0,1,4.766-.168V5h1.445V17H118.59l-.07-.906a2.943,2.943,0,0,1-2.414,1.063,2.887,2.887,0,0,1-2.395-1.2,5.008,5.008,0,0,1-.926-3.141Zm1.445.164a3.749,3.749,0,0,0,.594,2.25,1.92,1.92,0,0,0,1.641.813,2.108,2.108,0,0,0,2.008-1.234V10.813a2.125,2.125,0,0,0-1.992-1.2,1.929,1.929,0,0,0-1.656.82A4.128,4.128,0,0,0,114.23,12.867Zm7.547-.172a4.993,4.993,0,0,1,.488-2.234,3.643,3.643,0,0,1,1.359-1.531,3.7,3.7,0,0,1,1.988-.539,3.565,3.565,0,0,1,2.793,1.2,4.6,4.6,0,0,1,1.066,3.18v.1A5.036,5.036,0,0,1,129,15.082a3.589,3.589,0,0,1-1.352,1.527,3.743,3.743,0,0,1-2.02.547,3.556,3.556,0,0,1-2.785-1.2,4.575,4.575,0,0,1-1.066-3.164Zm1.453.172a3.616,3.616,0,0,0,.652,2.258,2.211,2.211,0,0,0,3.5-.012,3.955,3.955,0,0,0,.648-2.418,3.61,3.61,0,0,0-.66-2.254,2.1,2.1,0,0,0-1.754-.863,2.075,2.075,0,0,0-1.727.852A3.925,3.925,0,0,0,123.23,12.867Zm11.664-.164a4.952,4.952,0,0,1,.922-3.129,3.137,3.137,0,0,1,4.766-.168V5h1.445V17H140.7l-.07-.906a2.943,2.943,0,0,1-2.414,1.063,2.887,2.887,0,0,1-2.395-1.2,5.008,5.008,0,0,1-.926-3.141Zm1.445.164a3.749,3.749,0,0,0,.594,2.25,1.919,1.919,0,0,0,1.641.813,2.108,2.108,0,0,0,2.008-1.234V10.813a2.125,2.125,0,0,0-1.992-1.2,1.929,1.929,0,0,0-1.656.82A4.128,4.128,0,0,0,136.34,12.867Zm11.438,4.289a3.693,3.693,0,0,1-2.8-1.129,4.19,4.19,0,0,1-1.078-3.02v-.266a5.073,5.073,0,0,1,.48-2.246,3.748,3.748,0,0,1,1.344-1.547,3.378,3.378,0,0,1,1.871-.559,3.166,3.166,0,0,1,2.563,1.086,4.7,4.7,0,0,1,.914,3.109v.6h-5.727a3,3,0,0,0,.73,2.02,2.3,2.3,0,0,0,1.777.77,2.517,2.517,0,0,0,1.3-.312,3.258,3.258,0,0,0,.93-.828l.883.688A3.55,3.55,0,0,1,147.777,17.156Zm-.18-7.578a1.928,1.928,0,0,0-1.469.637A3.1,3.1,0,0,0,145.395,12h4.234v-.109a2.753,2.753,0,0,0-.594-1.707A1.815,1.815,0,0,0,147.6,9.578Zm10.836,2.969V17h-1.5V5.625h4.2a4.215,4.215,0,0,1,2.926.953A3.231,3.231,0,0,1,165.113,9.1a3.188,3.188,0,0,1-1.035,2.551,4.4,4.4,0,0,1-2.965.895Zm0-1.227h2.7a2.7,2.7,0,0,0,1.844-.567,2.075,2.075,0,0,0,.641-1.64,2.143,2.143,0,0,0-.641-1.628,2.525,2.525,0,0,0-1.758-.634h-2.781Zm11.875,5.836a3.693,3.693,0,0,1-2.8-1.129,4.19,4.19,0,0,1-1.078-3.02v-.266a5.073,5.073,0,0,1,.48-2.246,3.748,3.748,0,0,1,1.344-1.547,3.378,3.378,0,0,1,1.871-.559,3.166,3.166,0,0,1,2.563,1.086,4.7,4.7,0,0,1,.914,3.109v.6h-5.727a3,3,0,0,0,.73,2.02,2.3,2.3,0,0,0,1.777.77,2.517,2.517,0,0,0,1.3-.312,3.258,3.258,0,0,0,.93-.828l.883.688A3.55,3.55,0,0,1,170.309,17.156Zm-.18-7.578a1.928,1.928,0,0,0-1.469.637A3.1,3.1,0,0,0,167.926,12h4.234v-.109a2.753,2.753,0,0,0-.594-1.707A1.815,1.815,0,0,0,170.129,9.578ZM177.238,6.5V8.547h1.578V9.664h-1.578v5.249a1.173,1.173,0,0,0,.211.763.888.888,0,0,0,.719.254,3.5,3.5,0,0,0,.688-.094V17a4.215,4.215,0,0,1-1.109.155,1.8,1.8,0,0,1-1.461-.586,2.517,2.517,0,0,1-.492-1.664V9.664h-1.539V8.547h1.539V6.5Zm7.352,3.344a4.331,4.331,0,0,0-.711-.055A1.9,1.9,0,0,0,181.949,11v6H180.5V8.547h1.406l.023.977a2.251,2.251,0,0,1,2.016-1.133,1.477,1.477,0,0,1,.641.109Zm.945,2.852a4.993,4.993,0,0,1,.488-2.234,3.642,3.642,0,0,1,1.359-1.531,3.7,3.7,0,0,1,1.988-.539,3.565,3.565,0,0,1,2.793,1.2,4.6,4.6,0,0,1,1.066,3.18v.1a5.036,5.036,0,0,1-.473,2.215,3.589,3.589,0,0,1-1.352,1.527,3.743,3.743,0,0,1-2.02.547,3.556,3.556,0,0,1-2.785-1.2,4.575,4.575,0,0,1-1.066-3.164Zm1.453.172a3.616,3.616,0,0,0,.652,2.258,2.211,2.211,0,0,0,3.5-.012,3.954,3.954,0,0,0,.648-2.418,3.61,3.61,0,0,0-.66-2.254,2.1,2.1,0,0,0-1.754-.863,2.075,2.075,0,0,0-1.727.852A3.925,3.925,0,0,0,186.988,12.867ZM190.027,5h1.75l-2.094,2.3-1.164,0Zm6.586,12h-1.445V5h1.445Zm5.82.156a3.693,3.693,0,0,1-2.8-1.129,4.19,4.19,0,0,1-1.078-3.02v-.266a5.073,5.073,0,0,1,.48-2.246,3.748,3.748,0,0,1,1.344-1.547,3.378,3.378,0,0,1,1.871-.559,3.166,3.166,0,0,1,2.563,1.086,4.7,4.7,0,0,1,.914,3.109v.6H200a3,3,0,0,0,.73,2.02,2.3,2.3,0,0,0,1.777.77,2.517,2.517,0,0,0,1.3-.312,3.258,3.258,0,0,0,.93-.828l.883.688A3.55,3.55,0,0,1,202.434,17.156Zm-.18-7.578a1.928,1.928,0,0,0-1.469.637A3.1,3.1,0,0,0,200.051,12h4.234v-.109a2.753,2.753,0,0,0-.594-1.707A1.815,1.815,0,0,0,202.254,9.578ZM207.02,12.7a4.993,4.993,0,0,1,.488-2.234,3.642,3.642,0,0,1,1.359-1.531,3.7,3.7,0,0,1,1.988-.539,3.565,3.565,0,0,1,2.793,1.2,4.6,4.6,0,0,1,1.066,3.18v.1a5.036,5.036,0,0,1-.473,2.215,3.589,3.589,0,0,1-1.352,1.527,3.743,3.743,0,0,1-2.02.547,3.556,3.556,0,0,1-2.785-1.2A4.575,4.575,0,0,1,207.02,12.8Zm1.453.172a3.616,3.616,0,0,0,.652,2.258,2.211,2.211,0,0,0,3.5-.012,3.954,3.954,0,0,0,.648-2.418,3.61,3.61,0,0,0-.66-2.254,2.1,2.1,0,0,0-1.754-.863,2.075,2.075,0,0,0-1.727.852A3.925,3.925,0,0,0,208.473,12.867Z" transform="translate(696 376)" fill="#12263f"/>
      <line id="Línea_342" data-name="Línea 342" x2="1027" transform="translate(316 521)" fill="none" stroke="#707070" stroke-width="1"/>
      <line id="Línea_343" data-name="Línea 343" x2="1027" transform="translate(316 566)" fill="none" stroke="#707070" stroke-width="1"/>
      <path id="Trazado_721445" data-name="Trazado 721445" d="M52.18,15.508a3.465,3.465,0,0,1-1.613,1.238,6.517,6.517,0,0,1-2.41.41,4.674,4.674,0,0,1-2.469-.652,4.346,4.346,0,0,1-1.668-1.855,6.408,6.408,0,0,1-.605-2.789v-.992a5.982,5.982,0,0,1,1.2-3.984,4.179,4.179,0,0,1,3.371-1.414,4.316,4.316,0,0,1,2.867.91A3.965,3.965,0,0,1,52.18,8.961h-1.5A2.48,2.48,0,0,0,47.992,6.7a2.655,2.655,0,0,0-2.285,1.06,5.173,5.173,0,0,0-.785,3.069v.93A4.848,4.848,0,0,0,45.8,14.8a2.836,2.836,0,0,0,2.367,1.13,5.228,5.228,0,0,0,1.477-.187,2.283,2.283,0,0,0,1.047-.631V12.563H48.055V11.336H52.18ZM59.672,17a3.036,3.036,0,0,1-.2-.891,3.225,3.225,0,0,1-2.406,1.047,2.984,2.984,0,0,1-2.051-.707,2.287,2.287,0,0,1-.8-1.793,2.39,2.39,0,0,1,1-2.051,4.733,4.733,0,0,1,2.824-.73h1.406v-.664A1.623,1.623,0,0,0,58.992,10a1.821,1.821,0,0,0-1.336-.449,2.107,2.107,0,0,0-1.3.391,1.151,1.151,0,0,0-.523.945H54.383a2,2,0,0,1,.449-1.223,3.066,3.066,0,0,1,1.219-.934,4.1,4.1,0,0,1,1.691-.344,3.342,3.342,0,0,1,2.289.73,2.635,2.635,0,0,1,.859,2.012v3.891a4.757,4.757,0,0,0,.3,1.852V17Zm-2.4-1.1a2.54,2.54,0,0,0,1.289-.352,2.127,2.127,0,0,0,.883-.914V12.9H58.313q-2.656,0-2.656,1.555a1.316,1.316,0,0,0,.453,1.063A1.742,1.742,0,0,0,57.273,15.9Zm10.8-1.141a1.064,1.064,0,0,0-.441-.91,4.249,4.249,0,0,0-1.539-.559,7.277,7.277,0,0,1-1.742-.562,2.479,2.479,0,0,1-.953-.781,1.869,1.869,0,0,1-.309-1.078,2.193,2.193,0,0,1,.879-1.758,3.432,3.432,0,0,1,2.246-.719,3.532,3.532,0,0,1,2.332.742,2.357,2.357,0,0,1,.895,1.9H67.992a1.3,1.3,0,0,0-.5-1.023,1.888,1.888,0,0,0-1.27-.43,1.976,1.976,0,0,0-1.234.344,1.082,1.082,0,0,0-.445.9.877.877,0,0,0,.414.789,5.1,5.1,0,0,0,1.5.508A7.8,7.8,0,0,1,68.2,12.7a2.558,2.558,0,0,1,1,.809,1.988,1.988,0,0,1,.324,1.152,2.163,2.163,0,0,1-.906,1.816,3.8,3.8,0,0,1-2.352.684,4.257,4.257,0,0,1-1.8-.359,2.922,2.922,0,0,1-1.223-1A2.42,2.42,0,0,1,62.8,14.4H64.25a1.5,1.5,0,0,0,.582,1.152,2.258,2.258,0,0,0,1.434.426,2.331,2.331,0,0,0,1.316-.332A1.02,1.02,0,0,0,68.078,14.758Zm8.656-6.211.047,1.063a3.08,3.08,0,0,1,2.531-1.219q2.68,0,2.7,3.023V17H80.57V11.406a1.946,1.946,0,0,0-.418-1.352,1.675,1.675,0,0,0-1.277-.437,2.086,2.086,0,0,0-1.234.375,2.546,2.546,0,0,0-.828.984V17H75.367V8.547ZM89.414,17a3.036,3.036,0,0,1-.2-.891A3.225,3.225,0,0,1,86.8,17.156a2.984,2.984,0,0,1-2.051-.707,2.288,2.288,0,0,1-.8-1.793,2.39,2.39,0,0,1,1-2.051,4.733,4.733,0,0,1,2.824-.73h1.406v-.664A1.623,1.623,0,0,0,88.734,10,1.821,1.821,0,0,0,87.4,9.555a2.108,2.108,0,0,0-1.3.391,1.151,1.151,0,0,0-.523.945H84.125a2,2,0,0,1,.449-1.223,3.066,3.066,0,0,1,1.219-.934,4.1,4.1,0,0,1,1.691-.344,3.342,3.342,0,0,1,2.289.73,2.635,2.635,0,0,1,.859,2.012v3.891a4.757,4.757,0,0,0,.3,1.852V17Zm-2.4-1.1a2.54,2.54,0,0,0,1.289-.352,2.127,2.127,0,0,0,.883-.914V12.9H88.055q-2.656,0-2.656,1.555a1.316,1.316,0,0,0,.453,1.063A1.742,1.742,0,0,0,87.016,15.9Zm7.844-9.4V8.547h1.578V9.664H94.859v5.249a1.173,1.173,0,0,0,.211.763.888.888,0,0,0,.719.254,3.5,3.5,0,0,0,.688-.094V17a4.215,4.215,0,0,1-1.109.155,1.8,1.8,0,0,1-1.461-.586,2.517,2.517,0,0,1-.492-1.664V9.664H91.875V8.547h1.539V6.5Zm8.484,9.664a3.07,3.07,0,0,1-2.477.992,2.628,2.628,0,0,1-2.059-.785,3.4,3.4,0,0,1-.715-2.324v-5.5h1.445v5.461q0,1.922,1.563,1.922a2.163,2.163,0,0,0,2.2-1.234V8.547h1.445V17h-1.375Zm7.688-6.32a4.331,4.331,0,0,0-.711-.055A1.9,1.9,0,0,0,108.391,11v6h-1.445V8.547h1.406l.023.977a2.251,2.251,0,0,1,2.016-1.133,1.477,1.477,0,0,1,.641.109ZM117.266,17a3.036,3.036,0,0,1-.2-.891,3.225,3.225,0,0,1-2.406,1.047,2.984,2.984,0,0,1-2.051-.707,2.288,2.288,0,0,1-.8-1.793,2.39,2.39,0,0,1,1-2.051,4.733,4.733,0,0,1,2.824-.73h1.406v-.664A1.623,1.623,0,0,0,116.586,10a1.821,1.821,0,0,0-1.336-.449,2.108,2.108,0,0,0-1.3.391,1.151,1.151,0,0,0-.523.945h-1.453a2,2,0,0,1,.449-1.223,3.066,3.066,0,0,1,1.219-.934,4.1,4.1,0,0,1,1.691-.344,3.342,3.342,0,0,1,2.289.73,2.635,2.635,0,0,1,.859,2.012v3.891a4.757,4.757,0,0,0,.3,1.852V17Zm-2.4-1.1a2.54,2.54,0,0,0,1.289-.352,2.127,2.127,0,0,0,.883-.914V12.9h-1.133q-2.656,0-2.656,1.555a1.316,1.316,0,0,0,.453,1.063A1.742,1.742,0,0,0,114.867,15.9ZM122.32,17h-1.445V5h1.445ZM51.84,61V49.625h3.719a4.317,4.317,0,0,1,2.785.766,2.759,2.759,0,0,1,.934,2.266,2.31,2.31,0,0,1-.453,1.41,2.937,2.937,0,0,1-1.234.949,2.638,2.638,0,0,1,1.457.98,2.814,2.814,0,0,1,.535,1.723,3.042,3.042,0,0,1-.992,2.406,4.1,4.1,0,0,1-2.8.875Zm1.5-5.32v4.094h2.477a2.385,2.385,0,0,0,1.652-.543,1.907,1.907,0,0,0,.605-1.5q0-2.055-2.234-2.055Zm0-1.2h2.266a2.375,2.375,0,0,0,1.574-.493,1.654,1.654,0,0,0,.59-1.339,1.626,1.626,0,0,0-.547-1.366,2.686,2.686,0,0,0-1.664-.427H53.34ZM63.145,61H61.7V52.547h1.445ZM61.582,50.3a.863.863,0,0,1,.215-.594.807.807,0,0,1,.637-.242.819.819,0,0,1,.641.242.854.854,0,0,1,.219.594.826.826,0,0,1-.219.586.834.834,0,0,1-.641.234.821.821,0,0,1-.637-.234A.834.834,0,0,1,61.582,50.3ZM65.074,56.7a4.993,4.993,0,0,1,.488-2.234,3.643,3.643,0,0,1,1.359-1.531,3.7,3.7,0,0,1,1.988-.539,3.565,3.565,0,0,1,2.793,1.2,4.6,4.6,0,0,1,1.066,3.18v.1a5.036,5.036,0,0,1-.473,2.215,3.589,3.589,0,0,1-1.352,1.527,3.743,3.743,0,0,1-2.02.547,3.556,3.556,0,0,1-2.785-1.2A4.575,4.575,0,0,1,65.074,56.8Zm1.453.172a3.616,3.616,0,0,0,.652,2.258,2.211,2.211,0,0,0,3.5-.012,3.955,3.955,0,0,0,.648-2.418,3.61,3.61,0,0,0-.66-2.254,2.1,2.1,0,0,0-1.754-.863,2.075,2.075,0,0,0-1.727.852A3.925,3.925,0,0,0,66.527,56.867Zm7.7-.164a4.952,4.952,0,0,1,.922-3.129,3.137,3.137,0,0,1,4.766-.168V49h1.445V61H80.035l-.07-.906a2.943,2.943,0,0,1-2.414,1.063,2.887,2.887,0,0,1-2.395-1.2,5.008,5.008,0,0,1-.926-3.141Zm1.445.164a3.749,3.749,0,0,0,.594,2.25,1.92,1.92,0,0,0,1.641.813A2.108,2.108,0,0,0,79.918,58.7V54.813a2.125,2.125,0,0,0-1.992-1.2,1.929,1.929,0,0,0-1.656.82A4.128,4.128,0,0,0,75.676,56.867ZM85.176,61H83.73V52.547h1.445ZM83.613,50.3a.863.863,0,0,1,.215-.594.807.807,0,0,1,.637-.242.819.819,0,0,1,.641.242.854.854,0,0,1,.219.594.826.826,0,0,1-.219.586.834.834,0,0,1-.641.234.821.821,0,0,1-.637-.234A.834.834,0,0,1,83.613,50.3ZM91,61.156a3.693,3.693,0,0,1-2.8-1.129,4.19,4.19,0,0,1-1.078-3.02v-.266A5.073,5.073,0,0,1,87.6,54.5a3.748,3.748,0,0,1,1.344-1.547,3.378,3.378,0,0,1,1.871-.559,3.166,3.166,0,0,1,2.563,1.086,4.7,4.7,0,0,1,.914,3.109v.6H88.566a3,3,0,0,0,.73,2.02,2.3,2.3,0,0,0,1.777.77,2.517,2.517,0,0,0,1.3-.312,3.259,3.259,0,0,0,.93-.828l.883.688A3.55,3.55,0,0,1,91,61.156Zm-.18-7.578a1.928,1.928,0,0,0-1.469.637A3.1,3.1,0,0,0,88.613,56h4.234v-.109a2.753,2.753,0,0,0-.594-1.707A1.815,1.815,0,0,0,90.816,53.578Zm10.07,5.18a1.064,1.064,0,0,0-.441-.91,4.249,4.249,0,0,0-1.539-.559,7.277,7.277,0,0,1-1.742-.562,2.479,2.479,0,0,1-.953-.781,1.869,1.869,0,0,1-.309-1.078,2.193,2.193,0,0,1,.879-1.758,3.432,3.432,0,0,1,2.246-.719,3.532,3.532,0,0,1,2.332.742,2.357,2.357,0,0,1,.895,1.9H100.8a1.3,1.3,0,0,0-.5-1.023,1.888,1.888,0,0,0-1.27-.43,1.976,1.976,0,0,0-1.234.344,1.082,1.082,0,0,0-.445.9.877.877,0,0,0,.414.789,5.1,5.1,0,0,0,1.5.508,7.8,7.8,0,0,1,1.754.578,2.558,2.558,0,0,1,1,.809,1.988,1.988,0,0,1,.324,1.152,2.163,2.163,0,0,1-.906,1.816,3.8,3.8,0,0,1-2.352.684,4.257,4.257,0,0,1-1.8-.359,2.922,2.922,0,0,1-1.223-1,2.42,2.42,0,0,1-.441-1.395h1.445a1.5,1.5,0,0,0,.582,1.152,2.258,2.258,0,0,0,1.434.426,2.331,2.331,0,0,0,1.316-.332A1.02,1.02,0,0,0,100.887,58.758Zm6.836,2.4a3.693,3.693,0,0,1-2.8-1.129,4.19,4.19,0,0,1-1.078-3.02v-.266a5.073,5.073,0,0,1,.48-2.246,3.748,3.748,0,0,1,1.344-1.547,3.378,3.378,0,0,1,1.871-.559,3.166,3.166,0,0,1,2.563,1.086,4.7,4.7,0,0,1,.914,3.109v.6h-5.727a3,3,0,0,0,.73,2.02,2.3,2.3,0,0,0,1.777.77,2.517,2.517,0,0,0,1.3-.312,3.259,3.259,0,0,0,.93-.828l.883.688A3.55,3.55,0,0,1,107.723,61.156Zm-.18-7.578a1.928,1.928,0,0,0-1.469.637A3.1,3.1,0,0,0,105.34,56h4.234v-.109a2.753,2.753,0,0,0-.594-1.707A1.815,1.815,0,0,0,107.543,53.578ZM114.262,61h-1.445V49h1.445Zm-70,41.023H39.492L38.422,105H36.875l4.344-11.375h1.313L46.883,105H45.344ZM39.945,100.8h3.867l-1.937-5.32Zm9.813,4.2H48.313V93h1.445Zm5.7-1.023a2.082,2.082,0,0,0,1.352-.469,1.649,1.649,0,0,0,.641-1.172H58.82a2.621,2.621,0,0,1-.5,1.383,3.293,3.293,0,0,1-1.23,1.047,3.55,3.55,0,0,1-1.629.391A3.482,3.482,0,0,1,52.715,104a4.59,4.59,0,0,1-1.02-3.152v-.242a5.089,5.089,0,0,1,.453-2.2,3.451,3.451,0,0,1,1.3-1.492,3.7,3.7,0,0,1,2-.531,3.39,3.39,0,0,1,2.363.852,3.043,3.043,0,0,1,1,2.211H57.453a1.992,1.992,0,0,0-.621-1.348,1.932,1.932,0,0,0-1.379-.527,2.023,2.023,0,0,0-1.707.793,3.724,3.724,0,0,0-.605,2.293v.273a3.65,3.65,0,0,0,.6,2.25A2.033,2.033,0,0,0,55.461,103.977Zm4.6-3.281a4.993,4.993,0,0,1,.488-2.234A3.642,3.642,0,0,1,61.91,96.93a3.7,3.7,0,0,1,1.988-.539,3.565,3.565,0,0,1,2.793,1.2,4.6,4.6,0,0,1,1.066,3.18v.1a5.036,5.036,0,0,1-.473,2.215,3.589,3.589,0,0,1-1.352,1.527,3.743,3.743,0,0,1-2.02.547,3.556,3.556,0,0,1-2.785-1.2,4.575,4.575,0,0,1-1.066-3.164Zm1.453.172a3.616,3.616,0,0,0,.652,2.258,2.211,2.211,0,0,0,3.5-.012,3.955,3.955,0,0,0,.648-2.418,3.61,3.61,0,0,0-.66-2.254,2.1,2.1,0,0,0-1.754-.863,2.075,2.075,0,0,0-1.727.852A3.925,3.925,0,0,0,61.516,100.867Zm9.5-3.3a3.073,3.073,0,0,1,2.5-1.18q2.68,0,2.7,3.023V105H74.773V99.406a1.946,1.946,0,0,0-.418-1.352,1.675,1.675,0,0,0-1.277-.437,2.086,2.086,0,0,0-1.234.375,2.546,2.546,0,0,0-.828.984V105H69.57V93h1.445ZM78,100.7a4.993,4.993,0,0,1,.488-2.234,3.643,3.643,0,0,1,1.359-1.531,3.7,3.7,0,0,1,1.988-.539,3.565,3.565,0,0,1,2.793,1.2,4.6,4.6,0,0,1,1.066,3.18v.1a5.036,5.036,0,0,1-.473,2.215,3.589,3.589,0,0,1-1.352,1.527,3.743,3.743,0,0,1-2.02.547,3.556,3.556,0,0,1-2.785-1.2A4.575,4.575,0,0,1,78,100.8Zm1.453.172a3.616,3.616,0,0,0,.652,2.258,2.211,2.211,0,0,0,3.5-.012,3.955,3.955,0,0,0,.648-2.418,3.61,3.61,0,0,0-.66-2.254,2.1,2.1,0,0,0-1.754-.863,2.075,2.075,0,0,0-1.727.852A3.925,3.925,0,0,0,79.453,100.867ZM89.078,105H87.633V93h1.445Zm9.781.156a3.693,3.693,0,0,1-2.8-1.129,4.19,4.19,0,0,1-1.078-3.02v-.266a5.073,5.073,0,0,1,.48-2.246,3.748,3.748,0,0,1,1.344-1.547,3.378,3.378,0,0,1,1.871-.559,3.166,3.166,0,0,1,2.563,1.086,4.7,4.7,0,0,1,.914,3.109v.6H96.43a3,3,0,0,0,.73,2.02,2.3,2.3,0,0,0,1.777.77,2.517,2.517,0,0,0,1.3-.312,3.259,3.259,0,0,0,.93-.828l.883.688A3.55,3.55,0,0,1,98.859,105.156Zm-.18-7.578a1.928,1.928,0,0,0-1.469.637A3.1,3.1,0,0,0,96.477,100h4.234v-.109a2.753,2.753,0,0,0-.594-1.707A1.815,1.815,0,0,0,98.68,97.578Zm.7-4.578h1.75l-2.094,2.3-1.164,0Zm6.406,1.5v2.047h1.578v1.117h-1.578v5.249a1.173,1.173,0,0,0,.211.763.888.888,0,0,0,.719.254,3.5,3.5,0,0,0,.688-.094V105a4.215,4.215,0,0,1-1.109.155,1.8,1.8,0,0,1-1.461-.586,2.517,2.517,0,0,1-.492-1.664V97.664H102.8V96.547h1.539V94.5Zm4.836,10.5H109.18V96.547h1.445Zm-1.562-10.7a.863.863,0,0,1,.215-.594.807.807,0,0,1,.637-.242.819.819,0,0,1,.641.242.854.854,0,0,1,.219.594.826.826,0,0,1-.219.586.834.834,0,0,1-.641.234.821.821,0,0,1-.637-.234A.834.834,0,0,1,109.063,94.3Zm7.266,9.672a2.082,2.082,0,0,0,1.352-.469,1.649,1.649,0,0,0,.641-1.172h1.367a2.621,2.621,0,0,1-.5,1.383,3.293,3.293,0,0,1-1.23,1.047,3.55,3.55,0,0,1-1.629.391A3.482,3.482,0,0,1,113.582,104a4.59,4.59,0,0,1-1.02-3.152v-.242a5.089,5.089,0,0,1,.453-2.2,3.451,3.451,0,0,1,1.3-1.492,3.7,3.7,0,0,1,2-.531,3.39,3.39,0,0,1,2.363.852,3.043,3.043,0,0,1,1,2.211H118.32a1.992,1.992,0,0,0-.621-1.348,1.932,1.932,0,0,0-1.379-.527,2.023,2.023,0,0,0-1.707.793,3.724,3.724,0,0,0-.605,2.293v.273a3.65,3.65,0,0,0,.6,2.25A2.033,2.033,0,0,0,116.328,103.977Zm4.6-3.281a4.993,4.993,0,0,1,.488-2.234,3.643,3.643,0,0,1,1.359-1.531,3.7,3.7,0,0,1,1.988-.539,3.565,3.565,0,0,1,2.793,1.2,4.6,4.6,0,0,1,1.066,3.18v.1a5.036,5.036,0,0,1-.473,2.215,3.589,3.589,0,0,1-1.352,1.527,3.743,3.743,0,0,1-2.02.547,3.556,3.556,0,0,1-2.785-1.2,4.575,4.575,0,0,1-1.066-3.164Zm1.453.172a3.616,3.616,0,0,0,.652,2.258,2.211,2.211,0,0,0,3.5-.012,3.955,3.955,0,0,0,.648-2.418,3.61,3.61,0,0,0-.66-2.254,2.1,2.1,0,0,0-1.754-.863,2.075,2.075,0,0,0-1.727.852A3.925,3.925,0,0,0,122.383,100.867Z" transform="translate(749 488)" fill="#12263f"/>
      <path id="Trazado_721449" data-name="Trazado 721449" d="M4.444,10H3.536V3.979l-1.821.669v-.82L4.3,2.856h.142Zm7.236-6.6L8.736,10H7.789l2.935-6.367H6.876V2.891h4.8Z" transform="translate(1199 187)" fill="#12263f"/>
      <path id="Trazado_721450" data-name="Trazado 721450" d="M5.595,4.746a1.651,1.651,0,0,1-.281.947,1.91,1.91,0,0,1-.759.649,2.038,2.038,0,0,1,.881.7,1.757,1.757,0,0,1,.325,1.04,1.858,1.858,0,0,1-.623,1.47A2.392,2.392,0,0,1,3.5,10.1a2.381,2.381,0,0,1-1.643-.549,1.866,1.866,0,0,1-.618-1.467,1.81,1.81,0,0,1,.315-1.04,1.96,1.96,0,0,1,.872-.7,1.863,1.863,0,0,1-.747-.649,1.674,1.674,0,0,1-.273-.942A1.838,1.838,0,0,1,1.981,3.32,2.161,2.161,0,0,1,3.5,2.793a2.163,2.163,0,0,1,1.516.527A1.834,1.834,0,0,1,5.595,4.746ZM4.857,8.062a1.31,1.31,0,0,0-.378-.972,1.342,1.342,0,0,0-.989-.376,1.318,1.318,0,0,0-.979.371,1.325,1.325,0,0,0-.369.977,1.262,1.262,0,0,0,.359.952,1.378,1.378,0,0,0,1,.347,1.373,1.373,0,0,0,1-.349A1.259,1.259,0,0,0,4.857,8.062ZM3.5,3.535a1.166,1.166,0,0,0-.862.33,1.211,1.211,0,0,0-.33.9,1.2,1.2,0,0,0,.325.876,1.152,1.152,0,0,0,.867.334,1.152,1.152,0,0,0,.867-.334,1.2,1.2,0,0,0,.325-.876,1.205,1.205,0,0,0-.337-.884A1.149,1.149,0,0,0,3.5,3.535Z" transform="translate(1180 232)" fill="#12263f"/>
      <path id="Trazado_721451" data-name="Trazado 721451" d="M4.444,10H3.536V3.979l-1.821.669v-.82L4.3,2.856h.142ZM11.4,4.746a1.651,1.651,0,0,1-.281.947,1.91,1.91,0,0,1-.759.649,2.038,2.038,0,0,1,.881.7,1.757,1.757,0,0,1,.325,1.04,1.858,1.858,0,0,1-.623,1.47,2.392,2.392,0,0,1-1.638.547,2.381,2.381,0,0,1-1.643-.549,1.866,1.866,0,0,1-.618-1.467,1.81,1.81,0,0,1,.315-1.04,1.96,1.96,0,0,1,.872-.7,1.863,1.863,0,0,1-.747-.649,1.674,1.674,0,0,1-.273-.942A1.838,1.838,0,0,1,7.789,3.32a2.161,2.161,0,0,1,1.519-.527,2.163,2.163,0,0,1,1.516.527A1.834,1.834,0,0,1,11.4,4.746Zm-.737,3.315a1.31,1.31,0,0,0-.378-.972A1.342,1.342,0,0,0,9.3,6.714,1.271,1.271,0,0,0,7.95,8.062a1.262,1.262,0,0,0,.359.952,1.378,1.378,0,0,0,1,.347,1.373,1.373,0,0,0,1-.349A1.259,1.259,0,0,0,10.665,8.062ZM9.308,3.535a1.166,1.166,0,0,0-.862.33,1.211,1.211,0,0,0-.33.9,1.2,1.2,0,0,0,.325.876,1.152,1.152,0,0,0,.867.334,1.152,1.152,0,0,0,.867-.334,1.2,1.2,0,0,0,.325-.876,1.205,1.205,0,0,0-.337-.884A1.149,1.149,0,0,0,9.308,3.535Z" transform="translate(1199 232)" fill="#12263f"/>
      <path id="Trazado_721453" data-name="Trazado 721453" d="M4.444,10H3.536V3.979l-1.821.669v-.82L4.3,2.856h.142Zm7.3,0H7.091V9.351L9.552,6.616a5.847,5.847,0,0,0,.754-1.008,1.683,1.683,0,0,0,.208-.8,1.276,1.276,0,0,0-.337-.913,1.178,1.178,0,0,0-.9-.356,1.4,1.4,0,0,0-1.047.383,1.464,1.464,0,0,0-.374,1.067h-.9A2.1,2.1,0,0,1,7.586,3.4a2.344,2.344,0,0,1,1.692-.605,2.252,2.252,0,0,1,1.567.52A1.774,1.774,0,0,1,11.422,4.7a4.067,4.067,0,0,1-1.338,2.5L8.18,9.263h3.569Z" transform="translate(1177 276)" fill="#12263f"/>
      <path id="Trazado_721452" data-name="Trazado 721452" d="M6.134,10H1.476V9.351L3.937,6.616a5.847,5.847,0,0,0,.754-1.008A1.683,1.683,0,0,0,4.9,4.8a1.276,1.276,0,0,0-.337-.913,1.178,1.178,0,0,0-.9-.356,1.4,1.4,0,0,0-1.047.383,1.464,1.464,0,0,0-.374,1.067h-.9A2.1,2.1,0,0,1,1.971,3.4a2.344,2.344,0,0,1,1.692-.605,2.252,2.252,0,0,1,1.567.52A1.774,1.774,0,0,1,5.807,4.7,4.067,4.067,0,0,1,4.469,7.2l-1.9,2.065H6.134Zm4.5-7.114v.767H10.47a2.378,2.378,0,0,0-1.68.625,2.6,2.6,0,0,0-.723,1.7A1.928,1.928,0,0,1,9.6,5.337a1.844,1.844,0,0,1,1.482.654,2.524,2.524,0,0,1,.554,1.689,2.516,2.516,0,0,1-.6,1.758,2.06,2.06,0,0,1-1.6.659,2.029,2.029,0,0,1-1.655-.784,3.106,3.106,0,0,1-.635-2.019V6.948a4.68,4.68,0,0,1,.837-3,3.076,3.076,0,0,1,2.493-1.062Zm-1.187,3.2a1.518,1.518,0,0,0-1.4.977V7.4a2.332,2.332,0,0,0,.4,1.416,1.185,1.185,0,0,0,.986.537,1.148,1.148,0,0,0,.959-.449,1.864,1.864,0,0,0,.349-1.177,1.865,1.865,0,0,0-.354-1.184A1.135,1.135,0,0,0,9.449,6.089Z" transform="translate(1201 276)" fill="#12263f"/>
      <path id="Trazado_721454" data-name="Trazado 721454" d="M3.821,10H2.913V3.979l-1.821.669v-.82l2.588-.972h.142Zm6.46-2.388h.986V8.35h-.986V10H9.373V8.35H6.135V7.817L9.319,2.891h.962Zm-3.12,0H9.373V4.126l-.107.2Zm5.034,1.914a.566.566,0,0,1,.139-.391.53.53,0,0,1,.417-.156.546.546,0,0,1,.422.156.554.554,0,0,1,.144.391.524.524,0,0,1-.144.376.556.556,0,0,1-.422.151.5.5,0,0,1-.557-.527Zm6.333-1.914h.986V8.35h-.986V10H17.62V8.35H14.382V7.817l3.184-4.927h.962Zm-3.12,0H17.62V4.126l-.107.2Z" transform="translate(1173 319)" fill="#12263f"/>
      <path id="Trazado_721455" data-name="Trazado 721455" d="M5.51,10H.852V9.351L3.313,6.616a5.847,5.847,0,0,0,.754-1.008,1.683,1.683,0,0,0,.208-.8,1.276,1.276,0,0,0-.337-.913,1.178,1.178,0,0,0-.9-.356,1.4,1.4,0,0,0-1.047.383,1.464,1.464,0,0,0-.374,1.067h-.9A2.1,2.1,0,0,1,1.348,3.4,2.344,2.344,0,0,1,3.04,2.793a2.252,2.252,0,0,1,1.567.52A1.774,1.774,0,0,1,5.183,4.7,4.067,4.067,0,0,1,3.845,7.2l-1.9,2.065H5.51Zm4.771-2.388h.986V8.35h-.986V10H9.373V8.35H6.135V7.817L9.319,2.891h.962Zm-3.12,0H9.373V4.126l-.107.2Zm5.034,1.914a.566.566,0,0,1,.139-.391.53.53,0,0,1,.417-.156.546.546,0,0,1,.422.156.554.554,0,0,1,.144.391.524.524,0,0,1-.144.376.556.556,0,0,1-.422.151.5.5,0,0,1-.557-.527Zm5.981-2.651a2.21,2.21,0,0,1-.676.542,1.835,1.835,0,0,1-.862.205,1.894,1.894,0,0,1-1.072-.3,1.968,1.968,0,0,1-.706-.852,2.9,2.9,0,0,1-.249-1.213,2.96,2.96,0,0,1,.271-1.284,1.991,1.991,0,0,1,.769-.874,2.193,2.193,0,0,1,1.162-.3,1.985,1.985,0,0,1,1.663.789,3.44,3.44,0,0,1,.608,2.151V6a4.6,4.6,0,0,1-.82,3.03A3.152,3.152,0,0,1,15.789,10h-.176V9.238h.19a2.487,2.487,0,0,0,1.719-.582A2.5,2.5,0,0,0,18.176,6.875Zm-1.392,0a1.4,1.4,0,0,0,.837-.278,1.641,1.641,0,0,0,.559-.688V5.547A2.486,2.486,0,0,0,17.8,4.1,1.179,1.179,0,0,0,15.862,4a1.883,1.883,0,0,0-.361,1.2,1.96,1.96,0,0,0,.349,1.2A1.105,1.105,0,0,0,16.785,6.875Z" transform="translate(1205 319)" fill="#12263f"/>
      <path id="Trazado_721456" data-name="Trazado 721456" d="M8.1,7.612h.986V8.35H8.1V10H7.188V8.35H3.951V7.817L7.135,2.891H8.1Zm-3.12,0H7.188V4.126l-.107.2Z" transform="translate(1174 364)" fill="#12263f"/>
      <path id="Trazado_721457" data-name="Trazado 721457" d="M4.444,10H3.536V3.979l-1.821.669v-.82L4.3,2.856h.142Zm7.1-3.032a4.131,4.131,0,0,1-.542,2.358,1.928,1.928,0,0,1-1.694.771,1.942,1.942,0,0,1-1.685-.754A3.921,3.921,0,0,1,7.062,7.09V5.884A4.039,4.039,0,0,1,7.6,3.555a1.942,1.942,0,0,1,1.7-.762,1.96,1.96,0,0,1,1.689.735A3.9,3.9,0,0,1,11.549,5.8Zm-.9-1.235a3.31,3.31,0,0,0-.322-1.672A1.109,1.109,0,0,0,9.3,3.535a1.1,1.1,0,0,0-1.011.522,3.232,3.232,0,0,0-.327,1.606V7.109a3.363,3.363,0,0,0,.334,1.7,1.107,1.107,0,0,0,1.013.549,1.092,1.092,0,0,0,.994-.518,3.241,3.241,0,0,0,.339-1.631Z" transform="translate(1198 364)" fill="#12263f"/>
      <path id="Trazado_721459" data-name="Trazado 721459" d="M5.6,6.006h.679a1.492,1.492,0,0,0,1.006-.337,1.126,1.126,0,0,0,.366-.884A1.1,1.1,0,0,0,6.4,3.535a1.3,1.3,0,0,0-.935.334,1.171,1.171,0,0,0-.349.886h-.9a1.814,1.814,0,0,1,.618-1.4A2.25,2.25,0,0,1,6.4,2.793a2.224,2.224,0,0,1,1.577.532A1.923,1.923,0,0,1,8.551,4.8a1.561,1.561,0,0,1-.3.9,1.813,1.813,0,0,1-.818.649,1.747,1.747,0,0,1,.906.615,1.709,1.709,0,0,1,.32,1.05,1.939,1.939,0,0,1-.625,1.519,2.34,2.34,0,0,1-1.626.562,2.4,2.4,0,0,1-1.628-.542,1.8,1.8,0,0,1-.627-1.431H5.06a1.162,1.162,0,0,0,.366.9,1.393,1.393,0,0,0,.981.337,1.367,1.367,0,0,0,1-.342,1.317,1.317,0,0,0,.347-.981,1.2,1.2,0,0,0-.381-.952,1.659,1.659,0,0,0-1.1-.342H5.6Z" transform="translate(1175 408)" fill="#12263f"/>
      <path id="Trazado_721458" data-name="Trazado 721458" d="M8.595,4.746a1.651,1.651,0,0,1-.281.947,1.91,1.91,0,0,1-.759.649,2.038,2.038,0,0,1,.881.7,1.757,1.757,0,0,1,.325,1.04,1.858,1.858,0,0,1-.623,1.47A2.392,2.392,0,0,1,6.5,10.1a2.381,2.381,0,0,1-1.643-.549,1.866,1.866,0,0,1-.618-1.467,1.81,1.81,0,0,1,.315-1.04,1.96,1.96,0,0,1,.872-.7,1.863,1.863,0,0,1-.747-.649,1.674,1.674,0,0,1-.273-.942A1.838,1.838,0,0,1,4.981,3.32,2.161,2.161,0,0,1,6.5,2.793a2.163,2.163,0,0,1,1.516.527A1.834,1.834,0,0,1,8.595,4.746ZM7.857,8.062a1.31,1.31,0,0,0-.378-.972,1.342,1.342,0,0,0-.989-.376A1.271,1.271,0,0,0,5.143,8.062a1.262,1.262,0,0,0,.359.952,1.378,1.378,0,0,0,1,.347,1.373,1.373,0,0,0,1-.349A1.259,1.259,0,0,0,7.857,8.062ZM6.5,3.535a1.166,1.166,0,0,0-.862.33,1.211,1.211,0,0,0-.33.9,1.2,1.2,0,0,0,.325.876,1.152,1.152,0,0,0,.867.334,1.152,1.152,0,0,0,.867-.334,1.2,1.2,0,0,0,.325-.876,1.205,1.205,0,0,0-.337-.884A1.149,1.149,0,0,0,6.5,3.535Z" transform="translate(1196 408)" fill="#12263f"/>
      <path id="Trazado_721460" data-name="Trazado 721460" d="M5.6,6.006h.679a1.492,1.492,0,0,0,1.006-.337,1.126,1.126,0,0,0,.366-.884A1.1,1.1,0,0,0,6.4,3.535a1.3,1.3,0,0,0-.935.334,1.171,1.171,0,0,0-.349.886h-.9a1.814,1.814,0,0,1,.618-1.4A2.25,2.25,0,0,1,6.4,2.793a2.224,2.224,0,0,1,1.577.532A1.923,1.923,0,0,1,8.551,4.8a1.561,1.561,0,0,1-.3.9,1.813,1.813,0,0,1-.818.649,1.747,1.747,0,0,1,.906.615,1.709,1.709,0,0,1,.32,1.05,1.939,1.939,0,0,1-.625,1.519,2.34,2.34,0,0,1-1.626.562,2.4,2.4,0,0,1-1.628-.542,1.8,1.8,0,0,1-.627-1.431H5.06a1.162,1.162,0,0,0,.366.9,1.393,1.393,0,0,0,.981.337,1.367,1.367,0,0,0,1-.342,1.317,1.317,0,0,0,.347-.981,1.2,1.2,0,0,0-.381-.952,1.659,1.659,0,0,0-1.1-.342H5.6Z" transform="translate(1175 452)" fill="#12263f"/>
      <path id="Trazado_721461" data-name="Trazado 721461" d="M7.828,2.886v.767H7.662a2.378,2.378,0,0,0-1.68.625,2.6,2.6,0,0,0-.723,1.7,1.928,1.928,0,0,1,1.533-.645,1.844,1.844,0,0,1,1.482.654,2.524,2.524,0,0,1,.554,1.689,2.516,2.516,0,0,1-.6,1.758,2.06,2.06,0,0,1-1.6.659,2.029,2.029,0,0,1-1.655-.784,3.106,3.106,0,0,1-.635-2.019V6.948a4.68,4.68,0,0,1,.837-3A3.076,3.076,0,0,1,7.667,2.886Zm-1.187,3.2a1.518,1.518,0,0,0-1.4.977V7.4a2.332,2.332,0,0,0,.4,1.416,1.185,1.185,0,0,0,.986.537A1.148,1.148,0,0,0,7.586,8.9a1.864,1.864,0,0,0,.349-1.177,1.865,1.865,0,0,0-.354-1.184A1.135,1.135,0,0,0,6.642,6.089Z" transform="translate(1196 452)" fill="#12263f"/>
      <path id="Trazado_721462" data-name="Trazado 721462" d="M7.828,2.886v.767H7.662a2.378,2.378,0,0,0-1.68.625,2.6,2.6,0,0,0-.723,1.7,1.928,1.928,0,0,1,1.533-.645,1.844,1.844,0,0,1,1.482.654,2.524,2.524,0,0,1,.554,1.689,2.516,2.516,0,0,1-.6,1.758,2.06,2.06,0,0,1-1.6.659,2.029,2.029,0,0,1-1.655-.784,3.106,3.106,0,0,1-.635-2.019V6.948a4.68,4.68,0,0,1,.837-3A3.076,3.076,0,0,1,7.667,2.886Zm-1.187,3.2a1.518,1.518,0,0,0-1.4.977V7.4a2.332,2.332,0,0,0,.4,1.416,1.185,1.185,0,0,0,.986.537A1.148,1.148,0,0,0,7.586,8.9a1.864,1.864,0,0,0,.349-1.177,1.865,1.865,0,0,0-.354-1.184A1.135,1.135,0,0,0,6.642,6.089Z" transform="translate(1191 493)" fill="#12263f"/>
      <path id="Trazado_721463" data-name="Trazado 721463" d="M3.341,6.006H4.02a1.492,1.492,0,0,0,1.006-.337,1.126,1.126,0,0,0,.366-.884,1.1,1.1,0,0,0-1.245-1.25,1.3,1.3,0,0,0-.935.334,1.171,1.171,0,0,0-.349.886h-.9a1.814,1.814,0,0,1,.618-1.4,2.25,2.25,0,0,1,1.57-.559,2.224,2.224,0,0,1,1.577.532A1.923,1.923,0,0,1,6.295,4.8a1.561,1.561,0,0,1-.3.9,1.813,1.813,0,0,1-.818.649,1.747,1.747,0,0,1,.906.615,1.709,1.709,0,0,1,.32,1.05,1.939,1.939,0,0,1-.625,1.519,2.34,2.34,0,0,1-1.626.562,2.4,2.4,0,0,1-1.628-.542A1.8,1.8,0,0,1,1.9,8.125H2.8a1.162,1.162,0,0,0,.366.9,1.393,1.393,0,0,0,.981.337,1.367,1.367,0,0,0,1-.342A1.317,1.317,0,0,0,5.5,8.037a1.2,1.2,0,0,0-.381-.952,1.659,1.659,0,0,0-1.1-.342H3.341Zm8.2,4.731H7.071V10h4.473Z" transform="translate(1146 537)" fill="#12263f"/>
      <path id="Trazado_721464" data-name="Trazado 721464" d="M5.6,6.006h.679a1.492,1.492,0,0,0,1.006-.337,1.126,1.126,0,0,0,.366-.884A1.1,1.1,0,0,0,6.4,3.535a1.3,1.3,0,0,0-.935.334,1.171,1.171,0,0,0-.349.886h-.9a1.814,1.814,0,0,1,.618-1.4A2.25,2.25,0,0,1,6.4,2.793a2.224,2.224,0,0,1,1.577.532A1.923,1.923,0,0,1,8.551,4.8a1.561,1.561,0,0,1-.3.9,1.813,1.813,0,0,1-.818.649,1.747,1.747,0,0,1,.906.615,1.709,1.709,0,0,1,.32,1.05,1.939,1.939,0,0,1-.625,1.519,2.34,2.34,0,0,1-1.626.562,2.4,2.4,0,0,1-1.628-.542,1.8,1.8,0,0,1-.627-1.431H5.06a1.162,1.162,0,0,0,.366.9,1.393,1.393,0,0,0,.981.337,1.367,1.367,0,0,0,1-.342,1.317,1.317,0,0,0,.347-.981,1.2,1.2,0,0,0-.381-.952,1.659,1.659,0,0,0-1.1-.342H5.6Z" transform="translate(1240 537)" fill="#12263f"/>
      <text id="_2" data-name="2" transform="translate(1160 584)" fill="#12263f" font-size="10" font-family="Roboto-Regular, Roboto"><tspan x="-2.808" y="10">2</tspan></text>
      <path id="Trazado_721465" data-name="Trazado 721465" d="M4.7,6.436,5.06,2.891H8.7v.835H5.826L5.611,5.664A2.294,2.294,0,0,1,6.8,5.356,1.961,1.961,0,0,1,8.341,6a2.516,2.516,0,0,1,.571,1.736,2.429,2.429,0,0,1-.593,1.731,2.162,2.162,0,0,1-1.658.632,2.247,2.247,0,0,1-1.538-.522A2.085,2.085,0,0,1,4.444,8.13H5.3a1.435,1.435,0,0,0,.435.92,1.351,1.351,0,0,0,.928.31,1.219,1.219,0,0,0,.989-.43,1.8,1.8,0,0,0,.359-1.187A1.649,1.649,0,0,0,7.621,6.6a1.32,1.32,0,0,0-1.033-.432,1.489,1.489,0,0,0-.928.259l-.239.2Z" transform="translate(1180 584)" fill="#12263f"/>
    </g>
  </g>
</svg>
