<svg id="Grupo_956858" data-name="Grupo 956858" xmlns="http://www.w3.org/2000/svg" xmlns:xlink="http://www.w3.org/1999/xlink" width="65.495" height="91.178" viewBox="0 0 65.495 91.178">
  <defs>
    <clipPath id="clip-path">
      <rect id="Rectángulo_339737" data-name="Rectángulo 339737" width="65.495" height="91.177" fill="none"/>
    </clipPath>
  </defs>
  <g id="Grupo_956857" data-name="Grupo 956857" clip-path="url(#clip-path)">
    <path id="Trazado_721007" data-name="Trazado 721007" d="M192.013,179.1a10.349,10.349,0,1,0-15.4,9.028l.215-6.866a5.09,5.09,0,0,1,5.091-5.088h.289a4.009,4.009,0,0,1,4.009,4.009v8.2a10.344,10.344,0,0,0,5.8-9.283" transform="translate(-148.917 -146.692)" fill="#faedc0"/>
    <path id="Trazado_721008" data-name="Trazado 721008" d="M106.809,229.525a4.009,4.009,0,0,0-4.009-4.009h-.289a5.09,5.09,0,0,0-5.091,5.088l-.215,6.866L96.729,252.6c-.108.466-.17,10.984-.17,10.984-.889-.906-1.879-1.943-2.768-2.936a14.929,14.929,0,0,0-8.425-4.165,4.2,4.2,0,0,0-3.034.54,6.284,6.284,0,0,0-.629.551c-1.308,1.288-2.3,3.37-1.382,4.9a5.232,5.232,0,0,0,1.795,1.573,12.609,12.609,0,0,1,3.775,2.834c2.026,2.592,6.718,8.387,9.6,11.48.6.373,1.869,1.639,2.469,1.96a22.442,22.442,0,0,1,3.821,2.849,21.913,21.913,0,0,0,12.265,4.041c4.041,0,7.712.242,10.426-2.145h.145l.072-.18a13.405,13.405,0,0,0,4.476-9.9V256.454c0-.908-.2-3.95-2.758-4.864a4.527,4.527,0,0,0-3.382.156l-.232.01-.072,0a3.887,3.887,0,0,0-3.2-3.036,5.351,5.351,0,0,0-4.187.849,4.4,4.4,0,0,0-4.7-2.5,5.46,5.46,0,0,0-3.821,2.047V229.525Z" transform="translate(-69.51 -196.031)" fill="#80cab6"/>
    <path id="Trazado_721009" data-name="Trazado 721009" d="M55.84,49.592l2.054,2.286a.941.941,0,0,0,1.459-.064A32.727,32.727,0,0,0,32.747,0a33.862,33.862,0,0,0-3.738.208A32.73,32.73,0,0,0,6.139,51.814a.944.944,0,0,0,1.462.067L9.652,49.6a.936.936,0,0,0,.067-1.16,27.885,27.885,0,1,1,46.049,0,.937.937,0,0,0,.071,1.16" transform="translate(0)" fill="#80cab6"/>
    <path id="Trazado_721010" data-name="Trazado 721010" d="M133.326,126.041l2.175,2.419a.947.947,0,0,0,1.55-.21,19.412,19.412,0,0,0,2.1-8.809,19.708,19.708,0,1,0-39.416,0,19.43,19.43,0,0,0,2.094,8.809.949.949,0,0,0,1.553.21l2.172-2.419a.942.942,0,0,0,.163-.992,14.734,14.734,0,0,1-1.116-5.607,14.839,14.839,0,1,1,28.568,5.607.943.943,0,0,0,.161.992" transform="translate(-86.692 -86.694)" fill="#f1cc4b"/>
  </g>
</svg>
