<svg id="Grupo_956889" data-name="Grupo 956889" xmlns="http://www.w3.org/2000/svg" xmlns:xlink="http://www.w3.org/1999/xlink" width="60" height="60" viewBox="0 0 60 60">
  <defs>
    <clipPath id="clip-path">
      <rect id="Rectángulo_339760" data-name="Rectángulo 339760" width="60" height="60" fill="none"/>
    </clipPath>
  </defs>
  <g id="Grupo_956888" data-name="Grupo 956888" clip-path="url(#clip-path)">
    <path id="Trazado_721164" data-name="Trazado 721164" d="M140.805,42.127c.274-.43.52-.881.829-1.283.342-.444.743-.844,1.118-1.264.627.476.963.445,1.571-.161,3.9-3.895,7.788-7.8,11.707-11.682a10.377,10.377,0,0,1,17.11,3.829,9.636,9.636,0,0,1-2.173,10.526c-4.472,4.652-9.086,9.17-13.684,13.7a9.48,9.48,0,0,1-6.628,2.771,10.126,10.126,0,0,1-9.531-5.446c-.331-.575-.7-.935-1.4-.757l-.608-2.028c.4-.4.771-.829,1.191-1.2a5.333,5.333,0,0,1,2.6-1.374l.129,1.865c-.74.434-.837.7-.543,1.488a8.242,8.242,0,0,0,13.415,3.074c4.551-4.408,8.992-8.931,13.456-13.428a7.783,7.783,0,0,0,2.266-5.225,8.266,8.266,0,0,0-14.119-6.3q-4.723,4.682-9.412,9.4c-.586.586-.614.84-.2,1.541l-1.511,1.571c-1.173,0-2.349-.042-3.519.021a16.115,16.115,0,0,0-2.064.369" transform="translate(-117.231 -20.79)" fill="#32b7ec"/>
    <path id="Trazado_721165" data-name="Trazado 721165" d="M56.643,160.967l-1.984,2.38a1.224,1.224,0,0,0-1.647.362Q47.269,169.5,41.48,175.238a9.971,9.971,0,0,1-9.47,2.912,9.906,9.906,0,0,1-7.837-7.021,9.639,9.639,0,0,1,2.311-10.19c4.471-4.629,9.068-9.137,13.646-13.66a9.439,9.439,0,0,1,6.269-2.774,10.125,10.125,0,0,1,9.925,5.454,1.181,1.181,0,0,0,1.365.742l.61,2.016a6.988,6.988,0,0,1-3.78,2.591l-.131-1.861c.741-.409.854-.7.566-1.477a8.274,8.274,0,0,0-13.506-3.05q-6.728,6.638-13.364,13.368a7.71,7.71,0,0,0-2.2,6.855,7.889,7.889,0,0,0,5.618,6.7,7.854,7.854,0,0,0,8.4-2.012c3.177-3.1,6.287-6.261,9.423-9.4.58-.58.613-.84.225-1.551l1.528-1.551c1.167-.005,2.336.028,3.5-.031a18.045,18.045,0,0,0,2.058-.333" transform="translate(-19.893 -121.758)" fill="#adc46c"/>
    <path id="Trazado_721166" data-name="Trazado 721166" d="M154.113,49.625a18.049,18.049,0,0,1-2.058.333c-1.164.059-2.333.025-3.5.031-.17-.043-.339-.092-.511-.128a12.232,12.232,0,0,1-8.507-6.275c-.427-.762-.35-1.076.318-1.6.7-.177,1.07.182,1.4.757a10.127,10.127,0,0,0,9.531,5.446,9.48,9.48,0,0,0,6.628-2.771c4.6-4.529,9.212-9.046,13.684-13.7a9.636,9.636,0,0,0,2.173-10.526,10.377,10.377,0,0,0-17.11-3.829c-3.919,3.877-7.806,7.787-11.707,11.681-.608.607-.944.638-1.571.161-.373-.627-.353-.9.146-1.4,3.953-3.954,7.858-7.957,11.88-11.841a11.658,11.658,0,0,1,12.48-2.894,11.7,11.7,0,0,1,8.227,9.693,11.434,11.434,0,0,1-3.165,10.285c-4.5,4.628-9.106,9.148-13.687,13.7a11.208,11.208,0,0,1-4.053,2.54c-.163.061-.316.149-.474.224l-.126.117Z" transform="translate(-117.364 -10.416)" fill="#030404"/>
    <path id="Trazado_721167" data-name="Trazado 721167" d="M47.785,141.086a1.182,1.182,0,0,1-1.365-.742,10.125,10.125,0,0,0-9.925-5.454,9.44,9.44,0,0,0-6.269,2.774c-4.579,4.523-9.176,9.031-13.646,13.66a9.639,9.639,0,0,0-2.311,10.19,9.906,9.906,0,0,0,7.837,7.021,9.971,9.971,0,0,0,9.47-2.912q5.792-5.738,11.532-11.529a1.224,1.224,0,0,1,1.647-.362c.425.88.406,1-.284,1.688q-5.768,5.764-11.536,11.528a11.7,11.7,0,0,1-8.1,3.67c-6.058.166-11.13-3.386-12.579-9.315a11.784,11.784,0,0,1,3.3-11.661c3.887-3.939,7.848-7.806,11.726-11.754a16.265,16.265,0,0,1,6.136-4.321l.147-.1,0,.016a16.118,16.118,0,0,1,2.064-.369c1.17-.062,2.346-.02,3.519-.021.132.035.263.076.4.1a12.18,12.18,0,0,1,8.558,6.242c.445.783.376,1.066-.316,1.651" transform="translate(-9.989 -112.143)" fill="#030303"/>
    <path id="Trazado_721174" data-name="Trazado 721174" d="M149.042,135.536l-.147.1.147-.1" transform="translate(-125.473 -114.215)" fill="#32b7ec"/>
    <path id="Trazado_721175" data-name="Trazado 721175" d="M233.606,248.629l.126-.117-.126.117" transform="translate(-196.858 -209.419)" fill="#326488"/>
    <path id="Trazado_721178" data-name="Trazado 721178" d="M53.414,162.522c-.089.074-.185.141-.267.223q-5.934,5.924-11.863,11.854a6.381,6.381,0,1,0,8.991,9.054c2.357-2.331,4.692-4.684,7.037-7.027q1.145-1.144,2.29-2.287c.617-.614.841-.645,1.591-.235.388.711.355.971-.225,1.551-3.137,3.137-6.247,6.3-9.423,9.4a8.262,8.262,0,0,1-14.023-4.686,7.711,7.711,0,0,1,2.2-6.855q6.63-6.736,13.365-13.368a8.274,8.274,0,0,1,13.506,3.05c.288.774.176,1.068-.566,1.476a1.053,1.053,0,0,1-1.2-.772,8.573,8.573,0,0,0-1.156-1.957,6.159,6.159,0,0,0-6.458-2,5.329,5.329,0,0,0-2.6,1.374c-.42.376-.8.8-1.191,1.2" transform="translate(-31.53 -132.98)" fill="#020303"/>
    <path id="Trazado_721179" data-name="Trazado 721179" d="M172.916,63.007c.119-.1.247-.185.355-.294q5.894-5.881,11.782-11.768a6.38,6.38,0,1,0-8.965-9.077c-3.139,3.1-6.247,6.235-9.37,9.353-.588.587-.836.614-1.54.2-.41-.7-.382-.955.2-1.541q4.7-4.7,9.412-9.4a8.266,8.266,0,0,1,14.119,6.3,7.783,7.783,0,0,1-2.266,5.225c-4.464,4.5-8.9,9.02-13.456,13.428a8.242,8.242,0,0,1-13.416-3.074c-.293-.789-.2-1.054.543-1.488.73-.109,1.033.319,1.275.928a6.318,6.318,0,0,0,7.544,3.794,6.989,6.989,0,0,0,3.78-2.591" transform="translate(-134.509 -32.048)" fill="#020404"/>
  </g>
</svg>
