<svg xmlns="http://www.w3.org/2000/svg" width="283" height="213.875" viewBox="0 0 283 213.875">
  <g id="Grupo_957147" data-name="Grupo 957147" transform="translate(-392 -2375.125)">
    <path id="Trazado_721447" data-name="Trazado 721447" d="M3.359,12.992V17H1.016V5.625H5.453a5.134,5.134,0,0,1,2.254.469A3.454,3.454,0,0,1,9.2,7.426a3.714,3.714,0,0,1,.523,1.965,3.266,3.266,0,0,1-1.145,2.637,4.767,4.767,0,0,1-3.168.965Zm0-1.9H5.453a2.059,2.059,0,0,0,1.418-.437,1.591,1.591,0,0,0,.488-1.25,1.876,1.876,0,0,0-.492-1.352,1.839,1.839,0,0,0-1.359-.531H3.359Zm13.086,2.1a1.44,1.44,0,0,1-1.016-.375,1.206,1.206,0,0,1-.406-.922,1.161,1.161,0,0,1,.418-.922,1.543,1.543,0,0,1,1.043-.359,1.486,1.486,0,0,1,1.035.363,1.258,1.258,0,0,1-.008,1.852A1.549,1.549,0,0,1,16.445,13.2Zm11.4.984,2.578-8.555h2.609L29.07,17H26.625L22.68,5.625h2.6Zm17.273-3.008H38.133V9.328h6.984Zm0,3.383H38.133V12.711h6.984Zm7.531-6.008L52.7,9.609a3.08,3.08,0,0,1,2.531-1.219q2.68,0,2.7,3.023V17H56.484V11.406a1.946,1.946,0,0,0-.418-1.352,1.675,1.675,0,0,0-1.277-.437,2.086,2.086,0,0,0-1.234.375,2.546,2.546,0,0,0-.828.984V17H51.281V8.547Zm12.07,4.469a.829.829,0,0,1-.613-.258.849.849,0,0,1-.254-.617.858.858,0,0,1,.254-.625.829.829,0,0,1,.613-.258.88.88,0,0,1,.883.883.842.842,0,0,1-.258.617A.851.851,0,0,1,64.719,13.016ZM75.9,12.4H73.227V17H71.719V5.625h3.766a4.457,4.457,0,0,1,2.957.875,3.148,3.148,0,0,1,1.035,2.547A3.062,3.062,0,0,1,78.9,10.9a3.428,3.428,0,0,1-1.6,1.18l2.672,4.828V17H78.367Zm-2.672-1.227h2.3a2.6,2.6,0,0,0,1.777-.579,1.959,1.959,0,0,0,.66-1.55,2.062,2.062,0,0,0-.629-1.62,2.663,2.663,0,0,0-1.816-.571h-2.3Zm12.734,1.844a.829.829,0,0,1-.613-.258.849.849,0,0,1-.254-.617.858.858,0,0,1,.254-.625.829.829,0,0,1,.613-.258.88.88,0,0,1,.883.883.842.842,0,0,1-.258.617A.851.851,0,0,1,85.961,13.016Zm14.555-6.164H96.859V17H95.367V6.852H91.719V5.625h8.8Z" transform="translate(479 2369.5)" fill="#12263f"/>
    <path id="Trazado_721448" data-name="Trazado 721448" d="M3.359,12.992V17H1.016V5.625H5.453a5.134,5.134,0,0,1,2.254.469A3.454,3.454,0,0,1,9.2,7.426a3.714,3.714,0,0,1,.523,1.965,3.266,3.266,0,0,1-1.145,2.637,4.767,4.767,0,0,1-3.168.965Zm0-1.9H5.453a2.059,2.059,0,0,0,1.418-.437,1.591,1.591,0,0,0,.488-1.25,1.876,1.876,0,0,0-.492-1.352,1.839,1.839,0,0,0-1.359-.531H3.359Zm13.086,2.1a1.44,1.44,0,0,1-1.016-.375,1.206,1.206,0,0,1-.406-.922,1.161,1.161,0,0,1,.418-.922,1.543,1.543,0,0,1,1.043-.359,1.486,1.486,0,0,1,1.035.363,1.258,1.258,0,0,1-.008,1.852A1.549,1.549,0,0,1,16.445,13.2Zm11.4.984,2.578-8.555h2.609L29.07,17H26.625L22.68,5.625h2.6Zm17.273-3.008H38.133V9.328h6.984Zm0,3.383H38.133V12.711h6.984Z" transform="translate(445 2410.5)" fill="#12263f"/>
    <path id="Trazado_721449" data-name="Trazado 721449" d="M32.184,8.539,32,9.484a3.305,3.305,0,0,1,2.57-1.094,2.608,2.608,0,0,1,1.363.367,1.8,1.8,0,0,1,.77.992,3.49,3.49,0,0,1,2.8-1.359,2.235,2.235,0,0,1,1.867.852,3.042,3.042,0,0,1,.445,2.2L40.895,17H39.488l.922-5.57a2.943,2.943,0,0,0,0-.742Q40.262,9.625,39.02,9.6a2.136,2.136,0,0,0-1.4.48,2.222,2.222,0,0,0-.809,1.3L35.848,17H34.426l.938-5.562A1.786,1.786,0,0,0,35.1,10.1a1.377,1.377,0,0,0-1.129-.484,2.315,2.315,0,0,0-2.1,1.2L30.8,17H29.387l1.469-8.453ZM48.895,13.2a1.44,1.44,0,0,1-1.016-.375,1.206,1.206,0,0,1-.406-.922,1.161,1.161,0,0,1,.418-.922,1.543,1.543,0,0,1,1.043-.359,1.486,1.486,0,0,1,1.035.363,1.258,1.258,0,0,1-.008,1.852A1.549,1.549,0,0,1,48.895,13.2Zm11.469-.789H57.738L56.941,17H55.465L57.441,5.625l3.422.008a3.814,3.814,0,0,1,2.727.907,2.83,2.83,0,0,1,.789,2.448,3.241,3.241,0,0,1-.777,1.885,4.247,4.247,0,0,1-1.84,1.228l1.766,4.8-.008.1H61.957Zm-2.414-1.234,2.156.008a3.012,3.012,0,0,0,1.9-.6,2.326,2.326,0,0,0,.906-1.6,1.837,1.837,0,0,0-.391-1.531,2.087,2.087,0,0,0-1.547-.586L58.7,6.859ZM70.707,13.2a1.44,1.44,0,0,1-1.016-.375,1.206,1.206,0,0,1-.406-.922,1.161,1.161,0,0,1,.418-.922,1.543,1.543,0,0,1,1.043-.359,1.486,1.486,0,0,1,1.035.363,1.258,1.258,0,0,1-.008,1.852A1.549,1.549,0,0,1,70.707,13.2ZM86.363,6.852H82.824L81.066,17H79.605L81.363,6.852H77.824l.219-1.227h8.539Z" transform="translate(490 2398.5)" fill="#12263f"/>
    <path id="Trazado_721450" data-name="Trazado 721450" d="M48.289,12.547V17h-1.5V5.625h4.2a4.215,4.215,0,0,1,2.926.953A3.231,3.231,0,0,1,54.969,9.1a3.189,3.189,0,0,1-1.035,2.551,4.4,4.4,0,0,1-2.965.895Zm0-1.227h2.7a2.7,2.7,0,0,0,1.844-.567,2.075,2.075,0,0,0,.641-1.64,2.143,2.143,0,0,0-.641-1.628,2.525,2.525,0,0,0-1.758-.634H48.289Zm10.531-5.7,3.719,9.281,3.719-9.281H68.2V17H66.7V12.57l.141-4.781L63.109,17H61.961L58.234,7.813l.148,4.758V17h-1.5V5.625Z" transform="translate(490 2423.5)" fill="#12263f"/>
    <path id="Trazado_721451" data-name="Trazado 721451" d="M0,0H102" transform="translate(503.5 2421)" fill="none" stroke="#12263f" stroke-width="2"/>
    <g id="Grupo_957098" data-name="Grupo 957098" transform="translate(-208 -201.5)">
      <text id="P_" data-name="P =" transform="translate(600 2663)" fill="#12263f" font-size="16" font-family="Roboto-Bold, Roboto" font-weight="700"><tspan x="0" y="17">P =</tspan></text>
      <text id="m" transform="translate(645 2651)" fill="#12263f" font-size="16" font-family="Roboto-Italic, Roboto" font-style="italic"><tspan x="-6.84" y="17">m</tspan></text>
      <text id="V" transform="translate(645 2676)" fill="#12263f" font-size="16" font-family="Roboto-Italic, Roboto" font-style="italic"><tspan x="-4.977" y="17">V</tspan></text>
      <line id="Línea_491" data-name="Línea 491" x2="40" transform="translate(640.5 2672.5)" fill="none" stroke="#12263f" stroke-width="2"/>
      <text id="_" data-name="∙" transform="translate(678 2660)" fill="#12263f" font-size="18" font-family="SegoeUI-Bold, Segoe UI" font-weight="700"><tspan x="-2.439" y="19">∙</tspan></text>
      <text id="R_T" data-name="R  T" transform="translate(697 2651)" fill="#12263f" font-size="16" font-family="Roboto-Italic, Roboto" font-style="italic"><tspan x="-13.25" y="17" xml:space="preserve">R  T</tspan></text>
      <text id="PM" transform="translate(697 2676)" fill="#12263f" font-size="16" font-family="Roboto-Italic, Roboto" font-style="italic"><tspan x="-11.746" y="17">PM</tspan></text>
      <line id="Línea_492" data-name="Línea 492" x2="40" transform="translate(692.5 2672.5)" fill="none" stroke="#12263f" stroke-width="2"/>
      <text id="_2" data-name="∙" transform="translate(707 2648)" fill="#12263f" font-size="18" font-family="SegoeUI-Bold, Segoe UI" font-weight="700"><tspan x="3.561" y="19">∙</tspan></text>
      <text id="_como_C" data-name="; como           =  C" transform="translate(738 2662)" fill="#12263f" font-size="18" font-family="Roboto-Regular, Roboto"><tspan x="0" y="19" xml:space="preserve">; como           </tspan><tspan y="19" xml:space="preserve" font-family="Roboto-Bold, Roboto" font-weight="700">=  C</tspan></text>
      <text id="m-2" data-name="m" transform="translate(801 2651)" fill="#12263f" font-size="16" font-family="Roboto-Italic, Roboto" font-style="italic"><tspan x="-6.84" y="17">m</tspan></text>
      <text id="V-2" data-name="V" transform="translate(801 2676)" fill="#12263f" font-size="16" font-family="Roboto-Italic, Roboto" font-style="italic"><tspan x="-4.977" y="17">V</tspan></text>
      <line id="Línea_493" data-name="Línea 493" x2="40" transform="translate(796.5 2672.5)" fill="none" stroke="#12263f" stroke-width="2"/>
    </g>
    <path id="Trazado_721452" data-name="Trazado 721452" d="M3.359,12.992V17H1.016V5.625H5.453a5.134,5.134,0,0,1,2.254.469A3.454,3.454,0,0,1,9.2,7.426a3.714,3.714,0,0,1,.523,1.965,3.266,3.266,0,0,1-1.145,2.637,4.767,4.767,0,0,1-3.168.965Zm0-1.9H5.453a2.059,2.059,0,0,0,1.418-.437,1.591,1.591,0,0,0,.488-1.25,1.876,1.876,0,0,0-.492-1.352,1.839,1.839,0,0,0-1.359-.531H3.359Zm18.992.078H15.367V9.328h6.984Zm0,3.383H15.367V12.711h6.984Zm19.023-1.344A4.025,4.025,0,0,1,40.02,16.1,4.76,4.76,0,0,1,36.8,17.156a4.28,4.28,0,0,1-3.441-1.473A6.038,6.038,0,0,1,32.1,11.641v-.7a6.819,6.819,0,0,1,.578-2.891,4.332,4.332,0,0,1,1.652-1.918A5.164,5.164,0,0,1,40,6.523a4.326,4.326,0,0,1,1.391,2.961H39.047a2.376,2.376,0,0,0-.613-1.6,2.271,2.271,0,0,0-1.605-.5,1.991,1.991,0,0,0-1.754.84,4.707,4.707,0,0,0-.6,2.605V11.7a5.038,5.038,0,0,0,.559,2.7,1.954,1.954,0,0,0,1.762.852,2.314,2.314,0,0,0,1.621-.5,2.241,2.241,0,0,0,.613-1.535Zm6.648-.016a1.44,1.44,0,0,1-1.016-.375A1.206,1.206,0,0,1,46.6,11.9a1.161,1.161,0,0,1,.418-.922,1.543,1.543,0,0,1,1.043-.359,1.486,1.486,0,0,1,1.035.363,1.258,1.258,0,0,1-.008,1.852A1.549,1.549,0,0,1,48.023,13.2Z" transform="translate(468.25 2507.5)" fill="#12263f"/>
    <path id="Trazado_721453" data-name="Trazado 721453" d="M26.246,12.406H23.621L22.824,17H21.348L23.324,5.625l3.422.008a3.814,3.814,0,0,1,2.727.907,2.83,2.83,0,0,1,.789,2.448,3.241,3.241,0,0,1-.777,1.885,4.247,4.247,0,0,1-1.84,1.228l1.766,4.8L29.4,17H27.84Zm-2.414-1.234,2.156.008a3.012,3.012,0,0,0,1.9-.6,2.326,2.326,0,0,0,.906-1.6A1.837,1.837,0,0,0,28.4,7.453a2.087,2.087,0,0,0-1.547-.586l-2.273-.008ZM36.59,13.2a1.44,1.44,0,0,1-1.016-.375,1.206,1.206,0,0,1-.406-.922,1.161,1.161,0,0,1,.418-.922,1.543,1.543,0,0,1,1.043-.359,1.486,1.486,0,0,1,1.035.363,1.258,1.258,0,0,1-.008,1.852A1.549,1.549,0,0,1,36.59,13.2ZM52.621,6.852H49.082L47.324,17H45.863L47.621,6.852H44.082L44.3,5.625H52.84Z" transform="translate(524.25 2496.5)" fill="#12263f"/>
    <path id="Trazado_721454" data-name="Trazado 721454" d="M27.457,12.547,26.684,17H25.215L27.191,5.625l3.8.008a3.713,3.713,0,0,1,2.711.934,2.937,2.937,0,0,1,.82,2.48,3.541,3.541,0,0,1-1.3,2.57,4.718,4.718,0,0,1-3.059.938Zm.211-1.227,2.531.008a3.079,3.079,0,0,0,1.961-.6,2.407,2.407,0,0,0,.9-1.672,1.886,1.886,0,0,0-.4-1.559,2.005,2.005,0,0,0-1.523-.629l-2.7-.008Zm11.242-5.7L40.9,14.891l5.219-9.266h1.93L46.074,17H44.613l.781-4.5.93-4.578L41.168,17H40.043L38.012,7.742l-.7,4.906L36.551,17H35.082L37.059,5.625Z" transform="translate(524.25 2521.5)" fill="#12263f"/>
    <path id="Trazado_721455" data-name="Trazado 721455" d="M0,0H73" transform="translate(524.75 2519)" fill="none" stroke="#12263f" stroke-width="2"/>
    <path id="Trazado_721457" data-name="Trazado 721457" d="M9.945,13.211A4.025,4.025,0,0,1,8.59,16.1a4.76,4.76,0,0,1-3.223,1.055,4.28,4.28,0,0,1-3.441-1.473A6.038,6.038,0,0,1,.672,11.641v-.7A6.819,6.819,0,0,1,1.25,8.055,4.332,4.332,0,0,1,2.9,6.137a4.629,4.629,0,0,1,2.5-.668A4.637,4.637,0,0,1,8.57,6.523,4.326,4.326,0,0,1,9.961,9.484H7.617A2.376,2.376,0,0,0,7,7.887a2.271,2.271,0,0,0-1.605-.5,1.991,1.991,0,0,0-1.754.84,4.707,4.707,0,0,0-.6,2.605V11.7a5.038,5.038,0,0,0,.559,2.7,1.954,1.954,0,0,0,1.762.852,2.314,2.314,0,0,0,1.621-.5A2.241,2.241,0,0,0,7.6,13.211ZM22.5,11.172H15.516V9.328H22.5Zm0,3.383H15.516V12.711H22.5Z" transform="translate(480.25 2562)" fill="#12263f"/>
    <path id="Trazado_721456" data-name="Trazado 721456" d="M16.434,12.547,15.66,17H14.191L16.168,5.625l3.8.008a3.713,3.713,0,0,1,2.711.934,2.937,2.937,0,0,1,.82,2.48,3.541,3.541,0,0,1-1.3,2.57,4.718,4.718,0,0,1-3.059.938Zm.211-1.227,2.531.008a3.079,3.079,0,0,0,1.961-.6,2.407,2.407,0,0,0,.9-1.672,1.886,1.886,0,0,0-.4-1.559,2.005,2.005,0,0,0-1.523-.629l-2.7-.008ZM29.66,13.2a1.44,1.44,0,0,1-1.016-.375,1.206,1.206,0,0,1-.406-.922,1.161,1.161,0,0,1,.418-.922,1.543,1.543,0,0,1,1.043-.359,1.486,1.486,0,0,1,1.035.363,1.258,1.258,0,0,1-.008,1.852A1.549,1.549,0,0,1,29.66,13.2Zm8.82-.648L37.707,17H36.238L38.215,5.625l3.8.008a3.713,3.713,0,0,1,2.711.934,2.937,2.937,0,0,1,.82,2.48,3.541,3.541,0,0,1-1.3,2.57,4.718,4.718,0,0,1-3.059.938Zm.211-1.227,2.531.008a3.079,3.079,0,0,0,1.961-.6,2.407,2.407,0,0,0,.9-1.672,1.886,1.886,0,0,0-.4-1.559,2.005,2.005,0,0,0-1.523-.629l-2.7-.008Zm11.242-5.7,1.992,9.266,5.219-9.266h1.93L57.1,17H55.637l.781-4.5.93-4.578L52.191,17H51.066L49.035,7.742l-.7,4.906L47.574,17H46.105L48.082,5.625Z" transform="translate(512.25 2549.5)" fill="#12263f"/>
    <path id="Trazado_721458" data-name="Trazado 721458" d="M0,0H73" transform="translate(512.75 2572)" fill="none" stroke="#12263f" stroke-width="2"/>
    <path id="Trazado_721459" data-name="Trazado 721459" d="M26.434,12.406H23.809L23.012,17H21.535L23.512,5.625l3.422.008a3.814,3.814,0,0,1,2.727.907,2.83,2.83,0,0,1,.789,2.448,3.241,3.241,0,0,1-.777,1.885,4.247,4.247,0,0,1-1.84,1.228L29.6,16.9l-.008.1H28.027ZM24.02,11.172l2.156.008a3.012,3.012,0,0,0,1.9-.6,2.326,2.326,0,0,0,.906-1.6,1.837,1.837,0,0,0-.391-1.531,2.087,2.087,0,0,0-1.547-.586L24.77,6.859ZM36.777,13.2a1.44,1.44,0,0,1-1.016-.375,1.206,1.206,0,0,1-.406-.922,1.161,1.161,0,0,1,.418-.922,1.543,1.543,0,0,1,1.043-.359,1.486,1.486,0,0,1,1.035.363,1.258,1.258,0,0,1-.008,1.852A1.549,1.549,0,0,1,36.777,13.2ZM52.434,6.852H48.895L47.137,17H45.676L47.434,6.852H43.895l.219-1.227h8.539Z" transform="translate(508.25 2572)" fill="#12263f"/>
  </g>
</svg>
