<svg xmlns="http://www.w3.org/2000/svg" width="513.512" height="228.623" viewBox="0 0 513.512 228.623">
  <g id="Grupo_956845" data-name="Grupo 956845" transform="translate(0)">
    <g id="Grupo_956840" data-name="Grupo 956840">
      <g id="Grupo_956846" data-name="Grupo 956846">
        <path id="Trazado_720964" data-name="Trazado 720964" d="M146.124,89.126A69.428,69.428,0,1,1,76.7,19.7a69.428,69.428,0,0,1,69.428,69.428" fill="#5eb2e6"/>
        <path id="Trazado_720965" data-name="Trazado 720965" d="M87.953,139.736A69.425,69.425,0,0,1,23.484,44.544a69.423,69.423,0,1,0,117.68,70.345,69.271,69.271,0,0,1-53.211,24.847" fill="#2695ca"/>
        <path id="Trazado_720968" data-name="Trazado 720968" d="M161.82,93.125a4,4,0,0,1-4-4A81.134,81.134,0,0,0,7.414,46.9,4,4,0,1,1,.587,42.727a89.133,89.133,0,0,1,165.233,46.4,4,4,0,0,1-4,4" fill="#5eb2e6"/>
        <path id="Trazado_720969" data-name="Trazado 720969" d="M164.1,98.66l7.12-12.331a2.628,2.628,0,0,0-2.276-3.942H154.7a2.628,2.628,0,0,0-2.276,3.942l7.12,12.331a2.627,2.627,0,0,0,4.551,0" fill="#5eb2e6"/>
      </g>
    </g>
    <g id="Grupo_956842" data-name="Grupo 956842">
      <g id="Grupo_956847" data-name="Grupo 956847">
        <path id="Trazado_720970" data-name="Trazado 720970" d="M94.567,59.862a29.446,29.446,0,0,0-22.374-7.917,29.709,29.709,0,0,0-20.677,48.723,58.4,58.4,0,0,1,6.695,9.609l3.527,6.487a4.957,4.957,0,0,0-1.4,8.255,4.957,4.957,0,0,0,3.323,8.643h4.449a6.308,6.308,0,0,0,12.356,0H84.92a4.957,4.957,0,0,0,3.322-8.643,4.957,4.957,0,0,0-1.395-8.255l3.531-6.494a56.177,56.177,0,0,1,6.6-9.5,29.706,29.706,0,0,0-2.414-40.911M87.341,121.34a2.416,2.416,0,0,1-2.23,2.4c-.064,0-.127-.01-.191-.01H63.666c-.065,0-.127.008-.191.01a2.416,2.416,0,0,1,.191-4.824H84.92a2.424,2.424,0,0,1,2.421,2.422m0,7.357a2.424,2.424,0,0,1-2.421,2.422H63.666a2.422,2.422,0,1,1,0-4.843H84.92a2.424,2.424,0,0,1,2.421,2.421m-16.576,4.965H77.82a3.743,3.743,0,0,1-7.055,0M67.847,116.2,62.258,94.279l3.011,2.758a1.249,1.249,0,0,0,.947.33,1.273,1.273,0,0,0,.892-.457l3.572-4.316,3.233,4.887a1.271,1.271,0,0,0,1.884.266l4.959-4.218.858,3.37a1.271,1.271,0,0,0,2.131.585l1.966-1.966-5.745,21.144a1.342,1.342,0,0,0-.041.291l-12.045-.4a1.275,1.275,0,0,0-.033-.356m16.317.179H82.68l6.739-24.8a1.271,1.271,0,0,0-2.126-1.233l-3.766,3.765-.809-3.179a1.271,1.271,0,0,0-2.056-.655l-5.42,4.609-3.388-5.121a1.274,1.274,0,0,0-.993-.568,1.3,1.3,0,0,0-1.047.46L66,94.258l-5.17-4.735a1.272,1.272,0,0,0-2.091,1.252l6.527,25.6h-.845l-3.977-7.314a60.812,60.812,0,0,0-6.981-10.027,27.175,27.175,0,1,1,41.576.1,58.65,58.65,0,0,0-6.9,9.926Z" fill="#fff"/>
        <path id="Trazado_720971" data-name="Trazado 720971" d="M74.293,47.023a1.273,1.273,0,0,0,1.272-1.272V38.559a1.272,1.272,0,1,0-2.544,0v7.192a1.273,1.273,0,0,0,1.272,1.272" fill="#fff"/>
        <path id="Trazado_720972" data-name="Trazado 720972" d="M59.992,48.361a1.272,1.272,0,0,0,1.2.842,1.292,1.292,0,0,0,.43-.074,1.272,1.272,0,0,0,.766-1.627l-2.432-6.769a1.271,1.271,0,1,0-2.393.859Z" fill="#fff"/>
        <path id="Trazado_720973" data-name="Trazado 720973" d="M49.535,55.65A1.272,1.272,0,1,0,51.28,53.8l-5.232-4.935a1.272,1.272,0,1,0-1.745,1.85Z" fill="#fff"/>
        <path id="Trazado_720974" data-name="Trazado 720974" d="M35.311,64.044l6.615,2.825a1.272,1.272,0,0,0,1-2.34L36.31,61.7a1.272,1.272,0,0,0-1,2.34" fill="#fff"/>
        <path id="Trazado_720975" data-name="Trazado 720975" d="M39.117,79.691a1.271,1.271,0,0,0,.043-2.541L31.971,76.9a1.271,1.271,0,1,0-.086,2.541l7.188.246h.044" fill="#fff"/>
        <path id="Trazado_720976" data-name="Trazado 720976" d="M41.3,89.988a1.271,1.271,0,0,0-1.653-.708l-6.678,2.673a1.272,1.272,0,0,0,.946,2.362l6.677-2.674a1.271,1.271,0,0,0,.708-1.653" fill="#fff"/>
        <path id="Trazado_720977" data-name="Trazado 720977" d="M45.649,100.4l-5.4,4.756a1.272,1.272,0,1,0,1.682,1.908l5.4-4.756a1.272,1.272,0,1,0-1.682-1.908" fill="#fff"/>
        <path id="Trazado_720978" data-name="Trazado 720978" d="M87.182,49.128a1.292,1.292,0,0,0,.43.074,1.272,1.272,0,0,0,1.2-.842l2.432-6.768a1.271,1.271,0,1,0-2.393-.86L86.415,47.5a1.273,1.273,0,0,0,.767,1.627" fill="#fff"/>
        <path id="Trazado_720979" data-name="Trazado 720979" d="M98.394,56a1.266,1.266,0,0,0,.872-.347l5.232-4.935a1.271,1.271,0,1,0-1.745-1.849L97.521,53.8a1.271,1.271,0,0,0,.873,2.2" fill="#fff"/>
        <path id="Trazado_720980" data-name="Trazado 720980" d="M106.377,66.971a1.259,1.259,0,0,0,.5-.1l6.615-2.825a1.272,1.272,0,0,0-1-2.339l-6.614,2.824a1.272,1.272,0,0,0,.5,2.442" fill="#fff"/>
        <path id="Trazado_720981" data-name="Trazado 720981" d="M116.83,76.9l-7.188.246a1.271,1.271,0,0,0,.042,2.542h.045l7.188-.246a1.272,1.272,0,0,0-.087-2.542" fill="#fff"/>
        <path id="Trazado_720982" data-name="Trazado 720982" d="M115.834,91.954l-6.677-2.673a1.272,1.272,0,1,0-.946,2.361l6.678,2.673a1.272,1.272,0,1,0,.945-2.361" fill="#fff"/>
        <path id="Trazado_720983" data-name="Trazado 720983" d="M103.152,100.4a1.271,1.271,0,1,0-1.681,1.908l5.395,4.756a1.272,1.272,0,1,0,1.682-1.908Z" fill="#fff"/>
        <path id="Trazado_720984" data-name="Trazado 720984" d="M178.3,141.653a69.428,69.428,0,1,0,69.428-69.428A69.428,69.428,0,0,0,178.3,141.653" fill="#cedba6"/>
        <path id="Trazado_720985" data-name="Trazado 720985" d="M247.444,228.623A88.58,88.58,0,0,1,171.335,185.9a4,4,0,0,1,6.827-4.17A81.134,81.134,0,0,0,328.569,139.5a4,4,0,1,1,8,0,89.225,89.225,0,0,1-89.125,89.124" fill="#adc46c"/>
        <path id="Trazado_720986" data-name="Trazado 720986" d="M334.845,129.964l7.119,12.331a2.627,2.627,0,0,1-2.275,3.942H325.45a2.628,2.628,0,0,1-2.276-3.942l7.12-12.331a2.627,2.627,0,0,1,4.551,0" fill="#adc46c"/>
        <path id="Trazado_720987" data-name="Trazado 720987" d="M258.987,192.264a69.425,69.425,0,0,1-64.469-95.192A69.423,69.423,0,1,0,312.2,167.417a69.271,69.271,0,0,1-53.211,24.847" fill="#adc46c"/>
        <path id="Trazado_720988" data-name="Trazado 720988" d="M272.723,100.583H222.736a4.842,4.842,0,0,0-4.837,4.836V176.96a4.842,4.842,0,0,0,4.837,4.837h49.987a4.841,4.841,0,0,0,4.836-4.837V105.419a4.841,4.841,0,0,0-4.836-4.836m1.987,76.377a1.99,1.99,0,0,1-1.987,1.988H222.736a1.99,1.99,0,0,1-1.987-1.988V105.419a1.989,1.989,0,0,1,1.987-1.987h49.987a1.989,1.989,0,0,1,1.987,1.987Z" fill="#fff"/>
        <path id="Trazado_720989" data-name="Trazado 720989" d="M268.293,111.735H239.016a1.424,1.424,0,1,0,0,2.849h29.277a1.424,1.424,0,1,0,0-2.849" fill="#fff"/>
        <path id="Trazado_720990" data-name="Trazado 720990" d="M268.293,120.855H227.34a1.424,1.424,0,0,0,0,2.849h40.953a1.424,1.424,0,1,0,0-2.849" fill="#fff"/>
        <path id="Trazado_720991" data-name="Trazado 720991" d="M268.293,129.975H227.34a1.424,1.424,0,0,0,0,2.849h40.953a1.424,1.424,0,1,0,0-2.849" fill="#fff"/>
        <path id="Trazado_720992" data-name="Trazado 720992" d="M268.293,139.1H227.34a1.424,1.424,0,0,0,0,2.849h40.953a1.424,1.424,0,1,0,0-2.849" fill="#fff"/>
        <path id="Trazado_720993" data-name="Trazado 720993" d="M268.293,148.215H227.34a1.424,1.424,0,0,0,0,2.849h40.953a1.424,1.424,0,1,0,0-2.849" fill="#fff"/>
        <path id="Trazado_720994" data-name="Trazado 720994" d="M268.293,157.335H227.34a1.424,1.424,0,0,0,0,2.849h40.953a1.424,1.424,0,1,0,0-2.849" fill="#fff"/>
        <path id="Trazado_720995" data-name="Trazado 720995" d="M268.293,166.454H227.34a1.424,1.424,0,0,0,0,2.849h40.953a1.424,1.424,0,1,0,0-2.849" fill="#fff"/>
      </g>
    </g>
    <g id="Grupo_956844" data-name="Grupo 956844">
      <g id="Grupo_956848" data-name="Grupo 956848">
        <path id="Trazado_720998" data-name="Trazado 720998" d="M488.064,89.126A69.428,69.428,0,1,1,418.636,19.7a69.428,69.428,0,0,1,69.428,69.428" fill="#5d87c3"/>
        <path id="Trazado_720999" data-name="Trazado 720999" d="M503.76,93.125a4,4,0,0,1-4-4A81.134,81.134,0,0,0,349.354,46.9a4,4,0,1,1-6.827-4.169,89.133,89.133,0,0,1,165.233,46.4,4,4,0,0,1-4,4" fill="#5d87c3"/>
        <path id="Trazado_721000" data-name="Trazado 721000" d="M506.036,98.66l7.119-12.331a2.627,2.627,0,0,0-2.275-3.942H496.641a2.628,2.628,0,0,0-2.276,3.942l7.12,12.331a2.627,2.627,0,0,0,4.551,0" fill="#5d87c3"/>
        <path id="Trazado_721001" data-name="Trazado 721001" d="M429.9,139.736a69.425,69.425,0,0,1-64.469-95.192,69.423,69.423,0,1,0,117.68,70.345A69.271,69.271,0,0,1,429.9,139.736" fill="#4d6f9b"/>
        <path id="Trazado_721002" data-name="Trazado 721002" d="M419.981,91.076a26.288,26.288,0,0,0,2.9-6.976h6.566a1.32,1.32,0,0,0,1.32-1.32V72.285a1.321,1.321,0,0,0-1.32-1.321h-6.566a26.329,26.329,0,0,0-2.9-6.975l4.647-4.647a1.319,1.319,0,0,0,0-1.867l-7.421-7.421a1.321,1.321,0,0,0-1.868,0L410.693,54.7a26.255,26.255,0,0,0-6.976-2.9V45.24a1.321,1.321,0,0,0-1.321-1.321H391.9a1.321,1.321,0,0,0-1.32,1.321v6.566a26.242,26.242,0,0,0-6.976,2.9l-4.647-4.647a1.319,1.319,0,0,0-1.867,0l-7.421,7.421a1.319,1.319,0,0,0,0,1.867l4.647,4.647a26.3,26.3,0,0,0-2.895,6.975h-6.566a1.321,1.321,0,0,0-1.32,1.321V82.78a1.32,1.32,0,0,0,1.32,1.32h6.566a26.275,26.275,0,0,0,2.895,6.976l-4.647,4.647a1.319,1.319,0,0,0,0,1.867l7.421,7.421a1.319,1.319,0,0,0,1.867,0l4.648-4.646a26.274,26.274,0,0,0,6.975,2.894v6.567a1.32,1.32,0,0,0,1.32,1.32H402.4a1.32,1.32,0,0,0,1.321-1.32v-6.567a26.274,26.274,0,0,0,6.975-2.894l4.647,4.646a1.321,1.321,0,0,0,1.868,0l7.421-7.421a1.319,1.319,0,0,0,0-1.867Zm-3.708,11.135-4.455-4.454a1.323,1.323,0,0,0-1.653-.174,23.67,23.67,0,0,1-8.042,3.336,1.321,1.321,0,0,0-1.047,1.292v6.295h-7.854v-6.295a1.321,1.321,0,0,0-1.048-1.292,23.674,23.674,0,0,1-8.041-3.336,1.323,1.323,0,0,0-1.653.174l-4.455,4.454-5.554-5.555,4.454-4.454a1.32,1.32,0,0,0,.174-1.654,23.674,23.674,0,0,1-3.337-8.041,1.321,1.321,0,0,0-1.292-1.047h-6.294V73.605h6.294a1.321,1.321,0,0,0,1.292-1.047,23.691,23.691,0,0,1,3.337-8.041,1.32,1.32,0,0,0-.174-1.654l-4.454-4.454,5.554-5.554,4.455,4.454a1.318,1.318,0,0,0,1.653.173,23.649,23.649,0,0,1,8.042-3.336,1.322,1.322,0,0,0,1.047-1.292V46.56h7.854v6.294a1.322,1.322,0,0,0,1.047,1.292,23.644,23.644,0,0,1,8.041,3.336,1.32,1.32,0,0,0,1.654-.173l4.455-4.454,5.554,5.554-4.454,4.454a1.32,1.32,0,0,0-.173,1.653,23.711,23.711,0,0,1,3.336,8.042,1.321,1.321,0,0,0,1.292,1.047h6.294V81.46h-6.294a1.321,1.321,0,0,0-1.292,1.047,23.711,23.711,0,0,1-3.336,8.042,1.32,1.32,0,0,0,.173,1.653l4.454,4.454Z" fill="#fff"/>
        <path id="Trazado_721003" data-name="Trazado 721003" d="M397.149,61.075a16.457,16.457,0,1,0,16.458,16.457,16.476,16.476,0,0,0-16.458-16.457m0,30.274a13.817,13.817,0,1,1,13.817-13.817,13.832,13.832,0,0,1-13.817,13.817" fill="#fff"/>
        <path id="Trazado_721004" data-name="Trazado 721004" d="M471.38,101.12h-4.135a18.314,18.314,0,0,0-1.763-4.247l2.926-2.927a1.319,1.319,0,0,0,0-1.867l-5.042-5.042a1.319,1.319,0,0,0-1.867,0l-2.927,2.927a18.212,18.212,0,0,0-4.248-1.764V84.064a1.319,1.319,0,0,0-1.32-1.32h-7.131a1.32,1.32,0,0,0-1.32,1.32V88.2a18.213,18.213,0,0,0-4.248,1.764l-2.927-2.927a1.319,1.319,0,0,0-1.867,0l-5.042,5.042a1.319,1.319,0,0,0,0,1.867l2.926,2.927a18.333,18.333,0,0,0-1.763,4.247H427.5a1.32,1.32,0,0,0-1.32,1.32v7.131a1.321,1.321,0,0,0,1.32,1.321h4.135a18.34,18.34,0,0,0,1.763,4.248l-2.926,2.927a1.319,1.319,0,0,0,0,1.867l5.042,5.042a1.319,1.319,0,0,0,1.867,0l2.927-2.927a18.26,18.26,0,0,0,4.248,1.763v4.136a1.321,1.321,0,0,0,1.32,1.321H453a1.32,1.32,0,0,0,1.32-1.321v-4.136a18.26,18.26,0,0,0,4.248-1.763l2.927,2.927a1.319,1.319,0,0,0,1.867,0l5.042-5.042a1.319,1.319,0,0,0,0-1.867l-2.926-2.927a18.3,18.3,0,0,0,1.763-4.248h4.135a1.321,1.321,0,0,0,1.321-1.321V102.44a1.32,1.32,0,0,0-1.321-1.32m-1.32,7.131h-3.853a1.321,1.321,0,0,0-1.292,1.047,15.7,15.7,0,0,1-2.207,5.322,1.32,1.32,0,0,0,.173,1.653L465.608,119l-3.176,3.175-2.727-2.727a1.321,1.321,0,0,0-1.653-.173,15.7,15.7,0,0,1-5.322,2.208,1.32,1.32,0,0,0-1.046,1.292v3.853h-4.491v-3.853a1.32,1.32,0,0,0-1.046-1.292,15.686,15.686,0,0,1-5.321-2.208,1.322,1.322,0,0,0-1.654.173l-2.727,2.727L433.269,119,436,116.273a1.32,1.32,0,0,0,.174-1.653,15.683,15.683,0,0,1-2.208-5.322,1.321,1.321,0,0,0-1.292-1.047h-3.853v-4.49h3.853a1.321,1.321,0,0,0,1.292-1.047,15.678,15.678,0,0,1,2.208-5.321A1.32,1.32,0,0,0,436,95.74l-2.727-2.728,3.176-3.175,2.727,2.728a1.32,1.32,0,0,0,1.654.172,15.68,15.68,0,0,1,5.32-2.207,1.32,1.32,0,0,0,1.047-1.292V85.385h4.491v3.853a1.321,1.321,0,0,0,1.047,1.292,15.693,15.693,0,0,1,5.321,2.207,1.318,1.318,0,0,0,1.653-.172l2.727-2.728,3.176,3.175-2.727,2.728a1.32,1.32,0,0,0-.173,1.653,15.689,15.689,0,0,1,2.207,5.321,1.321,1.321,0,0,0,1.292,1.047h3.853Z" fill="#fff"/>
        <path id="Trazado_721005" data-name="Trazado 721005" d="M449.439,94.4a11.606,11.606,0,1,0,11.606,11.606A11.619,11.619,0,0,0,449.439,94.4m0,20.571a8.965,8.965,0,1,1,8.965-8.965,8.975,8.975,0,0,1-8.965,8.965" fill="#fff"/>
      </g>
    </g>
  </g>
</svg>
