<svg xmlns="http://www.w3.org/2000/svg" xmlns:xlink="http://www.w3.org/1999/xlink" width="61" height="43" viewBox="0 0 61 43">
  <defs>
    <clipPath id="clip-path">
      <rect id="Rectángulo_339757" data-name="Rectángulo 339757" width="61" height="43" transform="translate(414 3172)" fill="none"/>
    </clipPath>
  </defs>
  <g id="Enmascarar_grupo_927257" data-name="Enmascarar grupo 927257" transform="translate(-414 -3172)" clip-path="url(#clip-path)">
    <g id="Grupo_956868" data-name="Grupo 956868" transform="translate(423 3142.746)">
      <g id="Grupo_956869" data-name="Grupo 956869" transform="translate(0 33.253)">
        <path id="Trazado_721018" data-name="Trazado 721018" d="M0,49.645a2.982,2.982,0,0,1,.662-.424c2.051-.647,4.109-1.274,6.168-1.9a.726.726,0,0,0,.515-.462c.624-1.506,1.266-3,1.9-4.5.237-.559.382-.639.977-.55a.786.786,0,0,1,.175,1.029c-.666,1.53-1.316,3.067-1.961,4.605a.871.871,0,0,0-.08.507c.354,1.363.73,2.72,1.1,4.08.068.279.129.56.2.837q.77,2.851,1.544,5.7.492,1.888.985,3.776c.229.872.462,1.742.69,2.605h7.242c-.16-.093-.247-.143-.333-.195-.586-.355-1.19-.682-1.753-1.07A13.944,13.944,0,0,1,14.2,59.549l-.063-.113v0c-.074-.147-.145-.295-.221-.44a12.831,12.831,0,0,1-1.242-9.113,13.24,13.24,0,0,1,9.863-10.248.746.746,0,0,0,.366-.156,2.756,2.756,0,0,0,.216-3.454,2.62,2.62,0,0,0-3.354-.874c-1.689.791-3.371,1.6-5.051,2.408A7.431,7.431,0,0,0,11.609,40.3a.778.778,0,0,1-.93.412c-.409-.4-.433-.6-.126-1.071a9.008,9.008,0,0,1,3.815-3.3c1.588-.747,3.169-1.511,4.753-2.266a3.933,3.933,0,0,1,5.446,5.015c-.014.037-.026.075-.048.142.668,0,1.318-.009,1.968,0,.854.014.854.021,1.115-.784.017-.052.035-.1.07-.2-.242-.088-.482-.17-.719-.262a2.449,2.449,0,0,1-1.6-2.6,2.416,2.416,0,0,1,2.232-2.124,2.224,2.224,0,0,1,.854.086c2.339.742,4.679,1.484,7,2.267a2.364,2.364,0,0,1,1.617,2.464,2.391,2.391,0,0,1-1.877,2.185,3.791,3.791,0,0,1-1.14-.005,5.3,5.3,0,0,1-.823-.217l-.364,1.1a2.283,2.283,0,0,0,1.733.678,8.977,8.977,0,0,1,2.181.037,3.494,3.494,0,0,1,2.309,5.536l-.164.232a3.554,3.554,0,0,1,1.639,6.232c.1.076.191.148.284.217a3.507,3.507,0,0,1,1.278,3.815,3.456,3.456,0,0,1-3.134,2.508c-.533.031-1.07,0-1.7,0,.116.178.186.285.255.392a3.508,3.508,0,0,1-2.653,5.384c-.233.02-.467.027-.7.027-7.03,0-14.06-.009-21.09.018a6.954,6.954,0,0,0-1.878.379c-1.815.533-3.62,1.1-5.429,1.658-.648.2-.9.054-1.076-.608Q2.432,59.077.15,50.506A2.968,2.968,0,0,0,0,50.14v-.5m39.325,2.144v1.316a2.223,2.223,0,0,0-.445-4.171l.445,2.855m-1.837-5.942.5.948a2.163,2.163,0,0,0,.5-1.615,4.647,4.647,0,0,0-.253-.938,2.439,2.439,0,0,0-2.806-1.167l2.058,2.772m.89,11.968-.637,1.324c2.042.222,3.333-.71,3.268-2.315a2.183,2.183,0,0,0-1.724-2.119l-.907,3.109m-4.937,5.779a2.843,2.843,0,0,1-.488.57c-.4.272-.832.488-1.252.727.928.072,1.841.075,2.754.069a3.257,3.257,0,0,0,.614-.056,2.22,2.22,0,0,0,1.754-2.3,1.915,1.915,0,0,0-.491-1.355c-.354.375-.681.735-1.023,1.081-.369.373-.581.387-1.041.1-.263-.446-.061-.756.262-1.081A12.135,12.135,0,0,0,36.763,47.16,11.922,11.922,0,0,0,27.3,40.554a11.314,11.314,0,0,0-6.01.8l-.247.109,0,0a1.214,1.214,0,0,0-.156.044A12.265,12.265,0,0,0,15.471,59.2a11.978,11.978,0,0,0,5.4,4.679l.33.133.176.073c.138.059.272.128.414.175a12.141,12.141,0,0,0,10.485-1.122c.5-.3.644-.3,1.063.052l.1.4M29.292,37.463c1.658.529,3.313,1.071,4.978,1.582a1.185,1.185,0,0,0,1.475-.733,1.146,1.146,0,0,0-.654-1.5c-1.63-.569-3.278-1.088-4.919-1.626-.7-.218-1.4-.464-2.108-.646a1.152,1.152,0,0,0-1.424.793,1.168,1.168,0,0,0,.715,1.469c.636.245,1.29.444,1.936.662M8.769,54.424Q8.323,52.711,7.877,51c-.215-.819-.436-1.637-.666-2.5L1.378,50.285c.1.377.183.707.272,1.036q.658,2.423,1.317,4.845A1.993,1.993,0,0,0,3,56.409q.874,3.281,1.751,6.561c.35,1.31.7,2.621,1.061,3.983l5.837-1.791c-.429-1.615-.84-3.18-1.26-4.743q-.806-3-1.622-5.994m23.263-14.75-3.186-1.031-.248.779L31.757,40.5l.274-.824" transform="translate(0 -33.253)" fill="#040403"/>
        <path id="Trazado_721019" data-name="Trazado 721019" d="M78.007,53.78a.778.778,0,0,0,.93-.412,7.431,7.431,0,0,1,3.111-2.747c1.68-.81,3.362-1.617,5.051-2.408a2.62,2.62,0,0,1,3.354.874,4.622,4.622,0,0,0-.822.023,16.4,16.4,0,0,0-4.971,1.976,8.736,8.736,0,0,0-2.535,2.544A43.226,43.226,0,0,0,79.6,57.46a21.878,21.878,0,0,0-2.12,4.981c-.25.88-.462,1.771-.69,2.656-.37-1.359-.746-2.716-1.1-4.08a.87.87,0,0,1,.08-.507c.645-1.539,1.295-3.076,1.961-4.605a.786.786,0,0,0-.175-1.029l.455-1.1" transform="translate(-67.328 -46.32)" fill="#fdc9bc"/>
        <path id="Trazado_721020" data-name="Trazado 721020" d="M139.186,122.072l-.33-.133a1.057,1.057,0,0,0-.208-.265,13.335,13.335,0,0,1-3.244-2.927,12.889,12.889,0,0,1-2.792-7.738,11.789,11.789,0,0,1,.245-2.645,12.655,12.655,0,0,1,5.185-8.09c.334-.242.658-.5.987-.749l0,0,.247-.109a11.313,11.313,0,0,1,6.01-.8,11.921,11.921,0,0,1,9.465,6.606,12.134,12.134,0,0,1-2.234,14.187c-.323.325-.524.635-.262,1.081l-.927.761c-.419-.348-.559-.351-1.063-.052a12.141,12.141,0,0,1-10.485,1.122c-.142-.047-.276-.116-.414-.175l-.176-.073m-5.8-11.315A10.457,10.457,0,1,0,143.857,100.3a10.477,10.477,0,0,0-10.472,10.454" transform="translate(-117.983 -91.314)" fill="#f3df65"/>
        <path id="Trazado_721021" data-name="Trazado 721021" d="M85.766,74.3c.229-.886.44-1.777.69-2.656a21.883,21.883,0,0,1,2.12-4.981,43.242,43.242,0,0,1,2.528-3.83,8.735,8.735,0,0,1,2.535-2.544,16.4,16.4,0,0,1,4.971-1.976,4.63,4.63,0,0,1,.822-.023,2.756,2.756,0,0,1-.216,3.454.744.744,0,0,1-.366.156A13.24,13.24,0,0,0,88.986,72.15a12.832,12.832,0,0,0,1.242,9.113c.076.145.148.293.221.44a3.128,3.128,0,0,1-.632-.073c-.772-.251-1.537-.526-2.3-.791q-.772-2.85-1.544-5.7c-.075-.277-.136-.558-.2-.837" transform="translate(-76.308 -55.523)" fill="#fddbcc"/>
        <path id="Trazado_721022" data-name="Trazado 721022" d="M32.712,225.236q.811,3,1.622,5.994c.42,1.563.831,3.127,1.26,4.743l-5.837,1.791c-.363-1.362-.711-2.672-1.061-3.983q-.875-3.281-1.751-6.561a2,2,0,0,1-.035-.243c1.213-.372,2.426-.748,3.641-1.114.718-.217,1.44-.419,2.16-.627" transform="translate(-23.943 -204.064)" fill="#db626d"/>
        <path id="Trazado_721023" data-name="Trazado 721023" d="M19.888,177.42c-.72.209-1.443.41-2.16.627-1.215.367-2.427.742-3.641,1.114q-.659-2.422-1.317-4.845c-.089-.329-.173-.659-.272-1.036l5.833-1.788c.23.864.451,1.682.666,2.5q.449,1.712.892,3.426" transform="translate(-11.119 -156.248)" fill="#c95668"/>
        <path id="Trazado_721024" data-name="Trazado 721024" d="M101.618,262.809c.767.266,1.532.541,2.3.791a3.115,3.115,0,0,0,.632.073v0l.064.113a13.944,13.944,0,0,0,3.833,4.135c.563.388,1.167.716,1.753,1.07.086.052.173.1.333.195h-7.242c-.229-.863-.462-1.733-.69-2.605q-.5-1.887-.985-3.776" transform="translate(-90.412 -237.494)" fill="#fac7ba"/>
        <path id="Trazado_721025" data-name="Trazado 721025" d="M130.831,107.72c-.329.25-.652.507-.987.749a12.656,12.656,0,0,0-5.185,8.09,11.789,11.789,0,0,0-.245,2.645,12.889,12.889,0,0,0,2.792,7.738,13.335,13.335,0,0,0,3.244,2.927,1.055,1.055,0,0,1,.208.265,11.978,11.978,0,0,1-5.4-4.679,12.265,12.265,0,0,1,5.418-17.69,1.207,1.207,0,0,1,.156-.044" transform="translate(-109.786 -99.508)" fill="#fbcd62"/>
        <path id="Trazado_721026" data-name="Trazado 721026" d="M265.974,50.774c1.641.538,3.289,1.057,4.919,1.626a1.146,1.146,0,0,1,.654,1.5,1.185,1.185,0,0,1-1.475.733c-1.664-.51-3.319-1.052-4.977-1.582-.023-.339-.07-.679-.065-1.018a1.519,1.519,0,0,1,.945-1.26" transform="translate(-235.801 -48.842)" fill="#f3df65"/>
        <path id="Trazado_721027" data-name="Trazado 721027" d="M244.628,45.227a1.519,1.519,0,0,0-.945,1.26c0,.339.042.679.065,1.018-.646-.219-1.3-.417-1.936-.663a1.168,1.168,0,0,1-.715-1.469,1.152,1.152,0,0,1,1.424-.793c.711.182,1.406.428,2.108.646" transform="translate(-214.455 -43.294)" fill="#fbcd62"/>
        <path id="Trazado_721028" data-name="Trazado 721028" d="M292.583,299.39a2.22,2.22,0,0,1-1.754,2.3,3.257,3.257,0,0,1-.614.056c-.913.006-1.827,0-2.754-.069.42-.239.855-.455,1.252-.727a2.847,2.847,0,0,0,.488-.57,4.185,4.185,0,0,0,3.382-.992" transform="translate(-255.76 -270.041)" fill="#f7c4b8"/>
        <path id="Trazado_721029" data-name="Trazado 721029" d="M348.006,230.894l.907-3.109a2.183,2.183,0,0,1,1.724,2.119.786.786,0,0,0-.21.112,3.222,3.222,0,0,1-2.421.878" transform="translate(-309.629 -206.332)" fill="#fbd9cb"/>
        <path id="Trazado_721030" data-name="Trazado 721030" d="M323.331,124.5l-2.058-2.772a2.439,2.439,0,0,1,2.806,1.167,4.646,4.646,0,0,1,.253.938l-1,.667" transform="translate(-285.844 -111.908)" fill="#fad9ca"/>
        <path id="Trazado_721031" data-name="Trazado 721031" d="M305.814,288.458a4.185,4.185,0,0,1-3.382.992l-.1-.4.927-.761c.46.286.672.272,1.041-.1.342-.346.669-.706,1.023-1.081a1.915,1.915,0,0,1,.491,1.355" transform="translate(-268.991 -259.109)" fill="#fcdacb"/>
        <path id="Trazado_721032" data-name="Trazado 721032" d="M342.863,247.99a3.222,3.222,0,0,0,2.421-.878.786.786,0,0,1,.21-.112c.065,1.6-1.227,2.537-3.269,2.315l.637-1.325" transform="translate(-304.486 -223.428)" fill="#fac7ba"/>
        <path id="Trazado_721033" data-name="Trazado 721033" d="M353,178.3l-.445-2.855a2.144,2.144,0,0,1,1.713,2.112L353,178.3" transform="translate(-313.68 -159.767)" fill="#f9d8c9"/>
        <path id="Trazado_721034" data-name="Trazado 721034" d="M262.758,83.165l-.275.824-3.159-1.076.248-.779,3.186,1.031" transform="translate(-230.726 -76.743)" fill="#f6c961"/>
        <path id="Trazado_721035" data-name="Trazado 721035" d="M356.594,195.342l1.268-.743a2.132,2.132,0,0,1-1.268,2.06Z" transform="translate(-317.27 -176.806)" fill="#f6c5b8"/>
        <path id="Trazado_721036" data-name="Trazado 721036" d="M339.932,142.075l1-.667a2.164,2.164,0,0,1-.5,1.615l-.5-.948" transform="translate(-302.445 -129.481)" fill="#f3c2b5"/>
        <path id="Trazado_721037" data-name="Trazado 721037" d="M191.052,106.754l-.247.109.247-.109" transform="translate(-169.763 -98.648)" fill="#fbcd62"/>
        <path id="Trazado_721038" data-name="Trazado 721038" d="M192.272,312.173l.176.073-.176-.073" transform="translate(-171.069 -281.414)" fill="#fbcd62"/>
        <path id="Trazado_721039" data-name="Trazado 721039" d="M128.29,270.792l-.064-.113.064.113" transform="translate(-114.085 -244.496)" fill="#fddbcc"/>
        <path id="Trazado_721040" data-name="Trazado 721040" d="M139.66,125.222a10.457,10.457,0,1,1,10.414,10.472,10.477,10.477,0,0,1-10.414-10.472m9.825-8.912c.04-.159.027-.279-.185-.254-.245.029-.492.048-.736.09a8.6,8.6,0,0,0-2.5.813c.211.457.695.934.083,1.321-.686.434-.883-.289-1.185-.687a9.089,9.089,0,0,0-2.488,2.489c.4.3,1.088.484.714,1.143s-.894.153-1.362-.037a8.8,8.8,0,0,0-.9,3.435c.516,0,.982-.017,1.447,0a.591.591,0,0,1,.55.809.652.652,0,0,1-.687.419c-.434,0-.868,0-1.323,0a8.965,8.965,0,0,0,.911,3.4c.9-.405,1.175-.426,1.358-.051.349.714-.316.867-.714,1.173a9.092,9.092,0,0,0,2.488,2.481c.535-.788.762-.93,1.138-.734s.387.456-.016,1.389a8.988,8.988,0,0,0,3.181.885c.223.018.268-.074.22-.264.006-.385,0-.77.02-1.154a.584.584,0,0,1,.634-.606c.36.014.587.269.6.7s0,.873,0,1.339a8.855,8.855,0,0,0,3.412-.91c-.426-.862-.453-1.14-.077-1.342.723-.386.879.31,1.19.7a9.114,9.114,0,0,0,2.485-2.489c-.372-.3-1.082-.447-.724-1.12.385-.725.909-.159,1.373.009a8.837,8.837,0,0,0,.9-3.41c-.457,0-.88.008-1.3,0-.483-.012-.743-.252-.728-.651.013-.383.258-.579.741-.585.421-.005.843,0,1.294,0a8.76,8.76,0,0,0-.905-3.427c-.833.415-1.142.447-1.339.084-.4-.737.309-.884.7-1.194a9.107,9.107,0,0,0-2.493-2.484c-.522.773-.778.952-1.129.731-.69-.435-.152-.921.017-1.383a8.845,8.845,0,0,0-3.411-.9c0,.488.013.939,0,1.39a.628.628,0,0,1-.649.652.615.615,0,0,1-.582-.668c-.012-.371-.013-.742-.018-1.113" transform="translate(-124.258 -105.778)" fill="#040403"/>
        <path id="Trazado_721041" data-name="Trazado 721041" d="M181.778,126.639c.006.371.006.742.018,1.113a.615.615,0,0,0,.582.668.628.628,0,0,0,.649-.652c.017-.45,0-.9,0-1.39a8.843,8.843,0,0,1,3.411.9c-.169.462-.707.947-.017,1.383.351.221.607.042,1.129-.731a9.107,9.107,0,0,1,2.493,2.485c-.393.31-1.1.457-.7,1.193.2.363.506.331,1.339-.084a8.76,8.76,0,0,1,.905,3.427c-.451,0-.872,0-1.294,0-.483.006-.727.2-.741.585-.014.4.246.639.728.651.423.01.847,0,1.3,0a8.838,8.838,0,0,1-.9,3.41c-.464-.168-.987-.734-1.373-.009-.358.673.352.821.724,1.12a9.112,9.112,0,0,1-2.485,2.489c-.311-.39-.467-1.086-1.19-.7-.376.2-.349.48.077,1.342a8.856,8.856,0,0,1-3.412.91c0-.466.008-.9,0-1.339s-.238-.686-.6-.7a.584.584,0,0,0-.634.606c-.018.384-.014.769-.02,1.154a2.7,2.7,0,0,1-.385-.127,9.81,9.81,0,0,1-1.461-16.662,16.953,16.953,0,0,1,1.845-1.042m2.5,7.3c0-.522.008-1.044,0-1.566a1.862,1.862,0,0,0-1.84-1.88,1.82,1.82,0,0,0-1.893,1.812q-.048,1.647,0,3.3a1.857,1.857,0,0,0,1.888,1.832,1.887,1.887,0,0,0,1.845-1.887c.011-.535,0-1.071,0-1.607" transform="translate(-156.552 -116.107)" fill="#d1edf9"/>
        <path id="Trazado_721042" data-name="Trazado 721042" d="M159.645,126.675a16.972,16.972,0,0,0-1.845,1.042,9.432,9.432,0,0,0-3.877,6.527,9.823,9.823,0,0,0,5.338,10.135,2.689,2.689,0,0,0,.385.127c.049.19,0,.282-.22.264a8.988,8.988,0,0,1-3.181-.885c.4-.933.4-1.186.016-1.389s-.6-.054-1.138.734a9.092,9.092,0,0,1-2.488-2.481c.4-.306,1.063-.459.714-1.173-.184-.376-.459-.355-1.358.051a8.965,8.965,0,0,1-.911-3.4c.455,0,.889,0,1.323,0a.652.652,0,0,0,.687-.419.591.591,0,0,0-.55-.809c-.465-.022-.931,0-1.447,0a8.8,8.8,0,0,1,.9-3.435c.468.19.979.712,1.362.037s-.309-.839-.713-1.143a9.089,9.089,0,0,1,2.488-2.489c.3.4.5,1.12,1.185.687.612-.387.129-.864-.083-1.321a8.6,8.6,0,0,1,2.5-.813c.243-.042.49-.061.736-.09.212-.025.225.095.185.254" transform="translate(-134.419 -116.144)" fill="#9bc3f7"/>
        <path id="Trazado_721043" data-name="Trazado 721043" d="M221.133,167.185c0,.536.009,1.071,0,1.607a1.887,1.887,0,0,1-1.845,1.887,1.857,1.857,0,0,1-1.889-1.832q-.046-1.647,0-3.3a1.819,1.819,0,0,1,1.893-1.812,1.862,1.862,0,0,1,1.84,1.88c.01.522,0,1.044,0,1.566m-2.484.021c0,.507,0,1.015,0,1.522a.635.635,0,0,0,.622.712.659.659,0,0,0,.62-.7c.011-1.042.013-2.085,0-3.127a.6.6,0,0,0-.662-.626c-.375.016-.57.227-.577.651-.008.521,0,1.042,0,1.564" transform="translate(-193.402 -149.349)" fill="#020303"/>
        <path id="Trazado_721044" data-name="Trazado 721044" d="M228.916,177.3c0-.521-.006-1.043,0-1.564.007-.424.2-.635.577-.651a.6.6,0,0,1,.662.626c.015,1.042.013,2.085,0,3.127a.659.659,0,0,1-.62.7.635.635,0,0,1-.622-.712c-.005-.507,0-1.015,0-1.522" transform="translate(-203.67 -159.446)" fill="#2a4c64"/>
      </g>
    </g>
  </g>
</svg>
