<svg xmlns="http://www.w3.org/2000/svg" xmlns:xlink="http://www.w3.org/1999/xlink" width="61" height="43" viewBox="0 0 61 43">
  <defs>
    <clipPath id="clip-path">
      <rect id="Rect치ngulo_339755" data-name="Rect치ngulo 339755" width="61" height="43" transform="translate(767 3166)" fill="none"/>
    </clipPath>
    <clipPath id="clip-path-2">
      <rect id="Rect치ngulo_339750" data-name="Rect치ngulo 339750" width="35" height="35" fill="none"/>
    </clipPath>
  </defs>
  <g id="Enmascarar_grupo_927255" data-name="Enmascarar grupo 927255" transform="translate(-767 -3166)" clip-path="url(#clip-path)">
    <g id="Grupo_956874" data-name="Grupo 956874" transform="translate(780 3170)">
      <g id="Grupo_956873" data-name="Grupo 956873" clip-path="url(#clip-path-2)">
        <path id="Trazado_721081" data-name="Trazado 721081" d="M0,27.506a.881.881,0,0,1,.917-.486c.768.026,1.538.007,2.326.007a5.3,5.3,0,0,1,2.119-3.59,5.141,5.141,0,0,1,3.371-1.033,5.329,5.329,0,0,1,5.014,4.6h1.228c0-.209-.01-.41,0-.61a.685.685,0,0,1,.687-.7.668.668,0,0,1,.668.706q.011,1.53,0,3.06a.653.653,0,0,1-.637.7.666.666,0,0,1-.713-.661c-.02-.359,0-.721,0-1.1h-1.23a5.325,5.325,0,0,1-2.279,3.682,5.135,5.135,0,0,1-3.237.92,5.348,5.348,0,0,1-5-4.609H1.381V48.484h6.9c0-.852,0-1.687,0-2.522a1.3,1.3,0,0,1,.075-.495c.141-.328.441-.384.766-.383,1.3,0,2.607-.008,3.91.009a.527.527,0,0,0,.567-.34c.849-1.735,1.725-3.458,2.575-5.192a.872.872,0,0,1,.877-.554c1.19.012,2.38.006,3.57,0a.718.718,0,0,1,.658,1.186c-.479.767-.952,1.539-1.427,2.309-.057.093-.108.189-.191.336H21.33c.147,0,.295,0,.441.011A.677.677,0,0,1,22.2,44.01c-.338.314-.694.61-1.042.913l.1.143c.1.006.209.018.313.018,1.088,0,2.176.012,3.264,0,1.769-.023,1.726,0,1.7,1.722-.007.553,0,1.105,0,1.677h6.92v-.364q0-3.553,0-7.107a.683.683,0,0,1,.973-.7.706.706,0,0,1,.388.7c-.005.952,0,1.9,0,2.856q0,2.567,0,5.135c0,.623-.238.861-.865.861q-3.5,0-7,0H26.54c0,.551,0,1.081,0,1.61,0,.374.008.748,0,1.122a.659.659,0,0,1-.711.693c-.068,0-.136,0-.2,0H9.2c-.725,0-.919-.2-.92-.931,0-.814,0-1.629,0-2.479-.138-.006-.257-.016-.376-.016-2.312,0-4.624-.008-6.935.006A1,1,0,0,1,0,49.409Zm9.66,24.4h15.5V46.474a.647.647,0,0,0-.114-.024c-1.666,0-3.331-.007-5,.007a.646.646,0,0,0-.391.211c-1.177,1.21-2.343,2.431-3.518,3.643a1.134,1.134,0,0,1-.433.308.658.658,0,0,1-.836-.787c.187-.85.4-1.694.6-2.541.064-.268.123-.538.189-.828h-6ZM8.494,23.763A3.945,3.945,0,1,0,12.426,27.7a3.951,3.951,0,0,0-3.932-3.941M19.57,40.371c-.717,0-1.359.01-2-.005a.383.383,0,0,0-.407.259c-.682,1.389-1.376,2.772-2.066,4.157-.043.086-.076.178-.115.27a.51.51,0,0,0,.1.029c.441,0,.883,0,1.324.006.635.01.91.362.765.972-.113.477-.23.954-.344,1.431l.081.071L20.137,44.2c-.62,0-1.138,0-1.656,0a.679.679,0,0,1-.651-.349.71.71,0,0,1,.062-.768c.548-.881,1.092-1.765,1.678-2.714" transform="translate(0 -20.365)" fill="#020202"/>
        <path id="Trazado_721082" data-name="Trazado 721082" d="M218.449,28.377h-1.862a5.307,5.307,0,0,1-10.527,0h-1.224c0,.808,0,1.586,0,2.365a1.638,1.638,0,0,1-.039.4.667.667,0,0,1-1.313-.132c-.016-.305-.007-.612-.007-.918q0-2.55,0-5.1c0-.446.2-.719.55-.775a.677.677,0,0,1,.807.728c.011.612,0,1.224,0,1.836V27h1.227a5.306,5.306,0,0,1,2.248-3.666,5.139,5.139,0,0,1,3.332-.936,5.339,5.339,0,0,1,4.935,4.619c.8,0,1.6,0,2.4,0,.587,0,.829.24.83.821q0,3.417,0,6.833a.7.7,0,0,1-.681.771.708.708,0,0,1-.678-.774c0-.079,0-.159,0-.238V28.377m-7.13-4.625a3.945,3.945,0,1,0,3.925,3.947,3.951,3.951,0,0,0-3.925-3.947" transform="translate(-184.99 -20.354)" fill="#020202"/>
        <path id="Trazado_721083" data-name="Trazado 721083" d="M369.025,186.411a.674.674,0,0,1-.667-.669.679.679,0,1,1,1.358.022.68.68,0,0,1-.69.647" transform="translate(-334.897 -168.244)" fill="#060606"/>
        <path id="Trazado_721084" data-name="Trazado 721084" d="M106.338,292.594v-5.449h6c-.066.29-.125.56-.189.828-.2.847-.416,1.691-.6,2.541a.658.658,0,0,0,.836.787,1.136,1.136,0,0,0,.433-.308c1.175-1.212,2.341-2.433,3.518-3.643a.646.646,0,0,1,.391-.211c1.665-.014,3.331-.008,5-.007a.648.648,0,0,1,.114.024v5.437Z" transform="translate(-96.678 -261.048)" fill="#b6eaba"/>
        <path id="Trazado_721085" data-name="Trazado 721085" d="M54.19,37.4a3.945,3.945,0,1,1-3.928,3.944A3.951,3.951,0,0,1,54.19,37.4m.038,3.265H53.212a.7.7,0,0,0-.7.674.681.681,0,0,0,.664.679q1.016.023,2.032,0a.675.675,0,0,0,.669-.674.684.684,0,0,0-.7-.679c-.316-.009-.632,0-.948,0" transform="translate(-45.696 -34.007)" fill="#fd9caf"/>
        <path id="Trazado_721086" data-name="Trazado 721086" d="M169.511,220.171c-.586.948-1.129,1.833-1.678,2.714a.71.71,0,0,0-.062.768.679.679,0,0,0,.651.349c.518,0,1.036,0,1.656,0l-3.232,3.359-.081-.071c.115-.477.231-.954.344-1.431.145-.61-.13-.962-.765-.972-.441-.007-.883,0-1.324-.006a.51.51,0,0,1-.1-.029c.039-.092.072-.184.115-.27.689-1.385,1.384-2.768,2.066-4.157a.383.383,0,0,1,.407-.259c.642.015,1.284.005,2,.005" transform="translate(-149.942 -200.166)" fill="#fad68c"/>
        <path id="Trazado_721087" data-name="Trazado 721087" d="M250.467,37.4a3.945,3.945,0,1,1-3.935,3.938,3.951,3.951,0,0,1,3.935-3.938m-.7,4.646c.034.655.221.953.636.974a.572.572,0,0,0,.434-.127,6.31,6.31,0,0,0,.426-.862c.559-.021.87-.241.883-.671s-.261-.626-.98-.727c-.077-.7-.265-.968-.691-.977s-.629.269-.725.985c-.69.073-.966.272-.969.7s.3.651.987.706" transform="translate(-224.137 -34.005)" fill="#97e9f7"/>
        <path id="Trazado_721088" data-name="Trazado 721088" d="M76.711,73.321c.316,0,.633-.007.948,0a.684.684,0,0,1,.7.679.675.675,0,0,1-.669.674q-1.016.022-2.032,0A.681.681,0,0,1,74.991,74a.7.7,0,0,1,.7-.674h1.016" transform="translate(-68.179 -66.659)" fill="#030202"/>
        <path id="Trazado_721089" data-name="Trazado 721089" d="M272.262,64.616c-.692-.055-.99-.273-.987-.706s.279-.627.969-.7c.1-.716.3-.994.725-.985s.614.274.691.977c.719.1.993.3.98.727s-.323.65-.883.671a6.312,6.312,0,0,1-.426.862.572.572,0,0,1-.434.127c-.415-.021-.6-.319-.636-.974" transform="translate(-246.634 -56.573)" fill="#020303"/>
      </g>
    </g>
  </g>
</svg>
