<svg xmlns="http://www.w3.org/2000/svg" xmlns:xlink="http://www.w3.org/1999/xlink" width="61" height="43" viewBox="0 0 61 43">
  <defs>
    <clipPath id="clip-path">
      <rect id="Rect치ngulo_339753" data-name="Rect치ngulo 339753" width="61" height="43" transform="translate(1118 3168)" fill="none"/>
    </clipPath>
  </defs>
  <g id="Enmascarar_grupo_927253" data-name="Enmascarar grupo 927253" transform="translate(-1118 -3168)" clip-path="url(#clip-path)">
    <g id="Grupo_956879" data-name="Grupo 956879" transform="translate(1110.61 3172.195)">
      <g id="Grupo_956880" data-name="Grupo 956880" transform="translate(22.39 0.805)">
        <path id="Trazado_721103" data-name="Trazado 721103" d="M34.214,246.739c-.224-.054-.447-.114-.673-.16a8.961,8.961,0,0,1-3.882-1.819c-.149-.119-.3-.233-.519-.4,0,.335,0,.612,0,.887a4.373,4.373,0,0,1-.04.611.746.746,0,0,1-.809.709c-1.64.008-3.281.011-4.921,0a.938.938,0,0,1-.978-1.03q0-6.527,0-13.054a.882.882,0,0,1,.932-.984c1.674-.016,3.349-.012,5.023,0a.687.687,0,0,1,.754.677c.047.451.018.909.05,1.362a.377.377,0,0,0,.2.278c1.652.5,3.3,1.014,4.968,1.449a8.3,8.3,0,0,0,1.966.18c1.754.023,3.508.006,5.262.008a2.447,2.447,0,0,1,2.418,1.46,7.2,7.2,0,0,1,.326,1.342c.05-.022.149-.064.246-.111q2.637-1.278,5.275-2.555a2.624,2.624,0,0,1,3.445.827,2.548,2.548,0,0,1-.634,3.521c-1.586,1.126-3.2,2.211-4.812,3.3-1.233.835-2.458,1.687-3.727,2.463a7.094,7.094,0,0,1-3.132.974c-.036,0-.069.04-.1.061Zm-5.047-11.2a1.559,1.559,0,0,0-.024.161c0,2.1,0,4.192.005,6.288a.5.5,0,0,0,.167.335c.6.489,1.2.984,1.827,1.433a6.534,6.534,0,0,0,3.722,1.27c1.64.032,3.281,0,4.921.023a7.311,7.311,0,0,0,4.386-1.36c2.387-1.65,4.788-3.281,7.183-4.921a2.883,2.883,0,0,0,.355-.266.871.871,0,0,0-.347-1.494,1.384,1.384,0,0,0-.841.134c-1.735.824-3.456,1.679-5.186,2.516a13.426,13.426,0,0,1-1.892.853,15.657,15.657,0,0,1-6.783.564.881.881,0,0,1-.861-.913.841.841,0,0,1,1.027-.746,14.41,14.41,0,0,0,5.021-.246c.689-.153.686-.163.685-.888,0-.89-.251-1.143-1.136-1.143-1.481,0-2.962-.02-4.443,0a15.55,15.55,0,0,1-5.4-.848c-.781-.271-1.577-.5-2.39-.757m-5.051,9.32h3.308V233.214H24.115Z" transform="translate(-22.39 -211.739)"/>
        <path id="Trazado_721104" data-name="Trazado 721104" d="M198.647,165.229a4,4,0,1,1,3.99,4,3.991,3.991,0,0,1-3.99-4m3.981-2.309a2.3,2.3,0,1,0,2.323,2.283,2.326,2.326,0,0,0-2.323-2.283" transform="translate(-183.556 -147.492)"/>
        <path id="Trazado_721105" data-name="Trazado 721105" d="M117.955,84.564a4,4,0,1,1,3.989,4,3.99,3.99,0,0,1-3.989-4m3.986-2.306a2.3,2.3,0,1,0,2.321,2.287,2.324,2.324,0,0,0-2.321-2.287" transform="translate(-109.773 -73.737)"/>
        <path id="Trazado_721106" data-name="Trazado 721106" d="M205.551,4.8a4,4,0,1,1-4-3.99,4,4,0,0,1,4,3.99m-4,2.313a2.3,2.3,0,1,0-2.313-2.3,2.32,2.32,0,0,0,2.313,2.3" transform="translate(-182.554 -0.805)"/>
        <path id="Trazado_721107" data-name="Trazado 721107" d="M101.266,278.816c.813.256,1.609.486,2.39.757a15.551,15.551,0,0,0,5.4.848c1.481-.024,2.962-.006,4.443,0,.885,0,1.135.253,1.136,1.144,0,.725,0,.735-.685.888a14.412,14.412,0,0,1-5.021.246.842.842,0,0,0-1.027.746.881.881,0,0,0,.861.913,15.658,15.658,0,0,0,6.783-.564,13.438,13.438,0,0,0,1.892-.853c1.729-.837,3.45-1.692,5.185-2.516a1.384,1.384,0,0,1,.841-.134.871.871,0,0,1,.347,1.494,2.891,2.891,0,0,1-.355.266c-2.395,1.64-4.8,3.271-7.183,4.921a7.31,7.31,0,0,1-4.386,1.36c-1.64-.027-3.281.009-4.921-.023a6.534,6.534,0,0,1-3.722-1.27c-.629-.45-1.227-.945-1.827-1.434a.5.5,0,0,1-.167-.335c-.009-2.1-.006-4.192-.005-6.288a1.535,1.535,0,0,1,.024-.161" transform="translate(-94.49 -255.014)" fill="#fdc697"/>
        <rect id="Rect치ngulo_339751" data-name="Rect치ngulo 339751" width="3.308" height="11.647" transform="translate(1.725 21.475)" fill="#127480"/>
        <path id="Trazado_721108" data-name="Trazado 721108" d="M220.507,181a2.3,2.3,0,1,1-2.307,2.307A2.307,2.307,0,0,1,220.507,181" transform="translate(-201.435 -165.572)" fill="#f29e26"/>
        <path id="Trazado_721109" data-name="Trazado 721109" d="M139.837,100.329a2.3,2.3,0,1,1-2.31,2.3,2.309,2.309,0,0,1,2.31-2.3" transform="translate(-127.669 -91.808)" fill="#f29e26"/>
        <path id="Trazado_721110" data-name="Trazado 721110" d="M219.556,25.232a2.3,2.3,0,1,1,2.322-2.29,2.319,2.319,0,0,1-2.322,2.29" transform="translate(-200.56 -18.929)" fill="#f19e26"/>
      </g>
    </g>
  </g>
</svg>
